<?xml version="1.0" encoding="UTF-8" standalone="no"?><svg xmlns="http://www.w3.org/2000/svg" xmlns:xlink="http://www.w3.org/1999/xlink" contentScriptType="application/ecmascript" contentStyleType="text/css" height="594px" preserveAspectRatio="none" style="width:5083px;height:594px;" version="1.1" viewBox="0 0 5083 594" width="5083px" zoomAndPan="magnify"><defs><filter height="300%" id="f1cvjhqiu8u9uw" width="300%" x="-1" y="-1"><feGaussianBlur result="blurOut" stdDeviation="2.0"/><feColorMatrix in="blurOut" result="blurOut2" type="matrix" values="0 0 0 0 0 0 0 0 0 0 0 0 0 0 0 0 0 0 .4 0"/><feOffset dx="4.0" dy="4.0" in="blurOut2" result="blurOut3"/><feBlend in="SourceGraphic" in2="blurOut3" mode="normal"/></filter></defs><g><text fill="#000000" font-family="Segoe UI" font-size="14" lengthAdjust="spacingAndGlyphs" textLength="257" x="2419" y="12.9951">Knowledge Base &amp; Rules Foundation</text><!--MD5=[5aa072f6576f322cba28d6e44dc1117a]
cluster KB--><polygon fill="#FFF9C4" filter="url(#f1cvjhqiu8u9uw)" points="22,52.7969,268,52.7969,275,71.6016,2109,71.6016,2109,582.2969,22,582.2969,22,52.7969" style="stroke: #000000; stroke-width: 1.5;"/><line style="stroke: #000000; stroke-width: 1.5;" x1="22" x2="275" y1="71.6016" y2="71.6016"/><text fill="#000000" font-family="Segoe UI" font-size="11" font-weight="bold" lengthAdjust="spacingAndGlyphs" textLength="240" x="26" y="65.0073">Knowledge Base (studio/knowledge/)</text><!--MD5=[2d4be5ebd6283298ad35c24f634118b4]
cluster packs/--><polygon fill="#FFF9C4" filter="url(#f1cvjhqiu8u9uw)" points="46,309.7969,93,309.7969,100,328.6016,846,328.6016,846,558.2969,46,558.2969,46,309.7969" style="stroke: #000000; stroke-width: 1.5;"/><line style="stroke: #000000; stroke-width: 1.5;" x1="46" x2="100" y1="328.6016" y2="328.6016"/><text fill="#000000" font-family="Segoe UI" font-size="11" font-weight="bold" lengthAdjust="spacingAndGlyphs" textLength="41" x="50" y="322.0073">packs/</text><!--MD5=[4d78968a62036c440b7c5d45e289ace8]
cluster fetish-db/--><polygon fill="#FFF9C4" filter="url(#f1cvjhqiu8u9uw)" points="870,303.2969,938,303.2969,945,322.1016,1048,322.1016,1048,406.2969,870,406.2969,870,303.2969" style="stroke: #000000; stroke-width: 1.5;"/><line style="stroke: #000000; stroke-width: 1.5;" x1="870" x2="945" y1="322.1016" y2="322.1016"/><text fill="#000000" font-family="Segoe UI" font-size="11" font-weight="bold" lengthAdjust="spacingAndGlyphs" textLength="62" x="874" y="315.5073">fetish-db/</text><!--MD5=[d2fe707722e7b53c67402d602cc68408]
cluster glossaries/--><polygon fill="#FFF9C4" filter="url(#f1cvjhqiu8u9uw)" points="1072,309.7969,1148,309.7969,1155,328.6016,1224,328.6016,1224,399.7969,1072,399.7969,1072,309.7969" style="stroke: #000000; stroke-width: 1.5;"/><line style="stroke: #000000; stroke-width: 1.5;" x1="1072" x2="1155" y1="328.6016" y2="328.6016"/><text fill="#000000" font-family="Segoe UI" font-size="11" font-weight="bold" lengthAdjust="spacingAndGlyphs" textLength="70" x="1076" y="322.0073">glossaries/</text><!--MD5=[14fa89cd77898be13c7056fb5cefb843]
cluster sfx/--><polygon fill="#FFF9C4" filter="url(#f1cvjhqiu8u9uw)" points="1248,309.7969,1277,309.7969,1284,328.6016,1859,328.6016,1859,399.7969,1248,399.7969,1248,309.7969" style="stroke: #000000; stroke-width: 1.5;"/><line style="stroke: #000000; stroke-width: 1.5;" x1="1248" x2="1284" y1="328.6016" y2="328.6016"/><text fill="#000000" font-family="Segoe UI" font-size="11" font-weight="bold" lengthAdjust="spacingAndGlyphs" textLength="23" x="1252" y="322.0073">sfx/</text><!--MD5=[b16c04071bd2cc880578545e7fba6931]
cluster style-guides/--><polygon fill="#FFF9C4" filter="url(#f1cvjhqiu8u9uw)" points="1578,91.7969,1667,91.7969,1674,110.6016,2041,110.6016,2041,181.7969,1578,181.7969,1578,91.7969" style="stroke: #000000; stroke-width: 1.5;"/><line style="stroke: #000000; stroke-width: 1.5;" x1="1578" x2="1674" y1="110.6016" y2="110.6016"/><text fill="#000000" font-family="Segoe UI" font-size="11" font-weight="bold" lengthAdjust="spacingAndGlyphs" textLength="83" x="1582" y="104.0073">style-guides/</text><!--MD5=[20ee124798f850577684b5667d80ace3]
cluster trope_beat_sheets/--><polygon fill="#FFF9C4" filter="url(#f1cvjhqiu8u9uw)" points="1883,303.2969,2011,303.2969,2018,322.1016,2085,322.1016,2085,406.2969,1883,406.2969,1883,303.2969" style="stroke: #000000; stroke-width: 1.5;"/><line style="stroke: #000000; stroke-width: 1.5;" x1="1883" x2="2018" y1="322.1016" y2="322.1016"/><text fill="#000000" font-family="Segoe UI" font-size="11" font-weight="bold" lengthAdjust="spacingAndGlyphs" textLength="122" x="1887" y="315.5073">trope_beat_sheets/</text><!--MD5=[21020af5176518c454e06dc93c31e47f]
cluster characters/--><polygon fill="#FFF9C4" filter="url(#f1cvjhqiu8u9uw)" points="1335,91.7969,1413,91.7969,1420,110.6016,1511,110.6016,1511,181.7969,1335,181.7969,1335,91.7969" style="stroke: #000000; stroke-width: 1.5;"/><line style="stroke: #000000; stroke-width: 1.5;" x1="1335" x2="1420" y1="110.6016" y2="110.6016"/><text fill="#000000" font-family="Segoe UI" font-size="11" font-weight="bold" lengthAdjust="spacingAndGlyphs" textLength="72" x="1339" y="104.0073">characters/</text><!--MD5=[6232393676b113107c4f8c67c042bae4]
cluster RULES--><polygon fill="#F5F5F5" filter="url(#f1cvjhqiu8u9uw)" points="2141,77.2969,2464,77.2969,2471,96.1016,3176,96.1016,3176,444.2969,2141,444.2969,2141,77.2969" style="stroke: #000000; stroke-width: 1.5;"/><line style="stroke: #000000; stroke-width: 1.5;" x1="2141" x2="2471" y1="96.1016" y2="96.1016"/><text fill="#000000" font-family="Segoe UI" font-size="11" font-weight="bold" lengthAdjust="spacingAndGlyphs" textLength="317" x="2145" y="89.5073">Rules (studio/rules/) — SINGLE SOURCE OF TRUTH</text><!--MD5=[1398053d859fafbda8acad26322d48ea]
cluster mandatory/--><polygon fill="#F5F5F5" filter="url(#f1cvjhqiu8u9uw)" points="2780,297.2969,2858,297.2969,2865,316.1016,2996,316.1016,2996,412.2969,2780,412.2969,2780,297.2969" style="stroke: #000000; stroke-width: 1.5;"/><line style="stroke: #000000; stroke-width: 1.5;" x1="2780" x2="2865" y1="316.1016" y2="316.1016"/><text fill="#000000" font-family="Segoe UI" font-size="11" font-weight="bold" lengthAdjust="spacingAndGlyphs" textLength="72" x="2784" y="309.5073">mandatory/</text><!--MD5=[cdf347563fef12af5d6b1b2980bb1482]
cluster CONFIG--><polygon fill="#F5F5F5" filter="url(#f1cvjhqiu8u9uw)" points="3698,264.2969,3848,264.2969,3855,283.1016,5061,283.1016,5061,558.2969,3698,558.2969,3698,264.2969" style="stroke: #000000; stroke-width: 1.5;"/><line style="stroke: #000000; stroke-width: 1.5;" x1="3698" x2="3855" y1="283.1016" y2="283.1016"/><text fill="#000000" font-family="Segoe UI" font-size="11" font-weight="bold" lengthAdjust="spacingAndGlyphs" textLength="144" x="3702" y="276.5073">Config (studio/config/)</text><!--MD5=[16afb137f1afd803702285c6cee11ce0]
cluster pipelines/--><polygon fill="#F5F5F5" filter="url(#f1cvjhqiu8u9uw)" points="4704,309.7969,4773,309.7969,4780,328.6016,5037,328.6016,5037,399.7969,4704,399.7969,4704,309.7969" style="stroke: #000000; stroke-width: 1.5;"/><line style="stroke: #000000; stroke-width: 1.5;" x1="4704" x2="4780" y1="328.6016" y2="328.6016"/><text fill="#000000" font-family="Segoe UI" font-size="11" font-weight="bold" lengthAdjust="spacingAndGlyphs" textLength="63" x="4708" y="322.0073">pipelines/</text><!--MD5=[431bcdbafd740923bcc8712fd6d52f26]
cluster protocols/--><polygon fill="#F5F5F5" filter="url(#f1cvjhqiu8u9uw)" points="4478,309.7969,4548,309.7969,4555,328.6016,4680,328.6016,4680,399.7969,4478,399.7969,4478,309.7969" style="stroke: #000000; stroke-width: 1.5;"/><line style="stroke: #000000; stroke-width: 1.5;" x1="4478" x2="4555" y1="328.6016" y2="328.6016"/><text fill="#000000" font-family="Segoe UI" font-size="11" font-weight="bold" lengthAdjust="spacingAndGlyphs" textLength="64" x="4482" y="322.0073">protocols/</text><!--MD5=[934113e6174b173c202e627d37ea00bd]
cluster templates/--><polygon fill="#F5F5F5" filter="url(#f1cvjhqiu8u9uw)" points="4264,303.2969,4338,303.2969,4345,322.1016,4454,322.1016,4454,406.2969,4264,406.2969,4264,303.2969" style="stroke: #000000; stroke-width: 1.5;"/><line style="stroke: #000000; stroke-width: 1.5;" x1="4264" x2="4345" y1="322.1016" y2="322.1016"/><text fill="#000000" font-family="Segoe UI" font-size="11" font-weight="bold" lengthAdjust="spacingAndGlyphs" textLength="68" x="4268" y="315.5073">templates/</text><!--MD5=[70becb833e031d8ab2b25bb6fd041c2b]
cluster INFRA--><polygon fill="#EFEBE9" filter="url(#f1cvjhqiu8u9uw)" points="3907,40.2969,4119,40.2969,4126,59.1016,4361,59.1016,4361,218.2969,3907,218.2969,3907,40.2969" style="stroke: #000000; stroke-width: 1.5;"/><line style="stroke: #000000; stroke-width: 1.5;" x1="3907" x2="4126" y1="59.1016" y2="59.1016"/><text fill="#000000" font-family="Segoe UI" font-size="11" font-weight="bold" lengthAdjust="spacingAndGlyphs" textLength="206" x="3911" y="52.5073">Infrastructure (studio/schemas/)</text><!--MD5=[41ea13470db7e6b11caf4b170ca766c7]
cluster JSON Schemas--><polygon fill="#EFEBE9" filter="url(#f1cvjhqiu8u9uw)" points="4113,85.2969,4211,85.2969,4218,104.1016,4337,104.1016,4337,188.2969,4113,188.2969,4113,85.2969" style="stroke: #000000; stroke-width: 1.5;"/><line style="stroke: #000000; stroke-width: 1.5;" x1="4113" x2="4218" y1="104.1016" y2="104.1016"/><text fill="#000000" font-family="Segoe UI" font-size="11" font-weight="bold" lengthAdjust="spacingAndGlyphs" textLength="92" x="4117" y="97.5073">JSON Schemas</text><!--MD5=[90aa13df4962cbfe02e00b0f9f084c4a]
cluster pydantic/--><polygon fill="#EFEBE9" filter="url(#f1cvjhqiu8u9uw)" points="3931,79.2969,3996,79.2969,4003,98.1016,4089,98.1016,4089,194.2969,3931,194.2969,3931,79.2969" style="stroke: #000000; stroke-width: 1.5;"/><line style="stroke: #000000; stroke-width: 1.5;" x1="3931" x2="4003" y1="98.1016" y2="98.1016"/><text fill="#000000" font-family="Segoe UI" font-size="11" font-weight="bold" lengthAdjust="spacingAndGlyphs" textLength="59" x="3935" y="91.5073">pydantic/</text><!--MD5=[82e07ffbddcb84fb332656874b5a953a]
entity idx--><rect fill="#FEFECE" filter="url(#f1cvjhqiu8u9uw)" height="42.8047" style="stroke: #A80036; stroke-width: 1.5;" width="165" x="1065.5" y="122.7969"/><rect fill="#FEFECE" height="10" style="stroke: #A80036; stroke-width: 1.5;" width="15" x="1210.5" y="127.7969"/><rect fill="#FEFECE" height="2" style="stroke: #A80036; stroke-width: 1.5;" width="4" x="1208.5" y="129.7969"/><rect fill="#FEFECE" height="2" style="stroke: #A80036; stroke-width: 1.5;" width="4" x="1208.5" y="133.7969"/><text fill="#000000" font-family="Segoe UI" font-size="11" lengthAdjust="spacingAndGlyphs" textLength="125" x="1080.5" y="153.0073">knowledge-index.yaml</text><!--MD5=[5a0e5e10d8650924c8b21679dca0cbec]
entity p_arousal--><rect fill="#FEFECE" filter="url(#f1cvjhqiu8u9uw)" height="42.8047" style="stroke: #A80036; stroke-width: 1.5;" width="157" x="62.5" y="340.7969"/><rect fill="#FEFECE" height="10" style="stroke: #A80036; stroke-width: 1.5;" width="15" x="199.5" y="345.7969"/><rect fill="#FEFECE" height="2" style="stroke: #A80036; stroke-width: 1.5;" width="4" x="197.5" y="347.7969"/><rect fill="#FEFECE" height="2" style="stroke: #A80036; stroke-width: 1.5;" width="4" x="197.5" y="351.7969"/><text fill="#000000" font-family="Segoe UI" font-size="11" lengthAdjust="spacingAndGlyphs" textLength="117" x="77.5" y="371.0073">arousal_architecture</text><!--MD5=[6a1bdb90aab7676547675c6221636fb2]
entity p_narrative--><rect fill="#FEFECE" filter="url(#f1cvjhqiu8u9uw)" height="42.8047" style="stroke: #A80036; stroke-width: 1.5;" width="156" x="255" y="340.7969"/><rect fill="#FEFECE" height="10" style="stroke: #A80036; stroke-width: 1.5;" width="15" x="391" y="345.7969"/><rect fill="#FEFECE" height="2" style="stroke: #A80036; stroke-width: 1.5;" width="4" x="389" y="347.7969"/><rect fill="#FEFECE" height="2" style="stroke: #A80036; stroke-width: 1.5;" width="4" x="389" y="351.7969"/><text fill="#000000" font-family="Segoe UI" font-size="11" lengthAdjust="spacingAndGlyphs" textLength="116" x="270" y="371.0073">narrative_style_pack</text><!--MD5=[7c31e6369d8183a8a654a3247c498cce]
entity p_psych--><rect fill="#FEFECE" filter="url(#f1cvjhqiu8u9uw)" height="42.8047" style="stroke: #A80036; stroke-width: 1.5;" width="205" x="446.5" y="340.7969"/><rect fill="#FEFECE" height="10" style="stroke: #A80036; stroke-width: 1.5;" width="15" x="631.5" y="345.7969"/><rect fill="#FEFECE" height="2" style="stroke: #A80036; stroke-width: 1.5;" width="4" x="629.5" y="347.7969"/><rect fill="#FEFECE" height="2" style="stroke: #A80036; stroke-width: 1.5;" width="4" x="629.5" y="351.7969"/><text fill="#000000" font-family="Segoe UI" font-size="11" lengthAdjust="spacingAndGlyphs" textLength="165" x="461.5" y="371.0073">japanese_reader_psychology</text><!--MD5=[a34247eb4557b13e3cbec2923857c50f]
entity p_sensory--><rect fill="#FEFECE" filter="url(#f1cvjhqiu8u9uw)" height="42.8047" style="stroke: #A80036; stroke-width: 1.5;" width="143" x="686.5" y="340.7969"/><rect fill="#FEFECE" height="10" style="stroke: #A80036; stroke-width: 1.5;" width="15" x="809.5" y="345.7969"/><rect fill="#FEFECE" height="2" style="stroke: #A80036; stroke-width: 1.5;" width="4" x="807.5" y="347.7969"/><rect fill="#FEFECE" height="2" style="stroke: #A80036; stroke-width: 1.5;" width="4" x="807.5" y="351.7969"/><text fill="#000000" font-family="Segoe UI" font-size="11" lengthAdjust="spacingAndGlyphs" textLength="103" x="701.5" y="371.0073">r18_sensory_pack</text><!--MD5=[692c4d9adcdfaa3c947af346ebf6f48f]
entity p_rp--><rect fill="#FEFECE" filter="url(#f1cvjhqiu8u9uw)" height="42.8047" style="stroke: #A80036; stroke-width: 1.5;" width="134" x="266" y="499.2969"/><rect fill="#FEFECE" height="10" style="stroke: #A80036; stroke-width: 1.5;" width="15" x="380" y="504.2969"/><rect fill="#FEFECE" height="2" style="stroke: #A80036; stroke-width: 1.5;" width="4" x="378" y="506.2969"/><rect fill="#FEFECE" height="2" style="stroke: #A80036; stroke-width: 1.5;" width="4" x="378" y="510.2969"/><text fill="#000000" font-family="Segoe UI" font-size="11" lengthAdjust="spacingAndGlyphs" textLength="94" x="281" y="529.5073">roleplay_st_pack</text><!--MD5=[bc1f3dfe58123416f2526f654adc0dbc]
entity p_fetish--><rect fill="#FEFECE" filter="url(#f1cvjhqiu8u9uw)" height="42.8047" style="stroke: #A80036; stroke-width: 1.5;" width="161" x="435.5" y="499.2969"/><rect fill="#FEFECE" height="10" style="stroke: #A80036; stroke-width: 1.5;" width="15" x="576.5" y="504.2969"/><rect fill="#FEFECE" height="2" style="stroke: #A80036; stroke-width: 1.5;" width="4" x="574.5" y="506.2969"/><rect fill="#FEFECE" height="2" style="stroke: #A80036; stroke-width: 1.5;" width="4" x="574.5" y="510.2969"/><text fill="#000000" font-family="Segoe UI" font-size="11" lengthAdjust="spacingAndGlyphs" textLength="121" x="450.5" y="529.5073">fetish_guidance_pack</text><!--MD5=[fb507dd61262eca268bcec1c614fdccf]
entity fdb--><rect fill="#FEFECE" filter="url(#f1cvjhqiu8u9uw)" height="55.6094" style="stroke: #A80036; stroke-width: 1.5;" width="145" x="886.5" y="334.2969"/><rect fill="#FEFECE" height="10" style="stroke: #A80036; stroke-width: 1.5;" width="15" x="1011.5" y="339.2969"/><rect fill="#FEFECE" height="2" style="stroke: #A80036; stroke-width: 1.5;" width="4" x="1009.5" y="341.2969"/><rect fill="#FEFECE" height="2" style="stroke: #A80036; stroke-width: 1.5;" width="4" x="1009.5" y="345.2969"/><text fill="#000000" font-family="Segoe UI" font-size="11" lengthAdjust="spacingAndGlyphs" textLength="104" x="901.5" y="364.5073">anal / mindbreak /</text><text fill="#000000" font-family="Segoe UI" font-size="11" lengthAdjust="spacingAndGlyphs" textLength="105" x="901.5" y="377.312">ntr / creampie / ...</text><!--MD5=[3859e49304a8b447da033750b11b6ea6]
entity gloss--><rect fill="#FEFECE" filter="url(#f1cvjhqiu8u9uw)" height="42.8047" style="stroke: #A80036; stroke-width: 1.5;" width="120" x="1088" y="340.7969"/><rect fill="#FEFECE" height="10" style="stroke: #A80036; stroke-width: 1.5;" width="15" x="1188" y="345.7969"/><rect fill="#FEFECE" height="2" style="stroke: #A80036; stroke-width: 1.5;" width="4" x="1186" y="347.7969"/><rect fill="#FEFECE" height="2" style="stroke: #A80036; stroke-width: 1.5;" width="4" x="1186" y="351.7969"/><text fill="#000000" font-family="Segoe UI" font-size="11" lengthAdjust="spacingAndGlyphs" textLength="80" x="1103" y="371.0073">hentai_lexicon</text><!--MD5=[f821ae066b3b1454eb50e345fa7f5179]
entity sfx_dict--><rect fill="#FEFECE" filter="url(#f1cvjhqiu8u9uw)" height="42.8047" style="stroke: #A80036; stroke-width: 1.5;" width="176" x="1667" y="340.7969"/><rect fill="#FEFECE" height="10" style="stroke: #A80036; stroke-width: 1.5;" width="15" x="1823" y="345.7969"/><rect fill="#FEFECE" height="2" style="stroke: #A80036; stroke-width: 1.5;" width="4" x="1821" y="347.7969"/><rect fill="#FEFECE" height="2" style="stroke: #A80036; stroke-width: 1.5;" width="4" x="1821" y="351.7969"/><text fill="#000000" font-family="Segoe UI" font-size="11" lengthAdjust="spacingAndGlyphs" textLength="136" x="1682" y="371.0073">japanese_sfx_dictionary</text><!--MD5=[6bb0168a60ffa05fba4fb375e26a640d]
entity sfx_moan--><rect fill="#FEFECE" filter="url(#f1cvjhqiu8u9uw)" height="42.8047" style="stroke: #A80036; stroke-width: 1.5;" width="169" x="1463.5" y="340.7969"/><rect fill="#FEFECE" height="10" style="stroke: #A80036; stroke-width: 1.5;" width="15" x="1612.5" y="345.7969"/><rect fill="#FEFECE" height="2" style="stroke: #A80036; stroke-width: 1.5;" width="4" x="1610.5" y="347.7969"/><rect fill="#FEFECE" height="2" style="stroke: #A80036; stroke-width: 1.5;" width="4" x="1610.5" y="351.7969"/><text fill="#000000" font-family="Segoe UI" font-size="11" lengthAdjust="spacingAndGlyphs" textLength="129" x="1478.5" y="371.0073">moaning_sfx_research</text><!--MD5=[ef08283fa8acb7cacb89eb4b07966e2e]
entity sfx_ref--><rect fill="#FEFECE" filter="url(#f1cvjhqiu8u9uw)" height="42.8047" style="stroke: #A80036; stroke-width: 1.5;" width="164" x="1264" y="340.7969"/><rect fill="#FEFECE" height="10" style="stroke: #A80036; stroke-width: 1.5;" width="15" x="1408" y="345.7969"/><rect fill="#FEFECE" height="2" style="stroke: #A80036; stroke-width: 1.5;" width="4" x="1406" y="347.7969"/><rect fill="#FEFECE" height="2" style="stroke: #A80036; stroke-width: 1.5;" width="4" x="1406" y="351.7969"/><text fill="#000000" font-family="Segoe UI" font-size="11" lengthAdjust="spacingAndGlyphs" textLength="124" x="1279" y="371.0073">r18_sfx_quickref.yaml</text><!--MD5=[9b5febad8f1551883dada14c7d5ea83b]
entity sg_mesu--><rect fill="#FEFECE" filter="url(#f1cvjhqiu8u9uw)" height="42.8047" style="stroke: #A80036; stroke-width: 1.5;" width="202" x="1823" y="122.7969"/><rect fill="#FEFECE" height="10" style="stroke: #A80036; stroke-width: 1.5;" width="15" x="2005" y="127.7969"/><rect fill="#FEFECE" height="2" style="stroke: #A80036; stroke-width: 1.5;" width="4" x="2003" y="129.7969"/><rect fill="#FEFECE" height="2" style="stroke: #A80036; stroke-width: 1.5;" width="4" x="2003" y="133.7969"/><text fill="#000000" font-family="Segoe UI" font-size="11" lengthAdjust="spacingAndGlyphs" textLength="162" x="1838" y="153.0073">MESUGAKI_DIALOGUE_STYLE</text><!--MD5=[beea6cb43223eeb07d760ffbe77cd2cd]
entity sg_culture--><rect fill="#FEFECE" filter="url(#f1cvjhqiu8u9uw)" height="42.8047" style="stroke: #A80036; stroke-width: 1.5;" width="194" x="1594" y="122.7969"/><rect fill="#FEFECE" height="10" style="stroke: #A80036; stroke-width: 1.5;" width="15" x="1768" y="127.7969"/><rect fill="#FEFECE" height="2" style="stroke: #A80036; stroke-width: 1.5;" width="4" x="1766" y="129.7969"/><rect fill="#FEFECE" height="2" style="stroke: #A80036; stroke-width: 1.5;" width="4" x="1766" y="133.7969"/><text fill="#000000" font-family="Segoe UI" font-size="11" lengthAdjust="spacingAndGlyphs" textLength="154" x="1609" y="153.0073">R18_LIGHTNOVEL_CULTURE</text><!--MD5=[1514d094aa83becef7f88046d67d068e]
entity beats--><rect fill="#FEFECE" filter="url(#f1cvjhqiu8u9uw)" height="55.6094" style="stroke: #A80036; stroke-width: 1.5;" width="170" x="1899" y="334.2969"/><rect fill="#FEFECE" height="10" style="stroke: #A80036; stroke-width: 1.5;" width="15" x="2049" y="339.2969"/><rect fill="#FEFECE" height="2" style="stroke: #A80036; stroke-width: 1.5;" width="4" x="2047" y="341.2969"/><rect fill="#FEFECE" height="2" style="stroke: #A80036; stroke-width: 1.5;" width="4" x="2047" y="345.2969"/><text fill="#000000" font-family="Segoe UI" font-size="11" lengthAdjust="spacingAndGlyphs" textLength="130" x="1914" y="364.5073">corruption / mindbreak</text><text fill="#000000" font-family="Segoe UI" font-size="11" lengthAdjust="spacingAndGlyphs" textLength="56" x="1914" y="377.312">/ ... beats</text><!--MD5=[a28c75f48273b608ff2ed23c317a1177]
entity chars--><rect fill="#FEFECE" filter="url(#f1cvjhqiu8u9uw)" height="42.8047" style="stroke: #A80036; stroke-width: 1.5;" width="143" x="1351.5" y="122.7969"/><rect fill="#FEFECE" height="10" style="stroke: #A80036; stroke-width: 1.5;" width="15" x="1474.5" y="127.7969"/><rect fill="#FEFECE" height="2" style="stroke: #A80036; stroke-width: 1.5;" width="4" x="1472.5" y="129.7969"/><rect fill="#FEFECE" height="2" style="stroke: #A80036; stroke-width: 1.5;" width="4" x="1472.5" y="133.7969"/><text fill="#000000" font-family="Segoe UI" font-size="11" lengthAdjust="spacingAndGlyphs" textLength="103" x="1366.5" y="153.0073">Character Profiles</text><!--MD5=[00b821eb96e2e92c96d1a4f586c1b61b]
entity canon--><rect fill="#FFE0B2" filter="url(#f1cvjhqiu8u9uw)" height="55.6094" style="stroke: #A80036; stroke-width: 1.5;" width="154" x="2979" y="116.2969"/><rect fill="#FFE0B2" height="10" style="stroke: #A80036; stroke-width: 1.5;" width="15" x="3113" y="121.2969"/><rect fill="#FFE0B2" height="2" style="stroke: #A80036; stroke-width: 1.5;" width="4" x="3111" y="123.2969"/><rect fill="#FFE0B2" height="2" style="stroke: #A80036; stroke-width: 1.5;" width="4" x="3111" y="127.2969"/><text fill="#000000" font-family="Segoe UI" font-size="11" lengthAdjust="spacingAndGlyphs" textLength="114" x="2994" y="146.5073">canon-preamble.md</text><text fill="#000000" font-family="Segoe UI" font-size="11" lengthAdjust="spacingAndGlyphs" textLength="109" x="2994" y="159.312">(ABSOLUTE TRUTH)</text><!--MD5=[2f04ed783dff4ff4717d3fa34bd3f39b]
entity canon_rules--><rect fill="#FEFECE" filter="url(#f1cvjhqiu8u9uw)" height="42.8047" style="stroke: #A80036; stroke-width: 1.5;" width="129" x="3014.5" y="340.7969"/><rect fill="#FEFECE" height="10" style="stroke: #A80036; stroke-width: 1.5;" width="15" x="3123.5" y="345.7969"/><rect fill="#FEFECE" height="2" style="stroke: #A80036; stroke-width: 1.5;" width="4" x="3121.5" y="347.7969"/><rect fill="#FEFECE" height="2" style="stroke: #A80036; stroke-width: 1.5;" width="4" x="3121.5" y="351.7969"/><text fill="#000000" font-family="Segoe UI" font-size="11" lengthAdjust="spacingAndGlyphs" textLength="89" x="3029.5" y="371.0073">canon-rules.md</text><!--MD5=[3b7a860dba06dea407702bb7998ce89a]
entity rule_gooner--><rect fill="#FEFECE" filter="url(#f1cvjhqiu8u9uw)" height="42.8047" style="stroke: #A80036; stroke-width: 1.5;" width="163" x="2165.5" y="122.7969"/><rect fill="#FEFECE" height="10" style="stroke: #A80036; stroke-width: 1.5;" width="15" x="2308.5" y="127.7969"/><rect fill="#FEFECE" height="2" style="stroke: #A80036; stroke-width: 1.5;" width="4" x="2306.5" y="129.7969"/><rect fill="#FEFECE" height="2" style="stroke: #A80036; stroke-width: 1.5;" width="4" x="2306.5" y="133.7969"/><text fill="#000000" font-family="Segoe UI" font-size="11" lengthAdjust="spacingAndGlyphs" textLength="123" x="2180.5" y="153.0073">gooner_principles.md</text><!--MD5=[ab8518382ed43991d7e299c4388f89d9]
entity rule_slop--><rect fill="#FEFECE" filter="url(#f1cvjhqiu8u9uw)" height="42.8047" style="stroke: #A80036; stroke-width: 1.5;" width="113" x="2363.5" y="122.7969"/><rect fill="#FEFECE" height="10" style="stroke: #A80036; stroke-width: 1.5;" width="15" x="2456.5" y="127.7969"/><rect fill="#FEFECE" height="2" style="stroke: #A80036; stroke-width: 1.5;" width="4" x="2454.5" y="129.7969"/><rect fill="#FEFECE" height="2" style="stroke: #A80036; stroke-width: 1.5;" width="4" x="2454.5" y="133.7969"/><text fill="#000000" font-family="Segoe UI" font-size="11" lengthAdjust="spacingAndGlyphs" textLength="73" x="2378.5" y="153.0073">anti_slop.md</text><!--MD5=[12b77547e111c6600b7f27f515c6f25b]
entity rule_sensory--><rect fill="#FEFECE" filter="url(#f1cvjhqiu8u9uw)" height="42.8047" style="stroke: #A80036; stroke-width: 1.5;" width="155" x="2511.5" y="122.7969"/><rect fill="#FEFECE" height="10" style="stroke: #A80036; stroke-width: 1.5;" width="15" x="2646.5" y="127.7969"/><rect fill="#FEFECE" height="2" style="stroke: #A80036; stroke-width: 1.5;" width="4" x="2644.5" y="129.7969"/><rect fill="#FEFECE" height="2" style="stroke: #A80036; stroke-width: 1.5;" width="4" x="2644.5" y="133.7969"/><text fill="#000000" font-family="Segoe UI" font-size="11" lengthAdjust="spacingAndGlyphs" textLength="115" x="2526.5" y="153.0073">sensory_density.md</text><!--MD5=[3557014c55d18f1474cfe6fe244b13f0]
entity rule_hentai--><rect fill="#FEFECE" filter="url(#f1cvjhqiu8u9uw)" height="42.8047" style="stroke: #A80036; stroke-width: 1.5;" width="160" x="2165" y="340.7969"/><rect fill="#FEFECE" height="10" style="stroke: #A80036; stroke-width: 1.5;" width="15" x="2305" y="345.7969"/><rect fill="#FEFECE" height="2" style="stroke: #A80036; stroke-width: 1.5;" width="4" x="2303" y="347.7969"/><rect fill="#FEFECE" height="2" style="stroke: #A80036; stroke-width: 1.5;" width="4" x="2303" y="351.7969"/><text fill="#000000" font-family="Segoe UI" font-size="11" lengthAdjust="spacingAndGlyphs" textLength="120" x="2180" y="371.0073">hentai_logic_gate.md</text><!--MD5=[745747813b93604b5844a981b093c890]
entity rule_audit--><rect fill="#FEFECE" filter="url(#f1cvjhqiu8u9uw)" height="42.8047" style="stroke: #A80036; stroke-width: 1.5;" width="224" x="2360" y="340.7969"/><rect fill="#FEFECE" height="10" style="stroke: #A80036; stroke-width: 1.5;" width="15" x="2564" y="345.7969"/><rect fill="#FEFECE" height="2" style="stroke: #A80036; stroke-width: 1.5;" width="4" x="2562" y="347.7969"/><rect fill="#FEFECE" height="2" style="stroke: #A80036; stroke-width: 1.5;" width="4" x="2562" y="351.7969"/><text fill="#000000" font-family="Segoe UI" font-size="11" lengthAdjust="spacingAndGlyphs" textLength="184" x="2375" y="371.0073">GOONER_AUDIT_FRAMEWORK.md</text><!--MD5=[37114d06f2948d47b22ac030c7a39a0c]
entity rule_more--><rect fill="#FEFECE" filter="url(#f1cvjhqiu8u9uw)" height="42.8047" style="stroke: #A80036; stroke-width: 1.5;" width="142" x="2619" y="340.7969"/><rect fill="#FEFECE" height="10" style="stroke: #A80036; stroke-width: 1.5;" width="15" x="2741" y="345.7969"/><rect fill="#FEFECE" height="2" style="stroke: #A80036; stroke-width: 1.5;" width="4" x="2739" y="347.7969"/><rect fill="#FEFECE" height="2" style="stroke: #A80036; stroke-width: 1.5;" width="4" x="2739" y="351.7969"/><text fill="#000000" font-family="Segoe UI" font-size="11" lengthAdjust="spacingAndGlyphs" textLength="102" x="2634" y="371.0073">+10 more rules...</text><!--MD5=[9d6526cc0718d9916c7020ff6cf26cb4]
entity ctx_files--><rect fill="#FEFECE" filter="url(#f1cvjhqiu8u9uw)" height="68.4141" style="stroke: #A80036; stroke-width: 1.5;" width="183" x="2796.5" y="328.2969"/><rect fill="#FEFECE" height="10" style="stroke: #A80036; stroke-width: 1.5;" width="15" x="2959.5" y="333.2969"/><rect fill="#FEFECE" height="2" style="stroke: #A80036; stroke-width: 1.5;" width="4" x="2957.5" y="335.2969"/><rect fill="#FEFECE" height="2" style="stroke: #A80036; stroke-width: 1.5;" width="4" x="2957.5" y="339.2969"/><text fill="#000000" font-family="Segoe UI" font-size="11" lengthAdjust="spacingAndGlyphs" textLength="89" x="2811.5" y="358.5073">00-anti-slop.md</text><text fill="#000000" font-family="Segoe UI" font-size="11" lengthAdjust="spacingAndGlyphs" textLength="143" x="2811.5" y="371.312">01-writing-mechanics.md</text><text fill="#000000" font-family="Segoe UI" font-size="11" lengthAdjust="spacingAndGlyphs" textLength="143" x="2811.5" y="384.1167">02..05 more context files</text><!--MD5=[7a199650d090603358194377cd2d7296]
entity bootstrap--><rect fill="#FEFECE" filter="url(#f1cvjhqiu8u9uw)" height="42.8047" style="stroke: #A80036; stroke-width: 1.5;" width="131" x="3928.5" y="340.7969"/><rect fill="#FEFECE" height="10" style="stroke: #A80036; stroke-width: 1.5;" width="15" x="4039.5" y="345.7969"/><rect fill="#FEFECE" height="2" style="stroke: #A80036; stroke-width: 1.5;" width="4" x="4037.5" y="347.7969"/><rect fill="#FEFECE" height="2" style="stroke: #A80036; stroke-width: 1.5;" width="4" x="4037.5" y="351.7969"/><text fill="#000000" font-family="Segoe UI" font-size="11" lengthAdjust="spacingAndGlyphs" textLength="91" x="3943.5" y="371.0073">BOOTSTRAP.md</text><!--MD5=[64585729eb7456575b04540496490647]
entity pipe_ctx--><rect fill="#FEFECE" filter="url(#f1cvjhqiu8u9uw)" height="42.8047" style="stroke: #A80036; stroke-width: 1.5;" width="151" x="4094.5" y="340.7969"/><rect fill="#FEFECE" height="10" style="stroke: #A80036; stroke-width: 1.5;" width="15" x="4225.5" y="345.7969"/><rect fill="#FEFECE" height="2" style="stroke: #A80036; stroke-width: 1.5;" width="4" x="4223.5" y="347.7969"/><rect fill="#FEFECE" height="2" style="stroke: #A80036; stroke-width: 1.5;" width="4" x="4223.5" y="351.7969"/><text fill="#000000" font-family="Segoe UI" font-size="11" lengthAdjust="spacingAndGlyphs" textLength="111" x="4109.5" y="371.0073">pipeline-context.md</text><!--MD5=[9fce8dba65a20ab7102553f0fde73cdb]
entity atmos--><rect fill="#FEFECE" filter="url(#f1cvjhqiu8u9uw)" height="42.8047" style="stroke: #A80036; stroke-width: 1.5;" width="179" x="3714.5" y="340.7969"/><rect fill="#FEFECE" height="10" style="stroke: #A80036; stroke-width: 1.5;" width="15" x="3873.5" y="345.7969"/><rect fill="#FEFECE" height="2" style="stroke: #A80036; stroke-width: 1.5;" width="4" x="3871.5" y="347.7969"/><rect fill="#FEFECE" height="2" style="stroke: #A80036; stroke-width: 1.5;" width="4" x="3871.5" y="351.7969"/><text fill="#000000" font-family="Segoe UI" font-size="11" lengthAdjust="spacingAndGlyphs" textLength="139" x="3729.5" y="371.0073">atmosphere_ledger.json</text><!--MD5=[8439769b591bdf31011de08e693f5115]
entity banned--><rect fill="#FEFECE" filter="url(#f1cvjhqiu8u9uw)" height="42.8047" style="stroke: #A80036; stroke-width: 1.5;" width="139" x="3924.5" y="499.2969"/><rect fill="#FEFECE" height="10" style="stroke: #A80036; stroke-width: 1.5;" width="15" x="4043.5" y="504.2969"/><rect fill="#FEFECE" height="2" style="stroke: #A80036; stroke-width: 1.5;" width="4" x="4041.5" y="506.2969"/><rect fill="#FEFECE" height="2" style="stroke: #A80036; stroke-width: 1.5;" width="4" x="4041.5" y="510.2969"/><text fill="#000000" font-family="Segoe UI" font-size="11" lengthAdjust="spacingAndGlyphs" textLength="99" x="3939.5" y="529.5073">banned-words.txt</text><!--MD5=[d7093cd976e63d3dea086204555f37dc]
entity pipe_ec--><rect fill="#FEFECE" filter="url(#f1cvjhqiu8u9uw)" height="42.8047" style="stroke: #A80036; stroke-width: 1.5;" width="133" x="4887.5" y="340.7969"/><rect fill="#FEFECE" height="10" style="stroke: #A80036; stroke-width: 1.5;" width="15" x="5000.5" y="345.7969"/><rect fill="#FEFECE" height="2" style="stroke: #A80036; stroke-width: 1.5;" width="4" x="4998.5" y="347.7969"/><rect fill="#FEFECE" height="2" style="stroke: #A80036; stroke-width: 1.5;" width="4" x="4998.5" y="351.7969"/><text fill="#000000" font-family="Segoe UI" font-size="11" lengthAdjust="spacingAndGlyphs" textLength="93" x="4902.5" y="371.0073">EC_manifest.md</text><!--MD5=[0d83b485098ef870af2fcadc4627027f]
entity pipe_rp--><rect fill="#FEFECE" filter="url(#f1cvjhqiu8u9uw)" height="42.8047" style="stroke: #A80036; stroke-width: 1.5;" width="132" x="4720" y="340.7969"/><rect fill="#FEFECE" height="10" style="stroke: #A80036; stroke-width: 1.5;" width="15" x="4832" y="345.7969"/><rect fill="#FEFECE" height="2" style="stroke: #A80036; stroke-width: 1.5;" width="4" x="4830" y="347.7969"/><rect fill="#FEFECE" height="2" style="stroke: #A80036; stroke-width: 1.5;" width="4" x="4830" y="351.7969"/><text fill="#000000" font-family="Segoe UI" font-size="11" lengthAdjust="spacingAndGlyphs" textLength="92" x="4735" y="371.0073">RP_manifest.md</text><!--MD5=[a3ba0cff56ec2bc98f281f08acf53ed2]
entity proto--><rect fill="#FEFECE" filter="url(#f1cvjhqiu8u9uw)" height="42.8047" style="stroke: #A80036; stroke-width: 1.5;" width="170" x="4494" y="340.7969"/><rect fill="#FEFECE" height="10" style="stroke: #A80036; stroke-width: 1.5;" width="15" x="4644" y="345.7969"/><rect fill="#FEFECE" height="2" style="stroke: #A80036; stroke-width: 1.5;" width="4" x="4642" y="347.7969"/><rect fill="#FEFECE" height="2" style="stroke: #A80036; stroke-width: 1.5;" width="4" x="4642" y="351.7969"/><text fill="#000000" font-family="Segoe UI" font-size="11" lengthAdjust="spacingAndGlyphs" textLength="130" x="4509" y="371.0073">one-shot-response.md</text><!--MD5=[7970cc3e182de1d8242763a2031d324b]
entity tpls--><rect fill="#FEFECE" filter="url(#f1cvjhqiu8u9uw)" height="55.6094" style="stroke: #A80036; stroke-width: 1.5;" width="157" x="4280.5" y="334.2969"/><rect fill="#FEFECE" height="10" style="stroke: #A80036; stroke-width: 1.5;" width="15" x="4417.5" y="339.2969"/><rect fill="#FEFECE" height="2" style="stroke: #A80036; stroke-width: 1.5;" width="4" x="4415.5" y="341.2969"/><rect fill="#FEFECE" height="2" style="stroke: #A80036; stroke-width: 1.5;" width="4" x="4415.5" y="345.2969"/><text fill="#000000" font-family="Segoe UI" font-size="11" lengthAdjust="spacingAndGlyphs" textLength="117" x="4295.5" y="364.5073">light-novel-prose.md</text><text fill="#000000" font-family="Segoe UI" font-size="11" lengthAdjust="spacingAndGlyphs" textLength="76" x="4295.5" y="377.312">ST templates</text><!--MD5=[957ec5d2cd5ce830d53455093bad21ee]
entity json_sch--><rect fill="#FEFECE" filter="url(#f1cvjhqiu8u9uw)" height="55.6094" style="stroke: #A80036; stroke-width: 1.5;" width="191" x="4129.5" y="116.2969"/><rect fill="#FEFECE" height="10" style="stroke: #A80036; stroke-width: 1.5;" width="15" x="4300.5" y="121.2969"/><rect fill="#FEFECE" height="2" style="stroke: #A80036; stroke-width: 1.5;" width="4" x="4298.5" y="123.2969"/><rect fill="#FEFECE" height="2" style="stroke: #A80036; stroke-width: 1.5;" width="4" x="4298.5" y="127.2969"/><text fill="#000000" font-family="Segoe UI" font-size="11" lengthAdjust="spacingAndGlyphs" textLength="84" x="4144.5" y="146.5073">8 schema files</text><text fill="#000000" font-family="Segoe UI" font-size="11" lengthAdjust="spacingAndGlyphs" textLength="151" x="4144.5" y="159.312">(forensic, prose, audit, ...)</text><!--MD5=[e151f256c690d997fe0e40cd27dedeaf]
entity py_sch--><rect fill="#FEFECE" filter="url(#f1cvjhqiu8u9uw)" height="68.4141" style="stroke: #A80036; stroke-width: 1.5;" width="126" x="3947" y="110.2969"/><rect fill="#FEFECE" height="10" style="stroke: #A80036; stroke-width: 1.5;" width="15" x="4053" y="115.2969"/><rect fill="#FEFECE" height="2" style="stroke: #A80036; stroke-width: 1.5;" width="4" x="4051" y="117.2969"/><rect fill="#FEFECE" height="2" style="stroke: #A80036; stroke-width: 1.5;" width="4" x="4051" y="121.2969"/><text fill="#000000" font-family="Segoe UI" font-size="11" lengthAdjust="spacingAndGlyphs" textLength="86" x="3962" y="140.5073">ForensicOutput</text><text fill="#000000" font-family="Segoe UI" font-size="11" lengthAdjust="spacingAndGlyphs" textLength="81" x="3962" y="153.312">PreludeOutput</text><text fill="#000000" font-family="Segoe UI" font-size="11" lengthAdjust="spacingAndGlyphs" textLength="81" x="3962" y="166.1167">CaptionOutput</text><path d="M3200.5,318.7969 L3200.5,405.625 L3407.5,405.625 L3407.5,328.7969 L3397.5,318.7969 L3200.5,318.7969 " fill="#FBFB77" filter="url(#f1cvjhqiu8u9uw)" style="stroke: #A80036; stroke-width: 1.0;"/><path d="M3397.5,318.7969 L3397.5,328.7969 L3407.5,328.7969 L3397.5,318.7969 " fill="#FBFB77" style="stroke: #A80036; stroke-width: 1.0;"/><text fill="#000000" font-family="Segoe UI" font-size="11" font-weight="bold" lengthAdjust="spacingAndGlyphs" textLength="144" x="3206.5" y="334.0073">Hierarchy of Authority:</text><text fill="#000000" font-family="Segoe UI" font-size="11" lengthAdjust="spacingAndGlyphs" textLength="186" x="3206.5" y="346.812">1. context_payload.md (Runtime)</text><text fill="#000000" font-family="Segoe UI" font-size="11" lengthAdjust="spacingAndGlyphs" textLength="186" x="3206.5" y="359.6167">2. canon-preamble.md (This file)</text><text fill="#000000" font-family="Segoe UI" font-size="11" lengthAdjust="spacingAndGlyphs" textLength="172" x="3206.5" y="372.4214">3. studio/rules/*.md (Modular)</text><text fill="#000000" font-family="Segoe UI" font-size="11" lengthAdjust="spacingAndGlyphs" textLength="168" x="3206.5" y="385.2261">4. Agent YAML critical_actions</text><text fill="#000000" font-family="Segoe UI" font-size="11" lengthAdjust="spacingAndGlyphs" textLength="149" x="3206.5" y="398.0308">5. General LLM knowledge</text><path d="M3442.5,338.2969 L3442.5,386.7109 L3679.5,386.7109 L3679.5,348.2969 L3669.5,338.2969 L3442.5,338.2969 " fill="#FBFB77" filter="url(#f1cvjhqiu8u9uw)" style="stroke: #A80036; stroke-width: 1.0;"/><path d="M3669.5,338.2969 L3669.5,348.2969 L3679.5,348.2969 L3669.5,338.2969 " fill="#FBFB77" style="stroke: #A80036; stroke-width: 1.0;"/><text fill="#000000" font-family="Segoe UI" font-size="11" lengthAdjust="spacingAndGlyphs" textLength="216" x="3448.5" y="353.5073">Consumers: ALL agents + developers</text><text fill="#000000" font-family="Segoe UI" font-size="11" lengthAdjust="spacingAndGlyphs" textLength="171" x="3448.5" y="366.312">Developer roles symlink here,</text><text fill="#000000" font-family="Segoe UI" font-size="11" lengthAdjust="spacingAndGlyphs" textLength="106" x="3448.5" y="379.1167">not embed copies.</text><!--MD5=[68d63360c9f1dfd317a194eb4b823d71]
link canon to canon_rules--><path d="M3058.91,172.6569 C3063.39,214.6769 3071.89,294.5369 3076.26,335.5669 " fill="none" id="canon-&gt;canon_rules" style="stroke: #555555; stroke-width: 1.0;"/><polygon fill="#555555" points="3076.8,340.6069,3079.826,331.2344,3076.2714,335.6349,3071.8709,332.0802,3076.8,340.6069" style="stroke: #555555; stroke-width: 1.0;"/><text fill="#000000" font-family="Segoe UI" font-size="11" lengthAdjust="spacingAndGlyphs" textLength="42" x="3067" y="245.5073">derives</text><!--MD5=[f8c187a3ecbb3857343dff92eb0856c9]
link canon to ctx_files--><path d="M3034.72,172.6569 C3004.87,211.0369 2950.47,280.9869 2916.95,324.0769 " fill="none" id="canon-&gt;ctx_files" style="stroke: #555555; stroke-width: 1.0;"/><polygon fill="#555555" points="2913.77,328.1569,2922.4482,323.4998,2916.8358,324.207,2916.1285,318.5946,2913.77,328.1569" style="stroke: #555555; stroke-width: 1.0;"/><text fill="#000000" font-family="Segoe UI" font-size="11" lengthAdjust="spacingAndGlyphs" textLength="62" x="2983" y="245.5073">injects into</text><!--MD5=[f8e7d64a9e4643c6e88e75f68f49a191]
link canon to atmos--><path d="M3074.54,172.3369 C3089.11,191.1269 3111.21,214.7969 3137,226.2969 C3165.45,238.9869 3668.49,243.7469 3697,256.2969 C3735.73,273.3469 3768.43,311.0969 3787.13,336.3769 " fill="none" id="canon-&gt;atmos" style="stroke: #555555; stroke-width: 1.0;"/><polygon fill="#555555" points="3790.23,340.6269,3788.1674,330.9964,3787.2874,336.5844,3781.6994,335.7045,3790.23,340.6269" style="stroke: #555555; stroke-width: 1.0;"/><text fill="#000000" font-family="Segoe UI" font-size="11" lengthAdjust="spacingAndGlyphs" textLength="107" x="3596" y="245.5073">defines thresholds</text><!--MD5=[f488493114cbb74c5211d3ee873c61c0]
link idx to p_arousal--><path d="M1065.15,148.0869 C868.76,155.8669 380.68,182.2869 237,256.2969 C201.65,274.5069 172.8,311.3369 156.25,336.1669 " fill="none" id="idx-&gt;p_arousal" style="stroke: #555555; stroke-width: 1.0;"/><polygon fill="#555555" points="153.3,340.6569,161.5785,335.3215,156.0405,336.4748,154.8872,330.9368,153.3,340.6569" style="stroke: #555555; stroke-width: 1.0;"/><!--MD5=[e68024ab91429170c610b49404db0a03]
link idx to fdb--><path d="M1129.88,166.0069 C1096.51,204.1369 1025.21,285.6269 986.09,330.3469 " fill="none" id="idx-&gt;fdb" style="stroke: #555555; stroke-width: 1.0;"/><polygon fill="#555555" points="982.63,334.2869,991.5657,330.1453,985.9215,330.5231,985.5437,324.8789,982.63,334.2869" style="stroke: #555555; stroke-width: 1.0;"/><!--MD5=[523c1680430c56f0a5b57e1edc4ef4a6]
link idx to gloss--><path d="M1148,166.0069 C1148,205.6769 1148,292.2969 1148,335.5869 " fill="none" id="idx-&gt;gloss" style="stroke: #555555; stroke-width: 1.0;"/><polygon fill="#555555" points="1148,340.6469,1152,331.6469,1148,335.6469,1144,331.6469,1148,340.6469" style="stroke: #555555; stroke-width: 1.0;"/><!--MD5=[0fbd9e9e7fbdc749d4c6ab6746849064]
link idx to sfx_dict--><path d="M1185.78,165.8769 C1222.69,184.9469 1281.03,212.4069 1335,226.2969 C1471.2,261.3469 1522.77,196.3769 1650,256.2969 C1687.7,274.0569 1719.65,311.2469 1738.09,336.2569 " fill="none" id="idx-&gt;sfx_dict" style="stroke: #555555; stroke-width: 1.0;"/><polygon fill="#555555" points="1741.15,340.4669,1739.1035,330.833,1738.2142,336.4195,1732.6277,335.5302,1741.15,340.4669" style="stroke: #555555; stroke-width: 1.0;"/><!--MD5=[5472b8773278a2c615e90d14ed9f8421]
link idx to beats--><path d="M1184.59,165.9269 C1221.32,185.4669 1280.19,213.6569 1335,226.2969 C1373.8,235.2469 1474.24,232.1369 1514,234.2969 C1590.71,238.4569 1787.69,227.7169 1859,256.2969 C1898.46,272.1069 1934.58,305.4369 1957.74,330.3169 " fill="none" id="idx-&gt;beats" style="stroke: #555555; stroke-width: 1.0;"/><polygon fill="#555555" points="1961.34,334.2369,1958.1973,324.9029,1957.9575,330.5547,1952.3057,330.3149,1961.34,334.2369" style="stroke: #555555; stroke-width: 1.0;"/><!--MD5=[e10c673db8e6592b5f96bbfcc94b638f]
link canon to GMN63--><path d="M3081.94,172.6569 C3097.51,188.7069 3117.93,209.1369 3137,226.2969 C3172.89,258.5869 3215.21,292.7569 3248.26,318.6369 " fill="none" id="canon-GMN63" style="stroke: #555555; stroke-width: 1.0; stroke-dasharray: 7.0,7.0;"/><!--MD5=[ec98e722e0034a0b75ba1d6d3c4ad349]
link RULES to GMN66--><path d="M3176.0018,144.888 C3176.1801,144.8808 3176.3612,144.8736 3176.545,144.8664 C3176.9127,144.8519 3177.2915,144.8374 3177.6812,144.823 C3178.4606,144.7942 3179.2837,144.7656 3180.1494,144.7376 C3187.0748,144.5141 3196.7214,144.3355 3208.4666,144.4572 C3231.9569,144.7006 3263.8413,146.1456 3299.1375,150.8369 C3369.73,160.2194 3453.97,182.5869 3512,234.2969 C3542.35,261.3369 3554.04,309.3769 3558.44,337.9869 " fill="none" id="RULES-GMN66" style="stroke: #555555; stroke-width: 1.0; stroke-dasharray: 7.0,7.0;"/><!--MD5=[596d3365f8d7ecbcba99cc237b5a80d4]
link p_narrative to p_psych--><!--MD5=[b504d698837add2c5e1988f84f9eec49]
link p_psych to p_sensory--><!--MD5=[377e08ff986b11c5734289ff2177717f]
link p_narrative to p_rp--><!--MD5=[48734a1efcf25857c3df3f11c4df77cd]
link p_rp to p_fetish--><!--MD5=[f43bd1ba93f0a1415271045b903c70ff]
link rule_gooner to rule_slop--><!--MD5=[1feb4e238059f7d29b82d82d2722d637]
link rule_slop to rule_sensory--><!--MD5=[e4b8cabca2d7887a6c7175639cb4665a]
link rule_gooner to rule_hentai--><!--MD5=[941907ceb79bb062f1cf20704218097e]
link rule_hentai to rule_audit--><!--MD5=[f4b421e6bd2e92e80203f1873c0670f0]
link rule_audit to rule_more--><!--MD5=[0a1bf79d398777cb88cae9b2562bfded]
link bootstrap to pipe_ctx--><!--MD5=[dfeb4b8fa8401ff37a9cf37444885191]
link bootstrap to banned--><!--MD5=[3066b36769bab0e20da38d7332e38f44]
@startuml LND_Studio_Knowledge_Rules
title Knowledge Base & Rules Foundation

skinparam {
  ComponentStyle uml2
  PackageStyle frame
  ArrowColor #555555
  defaultFontName "Segoe UI"
  defaultFontSize 11
  TitleFontSize 14
}

package "Knowledge Base (studio/knowledge/)" as KB #FFF9C4 {
  component [knowledge-index.yaml] as idx

  package "packs/" {
    component [arousal_architecture] as p_arousal
    component [narrative_style_pack] as p_narrative
    component [japanese_reader_psychology] as p_psych
    component [r18_sensory_pack] as p_sensory
    component [roleplay_st_pack] as p_rp
    component [fetish_guidance_pack] as p_fetish
  }

  package "fetish-db/" {
    component [anal / mindbreak /\nntr / creampie / ...] as fdb
  }

  package "glossaries/" {
    component [hentai_lexicon] as gloss
  }

  package "sfx/" {
    component [japanese_sfx_dictionary] as sfx_dict
    component [moaning_sfx_research] as sfx_moan
    component [r18_sfx_quickref.yaml] as sfx_ref
  }

  package "style-guides/" {
    component [MESUGAKI_DIALOGUE_STYLE] as sg_mesu
    component [R18_LIGHTNOVEL_CULTURE] as sg_culture
  }

  package "trope_beat_sheets/" {
    component [corruption / mindbreak\n/ ... beats] as beats
  }

  package "characters/" {
    component [Character Profiles] as chars
  }
}

package "Rules (studio/rules/) — SINGLE SOURCE OF TRUTH" as RULES #F5F5F5 {
  component [canon-preamble.md\n(ABSOLUTE TRUTH)] as canon #FFE0B2
  component [canon-rules.md] as canon_rules
  component [gooner_principles.md] as rule_gooner
  component [anti_slop.md] as rule_slop
  component [sensory_density.md] as rule_sensory
  component [hentai_logic_gate.md] as rule_hentai
  component [GOONER_AUDIT_FRAMEWORK.md] as rule_audit
  component [+10 more rules...] as rule_more

  package "mandatory/" {
    component [00-anti-slop.md\n01-writing-mechanics.md\n02..05 more context files] as ctx_files
  }
}

package "Config (studio/config/)" as CONFIG #F5F5F5 {
  component [BOOTSTRAP.md] as bootstrap
  component [pipeline-context.md] as pipe_ctx
  component [atmosphere_ledger.json] as atmos
  component [banned-words.txt] as banned

  package "pipelines/" {
    component [EC_manifest.md] as pipe_ec
    component [RP_manifest.md] as pipe_rp
  }

  package "protocols/" {
    component [one-shot-response.md] as proto
  }

  package "templates/" {
    component [light-novel-prose.md\nST templates] as tpls
  }
}

package "Infrastructure (studio/schemas/)" as INFRA #EFEBE9 {
  package "JSON Schemas" {
    component [8 schema files\n(forensic, prose, audit, ...)] as json_sch
  }

  package "pydantic/" {
    component [ForensicOutput\nPreludeOutput\nCaptionOutput] as py_sch
  }
}

canon - -> canon_rules : derives
canon - -> ctx_files : injects into
canon - -> atmos : defines thresholds

idx - -> p_arousal
idx - -> fdb
idx - -> gloss
idx - -> sfx_dict
idx - -> beats

note bottom of canon
  **Hierarchy of Authority:**
  1. context_payload.md (Runtime)
  2. canon-preamble.md (This file)
  3. studio/rules/*.md (Modular)
  4. Agent YAML critical_actions
  5. General LLM knowledge
end note

note bottom of RULES
  Consumers: ALL agents + developers
  Developer roles symlink here,
  not embed copies.
end note

@enduml

PlantUML version 1.2020.02(Sun Mar 01 17:22:07 ICT 2020)
(GPL source distribution)
Java Runtime: OpenJDK Runtime Environment
JVM: OpenJDK 64-Bit Server VM
Java Version: 21.0.10+7-Ubuntu-124.04
Operating System: Linux
Default Encoding: UTF-8
Language: en
Country: US
--></g></svg>