<?xml version="1.0" encoding="UTF-8" standalone="no"?><svg xmlns="http://www.w3.org/2000/svg" xmlns:xlink="http://www.w3.org/1999/xlink" contentScriptType="application/ecmascript" contentStyleType="text/css" height="1554px" preserveAspectRatio="none" style="width:1114px;height:1554px;" version="1.1" viewBox="0 0 1114 1554" width="1114px" zoomAndPan="magnify"><defs><filter height="300%" id="fylknlaypctmj" width="300%" x="-1" y="-1"><feGaussianBlur result="blurOut" stdDeviation="2.0"/><feColorMatrix in="blurOut" result="blurOut2" type="matrix" values="0 0 0 0 0 0 0 0 0 0 0 0 0 0 0 0 0 0 .4 0"/><feOffset dx="4.0" dy="4.0" in="blurOut2" result="blurOut3"/><feBlend in="SourceGraphic" in2="blurOut3" mode="normal"/></filter></defs><g><text fill="#000000" font-family="Segoe UI" font-size="14" lengthAdjust="spacingAndGlyphs" textLength="194" x="459.25" y="22.9951">Pipeline Flows — EC, MA, RP</text><ellipse cx="131" cy="55.1958" fill="#000000" filter="url(#fylknlaypctmj)" rx="10" ry="10" style="stroke: none; stroke-width: 1.0;"/><rect fill="#FAFAFA" filter="url(#fylknlaypctmj)" height="32.8047" rx="12.5" ry="12.5" style="stroke: #333333; stroke-width: 1.5;" width="222" x="20" y="85.1958"/><text fill="#000000" font-family="Segoe UI" font-size="11" lengthAdjust="spacingAndGlyphs" textLength="202" x="30" y="105.4063">User provides image + mood_seed</text><path d="M246,155.8052 L246,176.0122 L226,180.0122 L246,184.0122 L246,204.2192 A0,0 0 0 0 246,204.2192 L448,204.2192 A0,0 0 0 0 448,204.2192 L448,165.8052 L438,155.8052 L246,155.8052 A0,0 0 0 0 246,155.8052 " fill="#FBFB77" filter="url(#fylknlaypctmj)" style="stroke: #A80036; stroke-width: 1.0;"/><path d="M438,155.8052 L438,165.8052 L448,165.8052 L438,155.8052 " fill="#FBFB77" style="stroke: #A80036; stroke-width: 1.0;"/><text fill="#000000" font-family="Segoe UI" font-size="11" lengthAdjust="spacingAndGlyphs" textLength="155" x="252" y="171.0156">Output: forensic inline data</text><text fill="#000000" font-family="Segoe UI" font-size="11" lengthAdjust="spacingAndGlyphs" textLength="181" x="252" y="183.8203">Pass: fetish_tags, gut_reaction,</text><text fill="#000000" font-family="Segoe UI" font-size="11" lengthAdjust="spacingAndGlyphs" textLength="133" x="252" y="196.625">explicit_acts, archetype</text><rect fill="#FAFAFA" filter="url(#fylknlaypctmj)" height="84.0234" rx="12.5" ry="12.5" style="stroke: #333333; stroke-width: 1.5;" width="190" x="36" y="138.0005"/><text fill="#000000" font-family="Segoe UI" font-size="11" lengthAdjust="spacingAndGlyphs" textLength="11" x="46" y="158.2109">&#128444;️</text><text fill="#000000" font-family="Segoe UI" font-size="11" font-weight="bold" lengthAdjust="spacingAndGlyphs" textLength="33" x="61" y="158.2109">Kana</text><text fill="#000000" font-family="Segoe UI" font-size="11" lengthAdjust="spacingAndGlyphs" textLength="114" x="98" y="158.2109">— Forensic Analysis</text><text fill="#000000" font-family="Segoe UI" font-size="11" lengthAdjust="spacingAndGlyphs" textLength="16" x="54" y="171.0156">----</text><text fill="#000000" font-family="Segoe UI" font-size="11" lengthAdjust="spacingAndGlyphs" textLength="150" x="54" y="183.8203">OCR, character anchoring,</text><text fill="#000000" font-family="Segoe UI" font-size="11" lengthAdjust="spacingAndGlyphs" textLength="162" x="54" y="196.625">explicit elements, heat map,</text><text fill="#000000" font-family="Segoe UI" font-size="11" lengthAdjust="spacingAndGlyphs" textLength="147" x="54" y="209.4297">gut reaction, fetish vector</text><path d="M239.5,259.8286 L239.5,286.438 L219.5,290.438 L239.5,294.438 L239.5,321.0474 A0,0 0 0 0 239.5,321.0474 L420.5,321.0474 A0,0 0 0 0 420.5,321.0474 L420.5,269.8286 L410.5,259.8286 L239.5,259.8286 A0,0 0 0 0 239.5,259.8286 " fill="#FBFB77" filter="url(#fylknlaypctmj)" style="stroke: #A80036; stroke-width: 1.0;"/><path d="M410.5,259.8286 L410.5,269.8286 L420.5,269.8286 L410.5,259.8286 " fill="#FBFB77" style="stroke: #A80036; stroke-width: 1.0;"/><text fill="#000000" font-family="Segoe UI" font-size="11" lengthAdjust="spacingAndGlyphs" textLength="152" x="245.5" y="275.0391">Output: prelude inline data</text><text fill="#000000" font-family="Segoe UI" font-size="11" lengthAdjust="spacingAndGlyphs" textLength="113" x="245.5" y="287.8438">Pass: setting_seed,</text><text fill="#000000" font-family="Segoe UI" font-size="11" lengthAdjust="spacingAndGlyphs" textLength="160" x="245.5" y="300.6484">power_dynamic, kink_name,</text><text fill="#000000" font-family="Segoe UI" font-size="11" lengthAdjust="spacingAndGlyphs" textLength="98" x="245.5" y="313.4531">sensory_anchors</text><rect fill="#FAFAFA" filter="url(#fylknlaypctmj)" height="96.8281" rx="12.5" ry="12.5" style="stroke: #333333; stroke-width: 1.5;" width="177" x="42.5" y="242.0239"/><text fill="#000000" font-family="Segoe UI" font-size="11" lengthAdjust="spacingAndGlyphs" textLength="11" x="52.5" y="262.2344">&#127757;</text><text fill="#000000" font-family="Segoe UI" font-size="11" font-weight="bold" lengthAdjust="spacingAndGlyphs" textLength="31" x="67.5" y="262.2344">Luna</text><text fill="#000000" font-family="Segoe UI" font-size="11" lengthAdjust="spacingAndGlyphs" textLength="97" x="102.5" y="262.2344">— Scene Prelude</text><text fill="#000000" font-family="Segoe UI" font-size="11" lengthAdjust="spacingAndGlyphs" textLength="16" x="60.5" y="275.0391">----</text><text fill="#000000" font-family="Segoe UI" font-size="11" lengthAdjust="spacingAndGlyphs" textLength="98" x="60.5" y="287.8438">Setting blueprint,</text><text fill="#000000" font-family="Segoe UI" font-size="11" lengthAdjust="spacingAndGlyphs" textLength="123" x="60.5" y="300.6484">relationship topology,</text><text fill="#000000" font-family="Segoe UI" font-size="11" lengthAdjust="spacingAndGlyphs" textLength="149" x="60.5" y="313.4531">"The Why", escalation arc,</text><text fill="#000000" font-family="Segoe UI" font-size="11" lengthAdjust="spacingAndGlyphs" textLength="96" x="60.5" y="326.2578">sensory anchors</text><rect fill="#FAFAFA" filter="url(#fylknlaypctmj)" height="84.0234" rx="12.5" ry="12.5" style="stroke: #333333; stroke-width: 1.5;" width="214" x="24" y="358.8521"/><text fill="#000000" font-family="Segoe UI" font-size="11" lengthAdjust="spacingAndGlyphs" textLength="11" x="34" y="379.0625">&#128395;️</text><text fill="#000000" font-family="Segoe UI" font-size="11" font-weight="bold" lengthAdjust="spacingAndGlyphs" textLength="27" x="49" y="379.0625">Suki</text><text fill="#000000" font-family="Segoe UI" font-size="11" lengthAdjust="spacingAndGlyphs" textLength="95" x="80" y="379.0625">— Caption Writer</text><text fill="#000000" font-family="Segoe UI" font-size="11" lengthAdjust="spacingAndGlyphs" textLength="16" x="42" y="391.8672">----</text><text fill="#000000" font-family="Segoe UI" font-size="11" lengthAdjust="spacingAndGlyphs" textLength="186" x="42" y="404.6719">150-300 word Vietnamese prose</text><text fill="#000000" font-family="Segoe UI" font-size="11" lengthAdjust="spacingAndGlyphs" textLength="151" x="42" y="417.4766">Mandatory COT think block</text><text fill="#000000" font-family="Segoe UI" font-size="11" lengthAdjust="spacingAndGlyphs" textLength="161" x="42" y="430.2813">3 sensory anchors woven in</text><rect fill="#FAFAFA" filter="url(#fylknlaypctmj)" height="32.8047" rx="12.5" ry="12.5" style="stroke: #333333; stroke-width: 1.5;" width="121" x="70.5" y="462.8755"/><text fill="#000000" font-family="Segoe UI" font-size="11" lengthAdjust="spacingAndGlyphs" textLength="101" x="80.5" y="483.0859">Write caption.json</text><ellipse cx="131" cy="526.6802" fill="#FFFFFF" filter="url(#fylknlaypctmj)" rx="11" ry="11" style="stroke: #000000; stroke-width: 1.0;"/><ellipse cx="131" cy="526.6802" fill="#000000" rx="6" ry="6" style="stroke: #7F7F7F; stroke-width: 1.0;"/><ellipse cx="607.75" cy="557.6802" fill="#000000" filter="url(#fylknlaypctmj)" rx="10" ry="10" style="stroke: none; stroke-width: 1.0;"/><rect fill="#FAFAFA" filter="url(#fylknlaypctmj)" height="32.8047" rx="12.5" ry="12.5" style="stroke: #333333; stroke-width: 1.5;" width="131" x="542.25" y="587.6802"/><text fill="#000000" font-family="Segoe UI" font-size="11" lengthAdjust="spacingAndGlyphs" textLength="111" x="552.25" y="607.8906">Raw Manga Page(s)</text><rect fill="#FAFAFA" filter="url(#fylknlaypctmj)" height="45.6094" rx="12.5" ry="12.5" style="stroke: #333333; stroke-width: 1.5;" width="170" x="522.75" y="640.4849"/><text fill="#000000" font-family="Segoe UI" font-size="11" lengthAdjust="spacingAndGlyphs" textLength="11" x="532.75" y="660.6953">&#128444;️</text><text fill="#000000" font-family="Segoe UI" font-size="11" font-weight="bold" lengthAdjust="spacingAndGlyphs" textLength="33" x="547.75" y="660.6953">Kana</text><text fill="#000000" font-family="Segoe UI" font-size="11" lengthAdjust="spacingAndGlyphs" textLength="98" x="584.75" y="660.6953">— Panel Forensic</text><text fill="#000000" font-family="Segoe UI" font-size="11" lengthAdjust="spacingAndGlyphs" textLength="120" x="540.75" y="673.5">→ forensic-state.json</text><rect fill="#FAFAFA" filter="url(#fylknlaypctmj)" height="32.8047" rx="12.5" ry="12.5" style="stroke: #333333; stroke-width: 1.5;" width="205" x="505.25" y="706.0942"/><text fill="#000000" font-family="Segoe UI" font-size="11" lengthAdjust="spacingAndGlyphs" textLength="11" x="515.25" y="726.3047">&#128444;️</text><text fill="#000000" font-family="Segoe UI" font-size="11" font-weight="bold" lengthAdjust="spacingAndGlyphs" textLength="33" x="530.25" y="726.3047">Kana</text><text fill="#000000" font-family="Segoe UI" font-size="11" lengthAdjust="spacingAndGlyphs" textLength="133" x="567.25" y="726.3047">— POC Context Vectors</text><rect fill="#FAFAFA" filter="url(#fylknlaypctmj)" height="45.6094" rx="12.5" ry="12.5" style="stroke: #333333; stroke-width: 1.5;" width="179" x="518.25" y="758.8989"/><text fill="#000000" font-family="Segoe UI" font-size="11" lengthAdjust="spacingAndGlyphs" textLength="11" x="528.25" y="779.1094">&#128100;</text><text fill="#000000" font-family="Segoe UI" font-size="11" font-weight="bold" lengthAdjust="spacingAndGlyphs" textLength="25" x="543.25" y="779.1094">Aria</text><text fill="#000000" font-family="Segoe UI" font-size="11" lengthAdjust="spacingAndGlyphs" textLength="115" x="572.25" y="779.1094">— Character Builder</text><text fill="#000000" font-family="Segoe UI" font-size="11" lengthAdjust="spacingAndGlyphs" textLength="126" x="536.25" y="791.9141">→ character-bible.json</text><rect fill="#FAFAFA" filter="url(#fylknlaypctmj)" height="45.6094" rx="12.5" ry="12.5" style="stroke: #333333; stroke-width: 1.5;" width="206" x="504.75" y="824.5083"/><text fill="#000000" font-family="Segoe UI" font-size="11" lengthAdjust="spacingAndGlyphs" textLength="11" x="514.75" y="844.7188">&#128395;️</text><text fill="#000000" font-family="Segoe UI" font-size="11" font-weight="bold" lengthAdjust="spacingAndGlyphs" textLength="27" x="529.75" y="844.7188">Suki</text><text fill="#000000" font-family="Segoe UI" font-size="11" lengthAdjust="spacingAndGlyphs" textLength="140" x="560.75" y="844.7188">— R18 Prose Generation</text><text fill="#000000" font-family="Segoe UI" font-size="11" lengthAdjust="spacingAndGlyphs" textLength="105" x="522.75" y="857.5234">→ draft-prose.json</text><rect fill="#FAFAFA" filter="url(#fylknlaypctmj)" height="45.6094" rx="12.5" ry="12.5" style="stroke: #333333; stroke-width: 1.5;" width="200" x="507.75" y="890.1177"/><text fill="#000000" font-family="Segoe UI" font-size="11" lengthAdjust="spacingAndGlyphs" textLength="11" x="517.75" y="910.3281">&#128737;️</text><text fill="#000000" font-family="Segoe UI" font-size="11" font-weight="bold" lengthAdjust="spacingAndGlyphs" textLength="27" x="532.75" y="910.3281">Riko</text><text fill="#000000" font-family="Segoe UI" font-size="11" lengthAdjust="spacingAndGlyphs" textLength="134" x="563.75" y="910.3281">— Quality Audit (100-pt)</text><text fill="#000000" font-family="Segoe UI" font-size="11" lengthAdjust="spacingAndGlyphs" textLength="108" x="525.75" y="923.1328">→ audit-report.json</text><polygon fill="#FEFECE" filter="url(#fylknlaypctmj)" points="572.75,955.7271,642.75,955.7271,654.75,967.7271,642.75,979.7271,572.75,979.7271,560.75,967.7271,572.75,955.7271" style="stroke: #A80036; stroke-width: 1.5;"/><text fill="#000000" font-family="Segoe UI" font-size="11" lengthAdjust="spacingAndGlyphs" textLength="70" x="572.75" y="971.5352">Score ≥ 85?</text><text fill="#000000" font-family="Segoe UI" font-size="11" lengthAdjust="spacingAndGlyphs" textLength="30" x="530.75" y="965.1328">PASS</text><text fill="#000000" font-family="Segoe UI" font-size="11" lengthAdjust="spacingAndGlyphs" textLength="22" x="654.75" y="965.1328">FAIL</text><rect fill="#FAFAFA" filter="url(#fylknlaypctmj)" height="32.8047" rx="12.5" ry="12.5" style="stroke: #333333; stroke-width: 1.5;" width="88" x="458" y="989.7271"/><text fill="#000000" font-family="Segoe UI" font-size="11" lengthAdjust="spacingAndGlyphs" textLength="68" x="468" y="1009.9375">Final Output</text><ellipse cx="502" cy="1068.5317" fill="#FFFFFF" filter="url(#fylknlaypctmj)" rx="11" ry="11" style="stroke: #000000; stroke-width: 1.0;"/><ellipse cx="502" cy="1068.5317" fill="#000000" rx="6" ry="6" style="stroke: #7F7F7F; stroke-width: 1.0;"/><polygon fill="#FEFECE" filter="url(#fylknlaypctmj)" points="655,989.7271,772,989.7271,784,1001.7271,772,1013.7271,655,1013.7271,643,1001.7271,655,989.7271" style="stroke: #A80036; stroke-width: 1.5;"/><text fill="#000000" font-family="Segoe UI" font-size="11" lengthAdjust="spacingAndGlyphs" textLength="117" x="655" y="1005.5352">3rd consecutive fail?</text><text fill="#000000" font-family="Segoe UI" font-size="11" lengthAdjust="spacingAndGlyphs" textLength="20" x="623" y="999.1328">yes</text><text fill="#000000" font-family="Segoe UI" font-size="11" lengthAdjust="spacingAndGlyphs" textLength="14" x="784" y="999.1328">no</text><rect fill="#FAFAFA" filter="url(#fylknlaypctmj)" height="45.6094" rx="12.5" ry="12.5" style="stroke: #333333; stroke-width: 1.5;" width="114" x="576" y="1023.7271"/><text fill="#000000" font-family="Segoe UI" font-size="11" lengthAdjust="spacingAndGlyphs" textLength="94" x="586" y="1043.9375">⚠️ HALT PIPELINE</text><text fill="#000000" font-family="Segoe UI" font-size="11" lengthAdjust="spacingAndGlyphs" textLength="85" x="586" y="1056.7422">Circuit Breaker</text><ellipse cx="633" cy="1110.5317" fill="#FFFFFF" filter="url(#fylknlaypctmj)" rx="11" ry="11" style="stroke: #000000; stroke-width: 1.0;"/><ellipse cx="633" cy="1110.5317" fill="#000000" rx="6" ry="6" style="stroke: #7F7F7F; stroke-width: 1.0;"/><rect fill="#FAFAFA" filter="url(#fylknlaypctmj)" height="32.8047" rx="12.5" ry="12.5" style="stroke: #333333; stroke-width: 1.5;" width="131" x="728.5" y="1023.7271"/><text fill="#000000" font-family="Segoe UI" font-size="11" lengthAdjust="spacingAndGlyphs" textLength="111" x="738.5" y="1043.9375">Rewrite loop → Suki</text><ellipse cx="981.5" cy="1151.5317" fill="#000000" filter="url(#fylknlaypctmj)" rx="10" ry="10" style="stroke: none; stroke-width: 1.0;"/><rect fill="#FAFAFA" filter="url(#fylknlaypctmj)" height="32.8047" rx="12.5" ry="12.5" style="stroke: #333333; stroke-width: 1.5;" width="175" x="894" y="1181.5317"/><text fill="#000000" font-family="Segoe UI" font-size="11" lengthAdjust="spacingAndGlyphs" textLength="155" x="904" y="1201.7422">User Turn (action/dialogue)</text><rect fill="#FAFAFA" filter="url(#fylknlaypctmj)" height="96.8281" rx="12.5" ry="12.5" style="stroke: #333333; stroke-width: 1.5;" width="209" x="877" y="1234.3364"/><text fill="#000000" font-family="Segoe UI" font-size="11" lengthAdjust="spacingAndGlyphs" textLength="11" x="887" y="1254.5469">&#127917;</text><text fill="#000000" font-family="Segoe UI" font-size="11" font-weight="bold" lengthAdjust="spacingAndGlyphs" textLength="24" x="902" y="1254.5469">Yua</text><text fill="#000000" font-family="Segoe UI" font-size="11" lengthAdjust="spacingAndGlyphs" textLength="93" x="930" y="1254.5469">— Turn Planning</text><text fill="#000000" font-family="Segoe UI" font-size="11" lengthAdjust="spacingAndGlyphs" textLength="16" x="895" y="1267.3516">----</text><text fill="#000000" font-family="Segoe UI" font-size="11" lengthAdjust="spacingAndGlyphs" textLength="82" x="895" y="1280.1563">&lt;think&gt; block:</text><text fill="#000000" font-family="Segoe UI" font-size="11" lengthAdjust="spacingAndGlyphs" textLength="165" x="895" y="1292.9609">Turn deconstruct, archetype,</text><text fill="#000000" font-family="Segoe UI" font-size="11" lengthAdjust="spacingAndGlyphs" textLength="156" x="895" y="1305.7656">sensory mirror, escalation,</text><text fill="#000000" font-family="Segoe UI" font-size="11" lengthAdjust="spacingAndGlyphs" textLength="181" x="895" y="1318.5703">character pulse, principle check</text><rect fill="#FAFAFA" filter="url(#fylknlaypctmj)" height="96.8281" rx="12.5" ry="12.5" style="stroke: #333333; stroke-width: 1.5;" width="224" x="869.5" y="1351.1646"/><text fill="#000000" font-family="Segoe UI" font-size="11" lengthAdjust="spacingAndGlyphs" textLength="11" x="879.5" y="1371.375">&#127917;</text><text fill="#000000" font-family="Segoe UI" font-size="11" font-weight="bold" lengthAdjust="spacingAndGlyphs" textLength="24" x="894.5" y="1371.375">Yua</text><text fill="#000000" font-family="Segoe UI" font-size="11" lengthAdjust="spacingAndGlyphs" textLength="132" x="922.5" y="1371.375">— Novel Format Output</text><text fill="#000000" font-family="Segoe UI" font-size="11" lengthAdjust="spacingAndGlyphs" textLength="16" x="887.5" y="1384.1797">----</text><text fill="#000000" font-family="Segoe UI" font-size="11" lengthAdjust="spacingAndGlyphs" textLength="156" x="887.5" y="1396.9844">Narrator block (italic prose)</text><text fill="#000000" font-family="Segoe UI" font-size="11" lengthAdjust="spacingAndGlyphs" textLength="196" x="887.5" y="1409.7891">+ Character dialogue 「brackets」</text><text fill="#000000" font-family="Segoe UI" font-size="11" lengthAdjust="spacingAndGlyphs" textLength="132" x="887.5" y="1422.5938">+ Thoughts （parens）</text><text fill="#000000" font-family="Segoe UI" font-size="11" lengthAdjust="spacingAndGlyphs" textLength="34" x="887.5" y="1435.3984">+ SFX</text><text fill="#000000" font-family="Segoe UI" font-size="11" font-weight="bold" lengthAdjust="spacingAndGlyphs" textLength="71" x="925.5" y="1435.3984">*bold-italic</text><text fill="#000000" font-family="Segoe UI" font-size="11" lengthAdjust="spacingAndGlyphs" textLength="6" x="996.5" y="1435.3984">*</text><rect fill="#FAFAFA" filter="url(#fylknlaypctmj)" height="32.8047" rx="12.5" ry="12.5" style="stroke: #333333; stroke-width: 1.5;" width="86" x="938.5" y="1467.9927"/><text fill="#000000" font-family="Segoe UI" font-size="11" lengthAdjust="spacingAndGlyphs" textLength="66" x="948.5" y="1488.2031">Deliver turn</text><ellipse cx="981.5" cy="1531.7974" fill="#FFFFFF" filter="url(#fylknlaypctmj)" rx="11" ry="11" style="stroke: #000000; stroke-width: 1.0;"/><ellipse cx="981.5" cy="1531.7974" fill="#000000" rx="6" ry="6" style="stroke: #7F7F7F; stroke-width: 1.0;"/><line style="stroke: #555555; stroke-width: 1.5;" x1="131" x2="131" y1="65.1958" y2="85.1958"/><polygon fill="#555555" points="127,75.1958,131,85.1958,135,75.1958,131,79.1958" style="stroke: #555555; stroke-width: 1.0;"/><line style="stroke: #555555; stroke-width: 1.5;" x1="131" x2="131" y1="118.0005" y2="138.0005"/><polygon fill="#555555" points="127,128.0005,131,138.0005,135,128.0005,131,132.0005" style="stroke: #555555; stroke-width: 1.0;"/><line style="stroke: #555555; stroke-width: 1.5;" x1="131" x2="131" y1="222.0239" y2="242.0239"/><polygon fill="#555555" points="127,232.0239,131,242.0239,135,232.0239,131,236.0239" style="stroke: #555555; stroke-width: 1.0;"/><line style="stroke: #555555; stroke-width: 1.5;" x1="131" x2="131" y1="338.8521" y2="358.8521"/><polygon fill="#555555" points="127,348.8521,131,358.8521,135,348.8521,131,352.8521" style="stroke: #555555; stroke-width: 1.0;"/><line style="stroke: #555555; stroke-width: 1.5;" x1="131" x2="131" y1="442.8755" y2="462.8755"/><polygon fill="#555555" points="127,452.8755,131,462.8755,135,452.8755,131,456.8755" style="stroke: #555555; stroke-width: 1.0;"/><line style="stroke: #555555; stroke-width: 1.5;" x1="131" x2="131" y1="495.6802" y2="515.6802"/><polygon fill="#555555" points="127,505.6802,131,515.6802,135,505.6802,131,509.6802" style="stroke: #555555; stroke-width: 1.0;"/><line style="stroke: #555555; stroke-width: 1.5;" x1="607.75" x2="607.75" y1="567.6802" y2="587.6802"/><polygon fill="#555555" points="603.75,577.6802,607.75,587.6802,611.75,577.6802,607.75,581.6802" style="stroke: #555555; stroke-width: 1.0;"/><line style="stroke: #555555; stroke-width: 1.5;" x1="607.75" x2="607.75" y1="620.4849" y2="640.4849"/><polygon fill="#555555" points="603.75,630.4849,607.75,640.4849,611.75,630.4849,607.75,634.4849" style="stroke: #555555; stroke-width: 1.0;"/><line style="stroke: #555555; stroke-width: 1.5;" x1="607.75" x2="607.75" y1="686.0942" y2="706.0942"/><polygon fill="#555555" points="603.75,696.0942,607.75,706.0942,611.75,696.0942,607.75,700.0942" style="stroke: #555555; stroke-width: 1.0;"/><line style="stroke: #555555; stroke-width: 1.5;" x1="607.75" x2="607.75" y1="738.8989" y2="758.8989"/><polygon fill="#555555" points="603.75,748.8989,607.75,758.8989,611.75,748.8989,607.75,752.8989" style="stroke: #555555; stroke-width: 1.0;"/><line style="stroke: #555555; stroke-width: 1.5;" x1="607.75" x2="607.75" y1="804.5083" y2="824.5083"/><polygon fill="#555555" points="603.75,814.5083,607.75,824.5083,611.75,814.5083,607.75,818.5083" style="stroke: #555555; stroke-width: 1.0;"/><line style="stroke: #555555; stroke-width: 1.5;" x1="607.75" x2="607.75" y1="870.1177" y2="890.1177"/><polygon fill="#555555" points="603.75,880.1177,607.75,890.1177,611.75,880.1177,607.75,884.1177" style="stroke: #555555; stroke-width: 1.0;"/><line style="stroke: #555555; stroke-width: 1.5;" x1="502" x2="502" y1="1022.5317" y2="1057.5317"/><polygon fill="#555555" points="498,1047.5317,502,1057.5317,506,1047.5317,502,1051.5317" style="stroke: #555555; stroke-width: 1.0;"/><line style="stroke: #555555; stroke-width: 1.5;" x1="633" x2="633" y1="1069.3364" y2="1099.5317"/><polygon fill="#555555" points="629,1089.5317,633,1099.5317,637,1089.5317,633,1093.5317" style="stroke: #555555; stroke-width: 1.0;"/><line style="stroke: #555555; stroke-width: 1.5;" x1="643" x2="633" y1="1001.7271" y2="1001.7271"/><line style="stroke: #555555; stroke-width: 1.5;" x1="633" x2="633" y1="1001.7271" y2="1023.7271"/><polygon fill="#555555" points="629,1013.7271,633,1023.7271,637,1013.7271,633,1017.7271" style="stroke: #555555; stroke-width: 1.0;"/><line style="stroke: #555555; stroke-width: 1.5;" x1="784" x2="794" y1="1001.7271" y2="1001.7271"/><line style="stroke: #555555; stroke-width: 1.5;" x1="794" x2="794" y1="1001.7271" y2="1023.7271"/><polygon fill="#555555" points="790,1013.7271,794,1023.7271,798,1013.7271,794,1017.7271" style="stroke: #555555; stroke-width: 1.0;"/><line style="stroke: #555555; stroke-width: 1.5;" x1="794" x2="794" y1="1056.5317" y2="1126.5317"/><line style="stroke: #555555; stroke-width: 1.5;" x1="794" x2="981.5" y1="1126.5317" y2="1126.5317"/><line style="stroke: #555555; stroke-width: 1.5;" x1="981.5" x2="981.5" y1="1126.5317" y2="1141.5317"/><polygon fill="#555555" points="977.5,1131.5317,981.5,1141.5317,985.5,1131.5317,981.5,1135.5317" style="stroke: #555555; stroke-width: 1.0;"/><line style="stroke: #555555; stroke-width: 1.5;" x1="560.75" x2="502" y1="967.7271" y2="967.7271"/><line style="stroke: #555555; stroke-width: 1.5;" x1="502" x2="502" y1="967.7271" y2="989.7271"/><polygon fill="#555555" points="498,979.7271,502,989.7271,506,979.7271,502,983.7271" style="stroke: #555555; stroke-width: 1.0;"/><line style="stroke: #555555; stroke-width: 1.5;" x1="654.75" x2="713.5" y1="967.7271" y2="967.7271"/><line style="stroke: #555555; stroke-width: 1.5;" x1="713.5" x2="713.5" y1="967.7271" y2="989.7271"/><polygon fill="#555555" points="709.5,979.7271,713.5,989.7271,717.5,979.7271,713.5,983.7271" style="stroke: #555555; stroke-width: 1.0;"/><line style="stroke: #555555; stroke-width: 1.5;" x1="607.75" x2="607.75" y1="935.7271" y2="955.7271"/><polygon fill="#555555" points="603.75,945.7271,607.75,955.7271,611.75,945.7271,607.75,949.7271" style="stroke: #555555; stroke-width: 1.0;"/><line style="stroke: #555555; stroke-width: 1.5;" x1="981.5" x2="981.5" y1="1161.5317" y2="1181.5317"/><polygon fill="#555555" points="977.5,1171.5317,981.5,1181.5317,985.5,1171.5317,981.5,1175.5317" style="stroke: #555555; stroke-width: 1.0;"/><line style="stroke: #555555; stroke-width: 1.5;" x1="981.5" x2="981.5" y1="1214.3364" y2="1234.3364"/><polygon fill="#555555" points="977.5,1224.3364,981.5,1234.3364,985.5,1224.3364,981.5,1228.3364" style="stroke: #555555; stroke-width: 1.0;"/><line style="stroke: #555555; stroke-width: 1.5;" x1="981.5" x2="981.5" y1="1331.1646" y2="1351.1646"/><polygon fill="#555555" points="977.5,1341.1646,981.5,1351.1646,985.5,1341.1646,981.5,1345.1646" style="stroke: #555555; stroke-width: 1.0;"/><line style="stroke: #555555; stroke-width: 1.5;" x1="981.5" x2="981.5" y1="1447.9927" y2="1467.9927"/><polygon fill="#555555" points="977.5,1457.9927,981.5,1467.9927,985.5,1457.9927,981.5,1461.9927" style="stroke: #555555; stroke-width: 1.0;"/><line style="stroke: #555555; stroke-width: 1.5;" x1="981.5" x2="981.5" y1="1500.7974" y2="1520.7974"/><polygon fill="#555555" points="977.5,1510.7974,981.5,1520.7974,985.5,1510.7974,981.5,1514.7974" style="stroke: #555555; stroke-width: 1.0;"/><text fill="#000000" font-family="Segoe UI" font-size="11" lengthAdjust="spacingAndGlyphs" textLength="63" x="202.5" y="37.6016">EC Pipeline</text><text fill="#000000" font-family="Segoe UI" font-size="11" lengthAdjust="spacingAndGlyphs" textLength="64" x="626.25" y="37.6016">MA Pipeline</text><text fill="#000000" font-family="Segoe UI" font-size="11" lengthAdjust="spacingAndGlyphs" textLength="62" x="950" y="37.6016">RP Pipeline</text><line style="stroke: #000000; stroke-width: 2.0;" x1="10" x2="10" y1="27.3911" y2="1542.7974"/><line style="stroke: #000000; stroke-width: 2.0;" x1="453" x2="453" y1="27.3911" y2="1542.7974"/><line style="stroke: #000000; stroke-width: 2.0;" x1="864.5" x2="864.5" y1="27.3911" y2="1542.7974"/><line style="stroke: #000000; stroke-width: 2.0;" x1="1102.5" x2="1102.5" y1="27.3911" y2="1542.7974"/><!--MD5=[5778e079779cde963839b06377dbb061]
@startuml LND_Studio_Pipeline_Flows
title Pipeline Flows — EC, MA, RP

skinparam {
  ActivityBackgroundColor #FAFAFA
  ActivityBorderColor #333333
  ArrowColor #555555
  defaultFontName "Segoe UI"
  defaultFontSize 11
  TitleFontSize 14
  PartitionBackgroundColor #F5F5F5
}

|EC Pipeline|
start
:User provides image + mood_seed;
:🖼️ **Kana** — Forensic Analysis
  - - - -
  OCR, character anchoring,
  explicit elements, heat map,
  gut reaction, fetish vector;
note right
  Output: forensic inline data
  Pass: fetish_tags, gut_reaction,
  explicit_acts, archetype
end note
:🌍 **Luna** — Scene Prelude
  - - - -
  Setting blueprint,
  relationship topology,
  "The Why", escalation arc,
  sensory anchors;
note right
  Output: prelude inline data
  Pass: setting_seed,
  power_dynamic, kink_name,
  sensory_anchors
end note
:🖋️ **Suki** — Caption Writer
  - - - -
  150-300 word Vietnamese prose
  Mandatory COT think block
  3 sensory anchors woven in;
:Write caption.json;
stop

|MA Pipeline|
start
:Raw Manga Page(s);
:🖼️ **Kana** — Panel Forensic
  → forensic-state.json;
:🖼️ **Kana** — POC Context Vectors;
:👤 **Aria** — Character Builder
  → character-bible.json;
:🖋️ **Suki** — R18 Prose Generation
  → draft-prose.json;
:🛡️ **Riko** — Quality Audit (100-pt)
  → audit-report.json;
if (Score ≥ 85?) then (PASS)
  :Final Output;
  stop
else (FAIL)
  if (3rd consecutive fail?) then (yes)
    :⚠️ HALT PIPELINE\nCircuit Breaker;
    stop
  else (no)
    :Rewrite loop → Suki;
  endif
endif

|RP Pipeline|
start
:User Turn (action/dialogue);
:🎭 **Yua** — Turn Planning
  - - - -
  <think> block:
  Turn deconstruct, archetype,
  sensory mirror, escalation,
  character pulse, principle check;
:🎭 **Yua** — Novel Format Output
  - - - -
  Narrator block (italic prose)
  + Character dialogue 「brackets」
  + Thoughts （parens）
  + SFX ***bold-italic***;
:Deliver turn;
stop

@enduml

PlantUML version 1.2020.02(Sun Mar 01 17:22:07 ICT 2020)
(GPL source distribution)
Java Runtime: OpenJDK Runtime Environment
JVM: OpenJDK 64-Bit Server VM
Java Version: 21.0.10+7-Ubuntu-124.04
Operating System: Linux
Default Encoding: UTF-8
Language: en
Country: US
--></g></svg>