<?xml version="1.0" encoding="UTF-8" standalone="no"?><svg xmlns="http://www.w3.org/2000/svg" xmlns:xlink="http://www.w3.org/1999/xlink" contentScriptType="application/ecmascript" contentStyleType="text/css" height="612px" preserveAspectRatio="none" style="width:3333px;height:612px;" version="1.1" viewBox="0 0 3333 612" width="3333px" zoomAndPan="magnify"><defs><filter height="300%" id="f13qixwpk1cvpl" width="300%" x="-1" y="-1"><feGaussianBlur result="blurOut" stdDeviation="2.0"/><feColorMatrix in="blurOut" result="blurOut2" type="matrix" values="0 0 0 0 0 0 0 0 0 0 0 0 0 0 0 0 0 0 .4 0"/><feOffset dx="4.0" dy="4.0" in="blurOut2" result="blurOut3"/><feBlend in="SourceGraphic" in2="blurOut3" mode="normal"/></filter></defs><g><text fill="#000000" font-family="Segoe UI" font-size="14" lengthAdjust="spacingAndGlyphs" textLength="315" x="1515" y="12.9951">Developers — Meta Layer (QA &amp; Optimization)</text><!--MD5=[a352034f89763bd54d0e7ec2fbc7b64b]
cluster DEVS--><polygon fill="#FFCDD2" filter="url(#f13qixwpk1cvpl)" points="22,140.2969,147,140.2969,154,159.1016,2795,159.1016,2795,600.2969,22,600.2969,22,140.2969" style="stroke: #000000; stroke-width: 1.5;"/><line style="stroke: #000000; stroke-width: 1.5;" x1="22" x2="154" y1="159.1016" y2="159.1016"/><text fill="#000000" font-family="Segoe UI" font-size="11" font-weight="bold" lengthAdjust="spacingAndGlyphs" textLength="119" x="26" y="152.5073">studio/developers/</text><!--MD5=[9802ca97d131739c4fa1557855251aaf]
cluster agents/--><polygon fill="#FFCDD2" filter="url(#f13qixwpk1cvpl)" points="196,326.2969,250,326.2969,257,345.1016,764,345.1016,764,552.2969,196,552.2969,196,326.2969" style="stroke: #000000; stroke-width: 1.5;"/><line style="stroke: #000000; stroke-width: 1.5;" x1="196" x2="257" y1="345.1016" y2="345.1016"/><text fill="#000000" font-family="Segoe UI" font-size="11" font-weight="bold" lengthAdjust="spacingAndGlyphs" textLength="48" x="200" y="338.5073">agents/</text><!--MD5=[87f58a209636eb9ed90e0b55da4681d5]
cluster config/--><polygon fill="#FFCDD2" filter="url(#f13qixwpk1cvpl)" points="788,287.2969,838,287.2969,845,306.1016,2235,306.1016,2235,576.2969,788,576.2969,788,287.2969" style="stroke: #000000; stroke-width: 1.5;"/><line style="stroke: #000000; stroke-width: 1.5;" x1="788" x2="845" y1="306.1016" y2="306.1016"/><text fill="#000000" font-family="Segoe UI" font-size="11" font-weight="bold" lengthAdjust="spacingAndGlyphs" textLength="44" x="792" y="299.5073">config/</text><!--MD5=[9498c02b187af02b9568164299554395]
cluster roles/--><polygon fill="#FFCDD2" filter="url(#f13qixwpk1cvpl)" points="1529,326.2969,1571,326.2969,1578,345.1016,2211,345.1016,2211,416.2969,1529,416.2969,1529,326.2969" style="stroke: #000000; stroke-width: 1.5;"/><line style="stroke: #000000; stroke-width: 1.5;" x1="1529" x2="1578" y1="345.1016" y2="345.1016"/><text fill="#000000" font-family="Segoe UI" font-size="11" font-weight="bold" lengthAdjust="spacingAndGlyphs" textLength="36" x="1533" y="338.5073">roles/</text><!--MD5=[934113e6174b173c202e627d37ea00bd]
cluster templates/--><polygon fill="#FFCDD2" filter="url(#f13qixwpk1cvpl)" points="1176,326.2969,1250,326.2969,1257,345.1016,1505,345.1016,1505,416.2969,1176,416.2969,1176,326.2969" style="stroke: #000000; stroke-width: 1.5;"/><line style="stroke: #000000; stroke-width: 1.5;" x1="1176" x2="1257" y1="345.1016" y2="345.1016"/><text fill="#000000" font-family="Segoe UI" font-size="11" font-weight="bold" lengthAdjust="spacingAndGlyphs" textLength="68" x="1180" y="338.5073">templates/</text><!--MD5=[fccba91b8ccc9e2a09371744ed68ce79]
cluster dev/rules/--><polygon fill="#FFCDD2" filter="url(#f13qixwpk1cvpl)" points="1274,462.2969,1343,462.2969,1350,481.1016,2059,481.1016,2059,552.2969,1274,552.2969,1274,462.2969" style="stroke: #000000; stroke-width: 1.5;"/><line style="stroke: #000000; stroke-width: 1.5;" x1="1274" x2="1350" y1="481.1016" y2="481.1016"/><text fill="#000000" font-family="Segoe UI" font-size="11" font-weight="bold" lengthAdjust="spacingAndGlyphs" textLength="63" x="1278" y="474.5073">dev/rules/</text><!--MD5=[1f5b4db40eb5c006288d996cce007eb8]
cluster schemas/--><polygon fill="#FFCDD2" filter="url(#f13qixwpk1cvpl)" points="2259,326.2969,2325,326.2969,2332,345.1016,2771,345.1016,2771,416.2969,2259,416.2969,2259,326.2969" style="stroke: #000000; stroke-width: 1.5;"/><line style="stroke: #000000; stroke-width: 1.5;" x1="2259" x2="2332" y1="345.1016" y2="345.1016"/><text fill="#000000" font-family="Segoe UI" font-size="11" font-weight="bold" lengthAdjust="spacingAndGlyphs" textLength="60" x="2263" y="338.5073">schemas/</text><!--MD5=[8e9204709109dd3dcab145376c71c85b]
cluster PROD--><polygon fill="#F3E5F5" filter="url(#f13qixwpk1cvpl)" points="2819,326.2969,2942,326.2969,2949,345.1016,3311,345.1016,3311,416.2969,2819,416.2969,2819,326.2969" style="stroke: #000000; stroke-width: 1.5;"/><line style="stroke: #000000; stroke-width: 1.5;" x1="2819" x2="2949" y1="345.1016" y2="345.1016"/><text fill="#000000" font-family="Segoe UI" font-size="11" font-weight="bold" lengthAdjust="spacingAndGlyphs" textLength="117" x="2823" y="338.5073">Production Output</text><!--MD5=[4b6424c363fbaa5bc44b11df067a6c33]
entity orch--><rect fill="#EF9A9A" filter="url(#f13qixwpk1cvpl)" height="55.6094" style="stroke: #A80036; stroke-width: 1.5;" width="175" x="1672.5" y="171.2969"/><rect fill="#EF9A9A" height="10" style="stroke: #A80036; stroke-width: 1.5;" width="15" x="1827.5" y="176.2969"/><rect fill="#EF9A9A" height="2" style="stroke: #A80036; stroke-width: 1.5;" width="4" x="1825.5" y="178.2969"/><rect fill="#EF9A9A" height="2" style="stroke: #A80036; stroke-width: 1.5;" width="4" x="1825.5" y="182.2969"/><text fill="#000000" font-family="Segoe UI" font-size="11" lengthAdjust="spacingAndGlyphs" textLength="88" x="1687.5" y="201.5073">orchestrator.py</text><text fill="#000000" font-family="Segoe UI" font-size="11" lengthAdjust="spacingAndGlyphs" textLength="135" x="1687.5" y="214.312">(Multi-AI Review Runner)</text><!--MD5=[9d775c590af85d502d4bcb5bf674333d]
entity mode_py--><rect fill="#FEFECE" filter="url(#f13qixwpk1cvpl)" height="42.8047" style="stroke: #A80036; stroke-width: 1.5;" width="139" x="38.5" y="357.2969"/><rect fill="#FEFECE" height="10" style="stroke: #A80036; stroke-width: 1.5;" width="15" x="157.5" y="362.2969"/><rect fill="#FEFECE" height="2" style="stroke: #A80036; stroke-width: 1.5;" width="4" x="155.5" y="364.2969"/><rect fill="#FEFECE" height="2" style="stroke: #A80036; stroke-width: 1.5;" width="4" x="155.5" y="368.2969"/><text fill="#000000" font-family="Segoe UI" font-size="11" lengthAdjust="spacingAndGlyphs" textLength="99" x="53.5" y="387.5073">mode_registry.py</text><!--MD5=[21ab09ffd5d05f413c587b952aee3778]
entity base--><rect fill="#FEFECE" filter="url(#f13qixwpk1cvpl)" height="42.8047" style="stroke: #A80036; stroke-width: 1.5;" width="101" x="489.5" y="493.2969"/><rect fill="#FEFECE" height="10" style="stroke: #A80036; stroke-width: 1.5;" width="15" x="570.5" y="498.2969"/><rect fill="#FEFECE" height="2" style="stroke: #A80036; stroke-width: 1.5;" width="4" x="568.5" y="500.2969"/><rect fill="#FEFECE" height="2" style="stroke: #A80036; stroke-width: 1.5;" width="4" x="568.5" y="504.2969"/><text fill="#000000" font-family="Segoe UI" font-size="11" lengthAdjust="spacingAndGlyphs" textLength="61" x="504.5" y="523.5073">BaseAgent</text><!--MD5=[25cc2a07eab060485537298fecf68bfa]
entity hermes--><rect fill="#FEFECE" filter="url(#f13qixwpk1cvpl)" height="42.8047" style="stroke: #A80036; stroke-width: 1.5;" width="117" x="630.5" y="357.2969"/><rect fill="#FEFECE" height="10" style="stroke: #A80036; stroke-width: 1.5;" width="15" x="727.5" y="362.2969"/><rect fill="#FEFECE" height="2" style="stroke: #A80036; stroke-width: 1.5;" width="4" x="725.5" y="364.2969"/><rect fill="#FEFECE" height="2" style="stroke: #A80036; stroke-width: 1.5;" width="4" x="725.5" y="368.2969"/><text fill="#000000" font-family="Segoe UI" font-size="11" lengthAdjust="spacingAndGlyphs" textLength="77" x="645.5" y="387.5073">HermesAgent</text><!--MD5=[72e38341bf46d5ce11d8917295784345]
entity claude--><rect fill="#FEFECE" filter="url(#f13qixwpk1cvpl)" height="42.8047" style="stroke: #A80036; stroke-width: 1.5;" width="111" x="484.5" y="357.2969"/><rect fill="#FEFECE" height="10" style="stroke: #A80036; stroke-width: 1.5;" width="15" x="575.5" y="362.2969"/><rect fill="#FEFECE" height="2" style="stroke: #A80036; stroke-width: 1.5;" width="4" x="573.5" y="364.2969"/><rect fill="#FEFECE" height="2" style="stroke: #A80036; stroke-width: 1.5;" width="4" x="573.5" y="368.2969"/><text fill="#000000" font-family="Segoe UI" font-size="11" lengthAdjust="spacingAndGlyphs" textLength="71" x="499.5" y="387.5073">ClaudeAgent</text><!--MD5=[1acd0941b5b56b296e5c71dcb3bd5fd0]
entity mock--><rect fill="#FEFECE" filter="url(#f13qixwpk1cvpl)" height="42.8047" style="stroke: #A80036; stroke-width: 1.5;" width="100" x="349" y="357.2969"/><rect fill="#FEFECE" height="10" style="stroke: #A80036; stroke-width: 1.5;" width="15" x="429" y="362.2969"/><rect fill="#FEFECE" height="2" style="stroke: #A80036; stroke-width: 1.5;" width="4" x="427" y="364.2969"/><rect fill="#FEFECE" height="2" style="stroke: #A80036; stroke-width: 1.5;" width="4" x="427" y="368.2969"/><text fill="#000000" font-family="Segoe UI" font-size="11" lengthAdjust="spacingAndGlyphs" textLength="60" x="364" y="387.5073">MockAgent</text><!--MD5=[1cf3a1e791216b113a78027851298b1c]
entity reg--><rect fill="#FEFECE" filter="url(#f13qixwpk1cvpl)" height="42.8047" style="stroke: #A80036; stroke-width: 1.5;" width="101" x="212.5" y="357.2969"/><rect fill="#FEFECE" height="10" style="stroke: #A80036; stroke-width: 1.5;" width="15" x="293.5" y="362.2969"/><rect fill="#FEFECE" height="2" style="stroke: #A80036; stroke-width: 1.5;" width="4" x="291.5" y="364.2969"/><rect fill="#FEFECE" height="2" style="stroke: #A80036; stroke-width: 1.5;" width="4" x="291.5" y="368.2969"/><text fill="#000000" font-family="Segoe UI" font-size="11" lengthAdjust="spacingAndGlyphs" textLength="61" x="227.5" y="387.5073">registry.py</text><!--MD5=[423c852cc4adb6ccec3571c40c84d702]
entity modes--><rect fill="#FEFECE" filter="url(#f13qixwpk1cvpl)" height="42.8047" style="stroke: #A80036; stroke-width: 1.5;" width="153" x="1003.5" y="357.2969"/><rect fill="#FEFECE" height="10" style="stroke: #A80036; stroke-width: 1.5;" width="15" x="1136.5" y="362.2969"/><rect fill="#FEFECE" height="2" style="stroke: #A80036; stroke-width: 1.5;" width="4" x="1134.5" y="364.2969"/><rect fill="#FEFECE" height="2" style="stroke: #A80036; stroke-width: 1.5;" width="4" x="1134.5" y="368.2969"/><text fill="#000000" font-family="Segoe UI" font-size="11" lengthAdjust="spacingAndGlyphs" textLength="113" x="1018.5" y="387.5073">mode_registry.yaml</text><!--MD5=[e59d74e9659f3cef00cc2bee867e4b89]
entity ki--><rect fill="#FEFECE" filter="url(#f13qixwpk1cvpl)" height="42.8047" style="stroke: #A80036; stroke-width: 1.5;" width="164" x="804" y="357.2969"/><rect fill="#FEFECE" height="10" style="stroke: #A80036; stroke-width: 1.5;" width="15" x="948" y="362.2969"/><rect fill="#FEFECE" height="2" style="stroke: #A80036; stroke-width: 1.5;" width="4" x="946" y="364.2969"/><rect fill="#FEFECE" height="2" style="stroke: #A80036; stroke-width: 1.5;" width="4" x="946" y="368.2969"/><text fill="#000000" font-family="Segoe UI" font-size="11" lengthAdjust="spacingAndGlyphs" textLength="124" x="819" y="387.5073">knowledge_index.json</text><!--MD5=[f6f454d632285622ce80aabb36facf08]
entity r_arch--><rect fill="#FEFECE" filter="url(#f13qixwpk1cvpl)" height="42.8047" style="stroke: #A80036; stroke-width: 1.5;" width="122" x="2073" y="357.2969"/><rect fill="#FEFECE" height="10" style="stroke: #A80036; stroke-width: 1.5;" width="15" x="2175" y="362.2969"/><rect fill="#FEFECE" height="2" style="stroke: #A80036; stroke-width: 1.5;" width="4" x="2173" y="364.2969"/><rect fill="#FEFECE" height="2" style="stroke: #A80036; stroke-width: 1.5;" width="4" x="2173" y="368.2969"/><text fill="#000000" font-family="Segoe UI" font-size="11" lengthAdjust="spacingAndGlyphs" textLength="82" x="2088" y="387.5073">se/m-architect</text><!--MD5=[fce9957ce1528118953d812c88f86b8b]
entity r_prompt--><rect fill="#FEFECE" filter="url(#f13qixwpk1cvpl)" height="42.8047" style="stroke: #A80036; stroke-width: 1.5;" width="160" x="1545" y="357.2969"/><rect fill="#FEFECE" height="10" style="stroke: #A80036; stroke-width: 1.5;" width="15" x="1685" y="362.2969"/><rect fill="#FEFECE" height="2" style="stroke: #A80036; stroke-width: 1.5;" width="4" x="1683" y="364.2969"/><rect fill="#FEFECE" height="2" style="stroke: #A80036; stroke-width: 1.5;" width="4" x="1683" y="368.2969"/><text fill="#000000" font-family="Segoe UI" font-size="11" lengthAdjust="spacingAndGlyphs" textLength="120" x="1560" y="387.5073">dev/m-prompt-expert</text><!--MD5=[337612a43f9775bfaff02fb54ae6cbf9]
entity r_r18--><rect fill="#FEFECE" filter="url(#f13qixwpk1cvpl)" height="42.8047" style="stroke: #A80036; stroke-width: 1.5;" width="131" x="1740.5" y="357.2969"/><rect fill="#FEFECE" height="10" style="stroke: #A80036; stroke-width: 1.5;" width="15" x="1851.5" y="362.2969"/><rect fill="#FEFECE" height="2" style="stroke: #A80036; stroke-width: 1.5;" width="4" x="1849.5" y="364.2969"/><rect fill="#FEFECE" height="2" style="stroke: #A80036; stroke-width: 1.5;" width="4" x="1849.5" y="368.2969"/><text fill="#000000" font-family="Segoe UI" font-size="11" lengthAdjust="spacingAndGlyphs" textLength="91" x="1755.5" y="387.5073">dev/f-r18-expert</text><!--MD5=[184b81c4f22cec2daf323d631f352b04]
entity r_qa--><rect fill="#FEFECE" filter="url(#f13qixwpk1cvpl)" height="42.8047" style="stroke: #A80036; stroke-width: 1.5;" width="131" x="1906.5" y="357.2969"/><rect fill="#FEFECE" height="10" style="stroke: #A80036; stroke-width: 1.5;" width="15" x="2017.5" y="362.2969"/><rect fill="#FEFECE" height="2" style="stroke: #A80036; stroke-width: 1.5;" width="4" x="2015.5" y="364.2969"/><rect fill="#FEFECE" height="2" style="stroke: #A80036; stroke-width: 1.5;" width="4" x="2015.5" y="368.2969"/><text fill="#000000" font-family="Segoe UI" font-size="11" lengthAdjust="spacingAndGlyphs" textLength="91" x="1921.5" y="387.5073">qa/m-qa-gooner</text><!--MD5=[c1bc5f6450dc6519df60e21b838208b4]
entity t_arch--><rect fill="#FEFECE" filter="url(#f13qixwpk1cvpl)" height="42.8047" style="stroke: #A80036; stroke-width: 1.5;" width="130" x="1192" y="357.2969"/><rect fill="#FEFECE" height="10" style="stroke: #A80036; stroke-width: 1.5;" width="15" x="1302" y="362.2969"/><rect fill="#FEFECE" height="2" style="stroke: #A80036; stroke-width: 1.5;" width="4" x="1300" y="364.2969"/><rect fill="#FEFECE" height="2" style="stroke: #A80036; stroke-width: 1.5;" width="4" x="1300" y="368.2969"/><text fill="#000000" font-family="Segoe UI" font-size="11" lengthAdjust="spacingAndGlyphs" textLength="90" x="1207" y="387.5073">arch_review.md</text><!--MD5=[15a70ccd7b1276c46b133455e1c28c91]
entity t_code--><rect fill="#FEFECE" filter="url(#f13qixwpk1cvpl)" height="42.8047" style="stroke: #A80036; stroke-width: 1.5;" width="132" x="1357" y="357.2969"/><rect fill="#FEFECE" height="10" style="stroke: #A80036; stroke-width: 1.5;" width="15" x="1469" y="362.2969"/><rect fill="#FEFECE" height="2" style="stroke: #A80036; stroke-width: 1.5;" width="4" x="1467" y="364.2969"/><rect fill="#FEFECE" height="2" style="stroke: #A80036; stroke-width: 1.5;" width="4" x="1467" y="368.2969"/><text fill="#000000" font-family="Segoe UI" font-size="11" lengthAdjust="spacingAndGlyphs" textLength="92" x="1372" y="387.5073">code_review.md</text><!--MD5=[c9ea63b71a1c2e63f8f226e2bab10678]
entity rule_gp--><rect fill="#FEFECE" filter="url(#f13qixwpk1cvpl)" height="42.8047" style="stroke: #A80036; stroke-width: 1.5;" width="141" x="1434.5" y="493.2969"/><rect fill="#FEFECE" height="10" style="stroke: #A80036; stroke-width: 1.5;" width="15" x="1555.5" y="498.2969"/><rect fill="#FEFECE" height="2" style="stroke: #A80036; stroke-width: 1.5;" width="4" x="1553.5" y="500.2969"/><rect fill="#FEFECE" height="2" style="stroke: #A80036; stroke-width: 1.5;" width="4" x="1553.5" y="504.2969"/><text fill="#000000" font-family="Segoe UI" font-size="11" lengthAdjust="spacingAndGlyphs" textLength="101" x="1449.5" y="523.5073">gooner_principles</text><!--MD5=[52a19e0ad587d62abdf24957f8c1c34b]
entity rule_as--><rect fill="#FEFECE" filter="url(#f13qixwpk1cvpl)" height="42.8047" style="stroke: #A80036; stroke-width: 1.5;" width="91" x="1610.5" y="493.2969"/><rect fill="#FEFECE" height="10" style="stroke: #A80036; stroke-width: 1.5;" width="15" x="1681.5" y="498.2969"/><rect fill="#FEFECE" height="2" style="stroke: #A80036; stroke-width: 1.5;" width="4" x="1679.5" y="500.2969"/><rect fill="#FEFECE" height="2" style="stroke: #A80036; stroke-width: 1.5;" width="4" x="1679.5" y="504.2969"/><text fill="#000000" font-family="Segoe UI" font-size="11" lengthAdjust="spacingAndGlyphs" textLength="51" x="1625.5" y="523.5073">anti_slop</text><!--MD5=[20fa848881e41f312314df4df60652ac]
entity rule_sd--><rect fill="#FEFECE" filter="url(#f13qixwpk1cvpl)" height="42.8047" style="stroke: #A80036; stroke-width: 1.5;" width="133" x="1736.5" y="493.2969"/><rect fill="#FEFECE" height="10" style="stroke: #A80036; stroke-width: 1.5;" width="15" x="1849.5" y="498.2969"/><rect fill="#FEFECE" height="2" style="stroke: #A80036; stroke-width: 1.5;" width="4" x="1847.5" y="500.2969"/><rect fill="#FEFECE" height="2" style="stroke: #A80036; stroke-width: 1.5;" width="4" x="1847.5" y="504.2969"/><text fill="#000000" font-family="Segoe UI" font-size="11" lengthAdjust="spacingAndGlyphs" textLength="93" x="1751.5" y="523.5073">sensory_density</text><!--MD5=[b2dfefee27588022257f9b5b3450aafc]
entity rule_hlg--><rect fill="#FEFECE" filter="url(#f13qixwpk1cvpl)" height="42.8047" style="stroke: #A80036; stroke-width: 1.5;" width="138" x="1905" y="493.2969"/><rect fill="#FEFECE" height="10" style="stroke: #A80036; stroke-width: 1.5;" width="15" x="2023" y="498.2969"/><rect fill="#FEFECE" height="2" style="stroke: #A80036; stroke-width: 1.5;" width="4" x="2021" y="500.2969"/><rect fill="#FEFECE" height="2" style="stroke: #A80036; stroke-width: 1.5;" width="4" x="2021" y="504.2969"/><text fill="#000000" font-family="Segoe UI" font-size="11" lengthAdjust="spacingAndGlyphs" textLength="98" x="1920" y="523.5073">hentai_logic_gate</text><!--MD5=[37114d06f2948d47b22ac030c7a39a0c]
entity rule_more--><rect fill="#FEFECE" filter="url(#f13qixwpk1cvpl)" height="42.8047" style="stroke: #A80036; stroke-width: 1.5;" width="109" x="1290.5" y="493.2969"/><rect fill="#FEFECE" height="10" style="stroke: #A80036; stroke-width: 1.5;" width="15" x="1379.5" y="498.2969"/><rect fill="#FEFECE" height="2" style="stroke: #A80036; stroke-width: 1.5;" width="4" x="1377.5" y="500.2969"/><rect fill="#FEFECE" height="2" style="stroke: #A80036; stroke-width: 1.5;" width="4" x="1377.5" y="504.2969"/><text fill="#000000" font-family="Segoe UI" font-size="11" lengthAdjust="spacingAndGlyphs" textLength="69" x="1305.5" y="523.5073">+12 more...</text><!--MD5=[52f61c9c430fa3f005a5fc9ce88dfe06]
entity s_arch--><rect fill="#FEFECE" filter="url(#f13qixwpk1cvpl)" height="42.8047" style="stroke: #A80036; stroke-width: 1.5;" width="142" x="2275" y="357.2969"/><rect fill="#FEFECE" height="10" style="stroke: #A80036; stroke-width: 1.5;" width="15" x="2397" y="362.2969"/><rect fill="#FEFECE" height="2" style="stroke: #A80036; stroke-width: 1.5;" width="4" x="2395" y="364.2969"/><rect fill="#FEFECE" height="2" style="stroke: #A80036; stroke-width: 1.5;" width="4" x="2395" y="368.2969"/><text fill="#000000" font-family="Segoe UI" font-size="11" lengthAdjust="spacingAndGlyphs" textLength="102" x="2290" y="387.5073">ArchReviewOutput</text><!--MD5=[a9321c23095d22e52163defd36a497cb]
entity s_code--><rect fill="#FEFECE" filter="url(#f13qixwpk1cvpl)" height="42.8047" style="stroke: #A80036; stroke-width: 1.5;" width="146" x="2452" y="357.2969"/><rect fill="#FEFECE" height="10" style="stroke: #A80036; stroke-width: 1.5;" width="15" x="2578" y="362.2969"/><rect fill="#FEFECE" height="2" style="stroke: #A80036; stroke-width: 1.5;" width="4" x="2576" y="364.2969"/><rect fill="#FEFECE" height="2" style="stroke: #A80036; stroke-width: 1.5;" width="4" x="2576" y="368.2969"/><text fill="#000000" font-family="Segoe UI" font-size="11" lengthAdjust="spacingAndGlyphs" textLength="106" x="2467" y="387.5073">CodeReviewOutput</text><!--MD5=[2e61cb5e0399d778e3cda321aa3b2f93]
entity s_qa--><rect fill="#FEFECE" filter="url(#f13qixwpk1cvpl)" height="42.8047" style="stroke: #A80036; stroke-width: 1.5;" width="122" x="2633" y="357.2969"/><rect fill="#FEFECE" height="10" style="stroke: #A80036; stroke-width: 1.5;" width="15" x="2735" y="362.2969"/><rect fill="#FEFECE" height="2" style="stroke: #A80036; stroke-width: 1.5;" width="4" x="2733" y="364.2969"/><rect fill="#FEFECE" height="2" style="stroke: #A80036; stroke-width: 1.5;" width="4" x="2733" y="368.2969"/><text fill="#000000" font-family="Segoe UI" font-size="11" lengthAdjust="spacingAndGlyphs" textLength="82" x="2648" y="387.5073">QAAuditOutput</text><!--MD5=[8d7260c5aca20ff0c5ead04e413306a6]
entity prod_prose--><rect fill="#FEFECE" filter="url(#f13qixwpk1cvpl)" height="42.8047" style="stroke: #A80036; stroke-width: 1.5;" width="132" x="3018" y="357.2969"/><rect fill="#FEFECE" height="10" style="stroke: #A80036; stroke-width: 1.5;" width="15" x="3130" y="362.2969"/><rect fill="#FEFECE" height="2" style="stroke: #A80036; stroke-width: 1.5;" width="4" x="3128" y="364.2969"/><rect fill="#FEFECE" height="2" style="stroke: #A80036; stroke-width: 1.5;" width="4" x="3128" y="368.2969"/><text fill="#000000" font-family="Segoe UI" font-size="11" lengthAdjust="spacingAndGlyphs" textLength="92" x="3033" y="387.5073">draft-prose.json</text><!--MD5=[d83be1660edc846d106f3cd575b712fb]
entity prod_caption--><rect fill="#FEFECE" filter="url(#f13qixwpk1cvpl)" height="42.8047" style="stroke: #A80036; stroke-width: 1.5;" width="109" x="3185.5" y="357.2969"/><rect fill="#FEFECE" height="10" style="stroke: #A80036; stroke-width: 1.5;" width="15" x="3274.5" y="362.2969"/><rect fill="#FEFECE" height="2" style="stroke: #A80036; stroke-width: 1.5;" width="4" x="3272.5" y="364.2969"/><rect fill="#FEFECE" height="2" style="stroke: #A80036; stroke-width: 1.5;" width="4" x="3272.5" y="368.2969"/><text fill="#000000" font-family="Segoe UI" font-size="11" lengthAdjust="spacingAndGlyphs" textLength="69" x="3200.5" y="387.5073">caption.json</text><!--MD5=[ba5a7f89c72ac525fcbfc9c5d08df57e]
entity prod_forensic--><rect fill="#FEFECE" filter="url(#f13qixwpk1cvpl)" height="42.8047" style="stroke: #A80036; stroke-width: 1.5;" width="147" x="2835.5" y="357.2969"/><rect fill="#FEFECE" height="10" style="stroke: #A80036; stroke-width: 1.5;" width="15" x="2962.5" y="362.2969"/><rect fill="#FEFECE" height="2" style="stroke: #A80036; stroke-width: 1.5;" width="4" x="2960.5" y="364.2969"/><rect fill="#FEFECE" height="2" style="stroke: #A80036; stroke-width: 1.5;" width="4" x="2960.5" y="368.2969"/><text fill="#000000" font-family="Segoe UI" font-size="11" lengthAdjust="spacingAndGlyphs" textLength="107" x="2850.5" y="387.5073">forensic-state.json</text><!--MD5=[e3476fda087b0512b1cf4e3a66ca5e59]
entity entry--><rect fill="#E8F5E9" filter="url(#f13qixwpk1cvpl)" height="55.6094" style="stroke: #A80036; stroke-width: 1.5;" width="107" x="1706.5" y="24.2969"/><rect fill="#E8F5E9" height="10" style="stroke: #A80036; stroke-width: 1.5;" width="15" x="1793.5" y="29.2969"/><rect fill="#E8F5E9" height="2" style="stroke: #A80036; stroke-width: 1.5;" width="4" x="1791.5" y="31.2969"/><rect fill="#E8F5E9" height="2" style="stroke: #A80036; stroke-width: 1.5;" width="4" x="1791.5" y="35.2969"/><text fill="#000000" font-family="Segoe UI" font-size="11" lengthAdjust="spacingAndGlyphs" textLength="67" x="1721.5" y="54.5073">axel-cowork</text><text fill="#000000" font-family="Segoe UI" font-size="11" lengthAdjust="spacingAndGlyphs" textLength="64" x="1721.5" y="67.312">(Entry Skill)</text><!--MD5=[b15d452b745cd5b18406b2d3e92e0f76]
link hermes to base--><path d="M666.05,400.4369 C642.71,421.4269 606.13,454.3169 578.38,479.2769 " fill="none" id="hermes-&gt;base" style="stroke: #555555; stroke-width: 1.0;"/><polygon fill="none" points="582.78,484.7369,563.23,492.9069,573.42,474.3269,582.78,484.7369" style="stroke: #555555; stroke-width: 1.0;"/><!--MD5=[52b958f2af6d336b3c093599de55313c]
link claude to base--><path d="M540,400.4369 C540,419.6669 540,448.8769 540,472.8269 " fill="none" id="claude-&gt;base" style="stroke: #555555; stroke-width: 1.0;"/><polygon fill="none" points="547,472.9069,540,492.9069,533,472.9069,547,472.9069" style="stroke: #555555; stroke-width: 1.0;"/><!--MD5=[7ad420ac535502484695869b670a7d32]
link mock to base--><path d="M420.72,400.4369 C442.7,421.3269 477.09,454.0169 503.31,478.9269 " fill="none" id="mock-&gt;base" style="stroke: #555555; stroke-width: 1.0;"/><polygon fill="none" points="508.35,474.0569,518.02,492.9069,498.7,484.2069,508.35,474.0569" style="stroke: #555555; stroke-width: 1.0;"/><!--MD5=[91a471664e26822692d4bbdb54ca5a5a]
link orch to reg--><path d="M1672.39,204.1069 C1366.14,217.5369 360.39,262.8269 331,279.2969 C302.57,295.2369 283.45,328.6169 272.91,352.0869 " fill="none" id="orch-&gt;reg" style="stroke: #555555; stroke-width: 1.0;"/><polygon fill="#555555" points="270.79,356.9369,278.0794,350.3138,272.8061,352.3614,270.7585,347.0881,270.79,356.9369" style="stroke: #555555; stroke-width: 1.0;"/><text fill="#000000" font-family="Segoe UI" font-size="11" lengthAdjust="spacingAndGlyphs" textLength="86" x="587" y="268.5073">creates agents</text><!--MD5=[97eb73ee13bec5594cd54a230a9d2293]
link orch to modes--><path d="M1672.36,204.3069 C1530.78,212.0769 1259.18,232.6969 1176,279.2969 C1143.44,297.5369 1114.86,330.2069 1097.53,352.9069 " fill="none" id="orch-&gt;modes" style="stroke: #555555; stroke-width: 1.0;"/><polygon fill="#555555" points="1094.43,357.0169,1103.0409,352.2365,1097.4391,353.0237,1096.6519,347.4219,1094.43,357.0169" style="stroke: #555555; stroke-width: 1.0;"/><text fill="#000000" font-family="Segoe UI" font-size="11" lengthAdjust="spacingAndGlyphs" textLength="74" x="1232" y="268.5073">loads modes</text><!--MD5=[c3b5209ae65e93117a3aa78f9e9fd5ed]
link orch to mode_py--><path d="M1672.47,201.7669 C1399.81,206.6569 567.93,223.9769 300,257.2969 C253.12,263.1269 236.88,255.6169 196,279.2969 C165.12,297.1869 139.26,329.7269 123.74,352.4969 " fill="none" id="orch-&gt;mode_py" style="stroke: #555555; stroke-width: 1.0;"/><polygon fill="#555555" points="120.77,356.9069,129.103,351.657,123.5534,352.7532,122.4572,347.2036,120.77,356.9069" style="stroke: #555555; stroke-width: 1.0;"/><text fill="#000000" font-family="Segoe UI" font-size="11" lengthAdjust="spacingAndGlyphs" textLength="88" x="301" y="268.5073">parses registry</text><!--MD5=[b78b6cbf2662b39b122185921179bd26]
link orch to t_arch--><path d="M1672.18,209.6269 C1566.06,222.1169 1394.89,246.5769 1340,279.2969 C1309.93,297.2269 1285.59,330.0669 1271.23,352.8769 " fill="none" id="orch-&gt;t_arch" style="stroke: #555555; stroke-width: 1.0;"/><polygon fill="#555555" points="1268.49,357.2969,1276.6436,351.7725,1271.1336,353.0529,1269.8532,347.5428,1268.49,357.2969" style="stroke: #555555; stroke-width: 1.0;"/><text fill="#000000" font-family="Segoe UI" font-size="11" lengthAdjust="spacingAndGlyphs" textLength="90" x="1397" y="268.5073">renders prompt</text><!--MD5=[4854c8ca9819d4a38461a04f94697106]
link orch to t_code--><path d="M1672.31,220.9069 C1627.47,233.7169 1573.19,252.8569 1529,279.2969 C1495.72,299.2069 1464.02,330.9269 1444.11,352.9769 " fill="none" id="orch-&gt;t_code" style="stroke: #555555; stroke-width: 1.0;"/><polygon fill="#555555" points="1440.53,356.9669,1449.5162,352.9359,1443.8677,353.244,1443.5596,347.5956,1440.53,356.9669" style="stroke: #555555; stroke-width: 1.0;"/><text fill="#000000" font-family="Segoe UI" font-size="11" lengthAdjust="spacingAndGlyphs" textLength="90" x="1571" y="268.5073">renders prompt</text><!--MD5=[fe0b6903a39a3c9df489f8f93999821b]
link orch to s_arch--><path d="M1847.67,203.9069 C1941.06,210.3869 2091.57,228.5369 2211,279.2969 C2253.33,297.2869 2295,330.7669 2320.6,353.6569 " fill="none" id="orch-&gt;s_arch" style="stroke: #555555; stroke-width: 1.0;"/><polygon fill="#555555" points="2324.56,357.2269,2320.5635,348.2253,2320.8499,353.8749,2315.2004,354.1614,2324.56,357.2269" style="stroke: #555555; stroke-width: 1.0;"/><text fill="#000000" font-family="Segoe UI" font-size="11" lengthAdjust="spacingAndGlyphs" textLength="51" x="2189" y="268.5073">validates</text><!--MD5=[078beaad54698d9b8c1fd766733ba460]
link orch to s_code--><path d="M1847.5,202.9769 C2006.21,209.0769 2334.42,227.6869 2435,279.2969 C2467.59,296.0269 2494.27,329.6769 2509.89,352.9569 " fill="none" id="orch-&gt;s_code" style="stroke: #555555; stroke-width: 1.0;"/><polygon fill="#555555" points="2512.68,357.1769,2511.0544,347.4631,2509.923,353.0057,2504.3804,351.8743,2512.68,357.1769" style="stroke: #555555; stroke-width: 1.0;"/><text fill="#000000" font-family="Segoe UI" font-size="11" lengthAdjust="spacingAndGlyphs" textLength="51" x="2407" y="268.5073">validates</text><!--MD5=[67d9be94af01e2c15e33731856bab551]
link orch to s_qa--><path d="M1847.53,205.4869 C1981.29,213.8369 2244.48,231.9269 2467,257.2969 C2533.51,264.8769 2558.04,245.8169 2616,279.2969 C2645.57,296.3769 2668.15,329.4069 2681.22,352.4869 " fill="none" id="orch-&gt;s_qa" style="stroke: #555555; stroke-width: 1.0;"/><polygon fill="#555555" points="2683.71,356.9669,2682.8358,347.1569,2681.2818,352.5961,2675.8426,351.042,2683.71,356.9669" style="stroke: #555555; stroke-width: 1.0;"/><text fill="#000000" font-family="Segoe UI" font-size="11" lengthAdjust="spacingAndGlyphs" textLength="51" x="2600" y="268.5073">validates</text><!--MD5=[3473de40ab6e9a7de54f081268e07e2a]
link r_prompt to rule_gp--><path d="M1606.51,400.4369 C1585.17,424.2769 1550.08,463.4569 1527.26,488.9369 " fill="none" id="r_prompt-&gt;rule_gp" style="stroke: #555555; stroke-width: 1.0;"/><polygon fill="#555555" points="1523.71,492.9069,1532.6876,488.8568,1527.0398,489.1769,1526.7197,483.5291,1523.71,492.9069" style="stroke: #555555; stroke-width: 1.0;"/><text fill="#000000" font-family="Segoe UI" font-size="11" lengthAdjust="spacingAndGlyphs" textLength="31" x="1576" y="443.5073">loads</text><!--MD5=[609819787109d1f2fe08016982d2642c]
link r_prompt to rule_as--><path d="M1629.78,400.4369 C1635.22,423.9769 1644.13,462.4869 1650.03,487.9869 " fill="none" id="r_prompt-&gt;rule_as" style="stroke: #555555; stroke-width: 1.0;"/><polygon fill="#555555" points="1651.17,492.9069,1653.0355,483.2363,1650.0415,488.0359,1645.242,485.0419,1651.17,492.9069" style="stroke: #555555; stroke-width: 1.0;"/><text fill="#000000" font-family="Segoe UI" font-size="11" lengthAdjust="spacingAndGlyphs" textLength="31" x="1640" y="443.5073">loads</text><!--MD5=[e41d1e416f3e60d1ff567d261bf5159c]
link r_r18 to rule_sd--><path d="M1805.54,400.4369 C1805.01,423.8769 1804.16,462.1669 1803.58,487.6669 " fill="none" id="r_r18-&gt;rule_sd" style="stroke: #555555; stroke-width: 1.0;"/><polygon fill="#555555" points="1803.47,492.9069,1807.6746,484.0006,1803.5843,487.9082,1799.6767,483.8178,1803.47,492.9069" style="stroke: #555555; stroke-width: 1.0;"/><text fill="#000000" font-family="Segoe UI" font-size="11" lengthAdjust="spacingAndGlyphs" textLength="31" x="1805" y="443.5073">loads</text><!--MD5=[34ea210432358f59b882163493ada5c5]
link r_qa to rule_hlg--><path d="M1972.31,400.4369 C1972.66,423.8769 1973.23,462.1669 1973.61,487.6669 " fill="none" id="r_qa-&gt;rule_hlg" style="stroke: #555555; stroke-width: 1.0;"/><polygon fill="#555555" points="1973.69,492.9069,1977.561,483.8507,1973.6186,487.9074,1969.5618,483.9649,1973.69,492.9069" style="stroke: #555555; stroke-width: 1.0;"/><text fill="#000000" font-family="Segoe UI" font-size="11" lengthAdjust="spacingAndGlyphs" textLength="31" x="1973" y="443.5073">loads</text><!--MD5=[91b511016ce0641191ae1b4456c24cf9]
link entry to orch--><path d="M1760,80.5669 C1760,104.7769 1760,140.1669 1760,165.8269 " fill="none" id="entry-&gt;orch" style="stroke: #555555; stroke-width: 1.0;"/><polygon fill="#555555" points="1760,171.1469,1764,162.1469,1760,166.1469,1756,162.1469,1760,171.1469" style="stroke: #555555; stroke-width: 1.0;"/><text fill="#000000" font-family="Segoe UI" font-size="11" lengthAdjust="spacingAndGlyphs" textLength="69" x="1761" y="121.5073">bash run.sh</text><!--MD5=[af6dab026fa0e7b3b205631dd65afc45]
link orch to prod_prose--><path d="M1847.77,201.9469 C2113.56,207.4869 2897.73,228.0369 3000,279.2969 C3031.64,295.1569 3056.15,328.7869 3070.32,352.3169 " fill="none" id="orch-&gt;prod_prose" style="stroke: #555555; stroke-width: 1.0; stroke-dasharray: 7.0,7.0;"/><polygon fill="#555555" points="3073.01,356.8769,3071.8861,347.0924,3070.4712,352.5694,3064.9941,351.1545,3073.01,356.8769" style="stroke: #555555; stroke-width: 1.0;"/><text fill="#000000" font-family="Segoe UI" font-size="11" lengthAdjust="spacingAndGlyphs" textLength="44" x="2968" y="268.5073">reviews</text><!--MD5=[d9ca79556e2e13da72609a5a050e3146]
link orch to prod_caption--><path d="M1847.74,201.1469 C2053.28,203.8169 2581.76,214.6169 3021,257.2969 C3086.75,263.6869 3111.48,245.1069 3168,279.2969 C3196.26,296.3869 3216.8,329.1969 3228.55,352.2369 " fill="none" id="orch-&gt;prod_caption" style="stroke: #555555; stroke-width: 1.0; stroke-dasharray: 7.0,7.0;"/><polygon fill="#555555" points="3230.92,356.9969,3230.4854,347.1576,3228.6897,352.5219,3223.3254,350.7262,3230.92,356.9969" style="stroke: #555555; stroke-width: 1.0;"/><text fill="#000000" font-family="Segoe UI" font-size="11" lengthAdjust="spacingAndGlyphs" textLength="44" x="3152" y="268.5073">reviews</text><!--MD5=[0b1ddf683d604d6e1426f15cdf3836f7]
@startuml LND_Studio_Developers
title Developers — Meta Layer (QA & Optimization)

skinparam {
  ComponentStyle uml2
  PackageStyle frame
  ArrowColor #555555
  defaultFontName "Segoe UI"
  defaultFontSize 11
  TitleFontSize 14
}

package "studio/developers/" as DEVS #FFCDD2 {

  component [orchestrator.py\n(Multi-AI Review Runner)] as orch #EF9A9A

  package "agents/" {
    component [BaseAgent] as base
    component [HermesAgent] as hermes
    component [ClaudeAgent] as claude
    component [MockAgent] as mock
    component [registry.py] as reg
  }

  package "config/" {
    component [mode_registry.yaml] as modes
    component [knowledge_index.json] as ki

    package "roles/" {
      component [se/m-architect] as r_arch
      component [dev/m-prompt-expert] as r_prompt
      component [dev/f-r18-expert] as r_r18
      component [qa/m-qa-gooner] as r_qa
    }

    package "templates/" {
      component [arch_review.md] as t_arch
      component [code_review.md] as t_code
    }

    package "dev/rules/" {
      component [gooner_principles] as rule_gp
      component [anti_slop] as rule_as
      component [sensory_density] as rule_sd
      component [hentai_logic_gate] as rule_hlg
      component [+12 more...] as rule_more
    }
  }

  package "schemas/" {
    component [ArchReviewOutput] as s_arch
    component [CodeReviewOutput] as s_code
    component [QAAuditOutput] as s_qa
  }

  component [mode_registry.py] as mode_py
}

hermes - -|> base
claude - -|> base
mock - -|> base

orch - -> reg : creates agents
orch - -> modes : loads modes
orch - -> mode_py : parses registry
orch - -> t_arch : renders prompt
orch - -> t_code : renders prompt
orch - -> s_arch : validates
orch - -> s_code : validates
orch - -> s_qa : validates

r_prompt - -> rule_gp : loads
r_prompt - -> rule_as : loads
r_r18 - -> rule_sd : loads
r_qa - -> rule_hlg : loads

component [axel-cowork\n(Entry Skill)] as entry #E8F5E9
entry - -> orch : bash run.sh

package "Production Output" as PROD #F3E5F5 {
  component [draft-prose.json] as prod_prose
  component [caption.json] as prod_caption
  component [forensic-state.json] as prod_forensic
}

orch ..> prod_prose : reviews
orch ..> prod_caption : reviews

@enduml

PlantUML version 1.2020.02(Sun Mar 01 17:22:07 ICT 2020)
(GPL source distribution)
Java Runtime: OpenJDK Runtime Environment
JVM: OpenJDK 64-Bit Server VM
Java Version: 21.0.10+7-Ubuntu-124.04
Operating System: Linux
Default Encoding: UTF-8
Language: en
Country: US
--></g></svg>