<?xml version="1.0" encoding="UTF-8" standalone="no"?><svg xmlns="http://www.w3.org/2000/svg" xmlns:xlink="http://www.w3.org/1999/xlink" contentScriptType="application/ecmascript" contentStyleType="text/css" height="587px" preserveAspectRatio="none" style="width:1866px;height:587px;" version="1.1" viewBox="0 0 1866 587" width="1866px" zoomAndPan="magnify"><defs><filter height="300%" id="fhlbrv9s1ked8" width="300%" x="-1" y="-1"><feGaussianBlur result="blurOut" stdDeviation="2.0"/><feColorMatrix in="blurOut" result="blurOut2" type="matrix" values="0 0 0 0 0 0 0 0 0 0 0 0 0 0 0 0 0 0 .4 0"/><feOffset dx="4.0" dy="4.0" in="blurOut2" result="blurOut3"/><feBlend in="SourceGraphic" in2="blurOut3" mode="normal"/></filter></defs><g><text fill="#000000" font-family="Segoe UI" font-size="14" lengthAdjust="spacingAndGlyphs" textLength="230" x="824" y="12.9951">Agents — Hierarchy &amp; Delegation</text><!--MD5=[4499c58aefeb8777a4ef8729a6b9746a]
cluster L1--><polygon fill="#E3F2FD" filter="url(#fhlbrv9s1ked8)" points="171,40.2969,320,40.2969,327,59.1016,335,59.1016,335,143.2969,171,143.2969,171,40.2969" style="stroke: #000000; stroke-width: 1.5;"/><line style="stroke: #000000; stroke-width: 1.5;" x1="171" x2="327" y1="59.1016" y2="59.1016"/><text fill="#000000" font-family="Segoe UI" font-size="11" font-weight="bold" lengthAdjust="spacingAndGlyphs" textLength="143" x="175" y="52.5073">Layer 1: Orchestration</text><!--MD5=[30107c386ad61863a1077fa9b8608265]
cluster L2--><polygon fill="#E3F2FD" filter="url(#fhlbrv9s1ked8)" points="287,189.2969,477,189.2969,484,208.1016,948,208.1016,948,439.2969,287,439.2969,287,189.2969" style="stroke: #000000; stroke-width: 1.5;"/><line style="stroke: #000000; stroke-width: 1.5;" x1="287" x2="484" y1="208.1016" y2="208.1016"/><text fill="#000000" font-family="Segoe UI" font-size="11" font-weight="bold" lengthAdjust="spacingAndGlyphs" textLength="184" x="291" y="201.5073">Layer 2: Specialists (Owned)</text><!--MD5=[0bbf592ff6b1fac458b0a84e9e1f711b]
cluster L2_EXT--><polygon fill="#E3F2FD" filter="url(#fhlbrv9s1ked8)" points="1335,336.2969,1566,336.2969,1573,355.1016,1825,355.1016,1825,439.2969,1335,439.2969,1335,336.2969" style="stroke: #000000; stroke-width: 1.5;"/><line style="stroke: #000000; stroke-width: 1.5;" x1="1335" x2="1573" y1="355.1016" y2="355.1016"/><text fill="#000000" font-family="Segoe UI" font-size="11" font-weight="bold" lengthAdjust="spacingAndGlyphs" textLength="225" x="1339" y="348.5073">Layer 2: Extended (Project-scoped)</text><!--MD5=[28b4bb1de2600daddc5f3273393fbecc]
cluster SKILLS--><polygon fill="#F3E5F5" filter="url(#fhlbrv9s1ked8)" points="169,485.2969,261,485.2969,268,504.1016,1844,504.1016,1844,575.2969,169,575.2969,169,485.2969" style="stroke: #000000; stroke-width: 1.5;"/><line style="stroke: #000000; stroke-width: 1.5;" x1="169" x2="268" y1="504.1016" y2="504.1016"/><text fill="#000000" font-family="Segoe UI" font-size="11" font-weight="bold" lengthAdjust="spacingAndGlyphs" textLength="86" x="173" y="497.5073">Primary Skills</text><!--MD5=[325b68dfaba4fb4a4b95c30b1b266da0]
entity director--><rect fill="#90CAF9" filter="url(#fhlbrv9s1ked8)" height="55.6094" style="stroke: #A80036; stroke-width: 1.5;" width="132" x="187" y="71.2969"/><rect fill="#90CAF9" height="10" style="stroke: #A80036; stroke-width: 1.5;" width="15" x="299" y="76.2969"/><rect fill="#90CAF9" height="2" style="stroke: #A80036; stroke-width: 1.5;" width="4" x="297" y="78.2969"/><rect fill="#90CAF9" height="2" style="stroke: #A80036; stroke-width: 1.5;" width="4" x="297" y="82.2969"/><text fill="#000000" font-family="Segoe UI" font-size="11" lengthAdjust="spacingAndGlyphs" textLength="71" x="202" y="101.5073">&#127916; Director K</text><text fill="#000000" font-family="Segoe UI" font-size="11" lengthAdjust="spacingAndGlyphs" textLength="92" x="202" y="114.312">lnd-orchestrator</text><!--MD5=[93ed8e5eefc815581e555587b2d65d96]
entity kana--><rect fill="#BBDEFB" filter="url(#fhlbrv9s1ked8)" height="55.6094" style="stroke: #A80036; stroke-width: 1.5;" width="127" x="303.5" y="367.2969"/><rect fill="#BBDEFB" height="10" style="stroke: #A80036; stroke-width: 1.5;" width="15" x="410.5" y="372.2969"/><rect fill="#BBDEFB" height="2" style="stroke: #A80036; stroke-width: 1.5;" width="4" x="408.5" y="374.2969"/><rect fill="#BBDEFB" height="2" style="stroke: #A80036; stroke-width: 1.5;" width="4" x="408.5" y="378.2969"/><text fill="#000000" font-family="Segoe UI" font-size="11" lengthAdjust="spacingAndGlyphs" textLength="43" x="318.5" y="397.5073">&#128444;️ Kana</text><text fill="#000000" font-family="Segoe UI" font-size="11" lengthAdjust="spacingAndGlyphs" textLength="87" x="318.5" y="410.312">manga-adapter</text><!--MD5=[f0539db5219add81ae122f83eb989005]
entity suki--><rect fill="#BBDEFB" filter="url(#fhlbrv9s1ked8)" height="55.6094" style="stroke: #A80036; stroke-width: 1.5;" width="103" x="465.5" y="367.2969"/><rect fill="#BBDEFB" height="10" style="stroke: #A80036; stroke-width: 1.5;" width="15" x="548.5" y="372.2969"/><rect fill="#BBDEFB" height="2" style="stroke: #A80036; stroke-width: 1.5;" width="4" x="546.5" y="374.2969"/><rect fill="#BBDEFB" height="2" style="stroke: #A80036; stroke-width: 1.5;" width="4" x="546.5" y="378.2969"/><text fill="#000000" font-family="Segoe UI" font-size="11" lengthAdjust="spacingAndGlyphs" textLength="39" x="480.5" y="397.5073">&#128395;️ Suki</text><text fill="#000000" font-family="Segoe UI" font-size="11" lengthAdjust="spacingAndGlyphs" textLength="63" x="480.5" y="410.312">lewd-writer</text><!--MD5=[ab2074a7e00cc85229a46fed290f78cd]
entity luna--><rect fill="#BBDEFB" filter="url(#fhlbrv9s1ked8)" height="55.6094" style="stroke: #A80036; stroke-width: 1.5;" width="116" x="604" y="367.2969"/><rect fill="#BBDEFB" height="10" style="stroke: #A80036; stroke-width: 1.5;" width="15" x="700" y="372.2969"/><rect fill="#BBDEFB" height="2" style="stroke: #A80036; stroke-width: 1.5;" width="4" x="698" y="374.2969"/><rect fill="#BBDEFB" height="2" style="stroke: #A80036; stroke-width: 1.5;" width="4" x="698" y="378.2969"/><text fill="#000000" font-family="Segoe UI" font-size="11" lengthAdjust="spacingAndGlyphs" textLength="42" x="619" y="397.5073">&#127757; Luna</text><text fill="#000000" font-family="Segoe UI" font-size="11" lengthAdjust="spacingAndGlyphs" textLength="76" x="619" y="410.312">world-weaver</text><!--MD5=[5460ca520befd94aafcb4a05392b9996]
entity riko--><rect fill="#BBDEFB" filter="url(#fhlbrv9s1ked8)" height="55.6094" style="stroke: #A80036; stroke-width: 1.5;" width="117" x="467.5" y="220.2969"/><rect fill="#BBDEFB" height="10" style="stroke: #A80036; stroke-width: 1.5;" width="15" x="564.5" y="225.2969"/><rect fill="#BBDEFB" height="2" style="stroke: #A80036; stroke-width: 1.5;" width="4" x="562.5" y="227.2969"/><rect fill="#BBDEFB" height="2" style="stroke: #A80036; stroke-width: 1.5;" width="4" x="562.5" y="231.2969"/><text fill="#000000" font-family="Segoe UI" font-size="11" lengthAdjust="spacingAndGlyphs" textLength="38" x="482.5" y="250.5073">&#128737;️ Riko</text><text fill="#000000" font-family="Segoe UI" font-size="11" lengthAdjust="spacingAndGlyphs" textLength="77" x="482.5" y="263.312">gooner-editor</text><!--MD5=[15b8e80b15748dc2916f2dbd09b1f9b8]
entity aria--><rect fill="#BBDEFB" filter="url(#fhlbrv9s1ked8)" height="55.6094" style="stroke: #A80036; stroke-width: 1.5;" width="147" x="619.5" y="220.2969"/><rect fill="#BBDEFB" height="10" style="stroke: #A80036; stroke-width: 1.5;" width="15" x="746.5" y="225.2969"/><rect fill="#BBDEFB" height="2" style="stroke: #A80036; stroke-width: 1.5;" width="4" x="744.5" y="227.2969"/><rect fill="#BBDEFB" height="2" style="stroke: #A80036; stroke-width: 1.5;" width="4" x="744.5" y="231.2969"/><text fill="#000000" font-family="Segoe UI" font-size="11" lengthAdjust="spacingAndGlyphs" textLength="37" x="634.5" y="250.5073">&#128100; Aria</text><text fill="#000000" font-family="Segoe UI" font-size="11" lengthAdjust="spacingAndGlyphs" textLength="107" x="634.5" y="263.312">character-architect</text><!--MD5=[ba09ec502e93b5aa155267717cdd454f]
entity miki--><rect fill="#BBDEFB" filter="url(#fhlbrv9s1ked8)" height="55.6094" style="stroke: #A80036; stroke-width: 1.5;" width="130" x="802" y="220.2969"/><rect fill="#BBDEFB" height="10" style="stroke: #A80036; stroke-width: 1.5;" width="15" x="912" y="225.2969"/><rect fill="#BBDEFB" height="2" style="stroke: #A80036; stroke-width: 1.5;" width="4" x="910" y="227.2969"/><rect fill="#BBDEFB" height="2" style="stroke: #A80036; stroke-width: 1.5;" width="4" x="910" y="231.2969"/><text fill="#000000" font-family="Segoe UI" font-size="11" lengthAdjust="spacingAndGlyphs" textLength="36" x="817" y="250.5073">&#128172; Miki</text><text fill="#000000" font-family="Segoe UI" font-size="11" lengthAdjust="spacingAndGlyphs" textLength="90" x="817" y="263.312">dialogue-crafter</text><!--MD5=[b3d47a8ff3d4bdcb373e80037aca03b2]
entity nova--><rect fill="#BBDEFB" filter="url(#fhlbrv9s1ked8)" height="55.6094" style="stroke: #A80036; stroke-width: 1.5;" width="129" x="303.5" y="220.2969"/><rect fill="#BBDEFB" height="10" style="stroke: #A80036; stroke-width: 1.5;" width="15" x="412.5" y="225.2969"/><rect fill="#BBDEFB" height="2" style="stroke: #A80036; stroke-width: 1.5;" width="4" x="410.5" y="227.2969"/><rect fill="#BBDEFB" height="2" style="stroke: #A80036; stroke-width: 1.5;" width="4" x="410.5" y="231.2969"/><text fill="#000000" font-family="Segoe UI" font-size="11" lengthAdjust="spacingAndGlyphs" textLength="43" x="318.5" y="250.5073">&#128248; Nova</text><text fill="#000000" font-family="Segoe UI" font-size="11" lengthAdjust="spacingAndGlyphs" textLength="89" x="318.5" y="263.312">erotic-captioner</text><!--MD5=[390ad3006077a5ef0c81724eb2c1d8d0]
entity yua--><rect fill="#BBDEFB" filter="url(#fhlbrv9s1ked8)" height="55.6094" style="stroke: #A80036; stroke-width: 1.5;" width="118" x="1691" y="367.2969"/><rect fill="#BBDEFB" height="10" style="stroke: #A80036; stroke-width: 1.5;" width="15" x="1789" y="372.2969"/><rect fill="#BBDEFB" height="2" style="stroke: #A80036; stroke-width: 1.5;" width="4" x="1787" y="374.2969"/><rect fill="#BBDEFB" height="2" style="stroke: #A80036; stroke-width: 1.5;" width="4" x="1787" y="378.2969"/><text fill="#000000" font-family="Segoe UI" font-size="11" lengthAdjust="spacingAndGlyphs" textLength="36" x="1706" y="397.5073">&#127917; Yua</text><text fill="#000000" font-family="Segoe UI" font-size="11" lengthAdjust="spacingAndGlyphs" textLength="78" x="1706" y="410.312">roleplay-actor</text><!--MD5=[303127413e2ae8cbfed8621016f04039]
entity pixel--><rect fill="#BBDEFB" filter="url(#fhlbrv9s1ked8)" height="55.6094" style="stroke: #A80036; stroke-width: 1.5;" width="141" x="1514.5" y="367.2969"/><rect fill="#BBDEFB" height="10" style="stroke: #A80036; stroke-width: 1.5;" width="15" x="1635.5" y="372.2969"/><rect fill="#BBDEFB" height="2" style="stroke: #A80036; stroke-width: 1.5;" width="4" x="1633.5" y="374.2969"/><rect fill="#BBDEFB" height="2" style="stroke: #A80036; stroke-width: 1.5;" width="4" x="1633.5" y="378.2969"/><text fill="#000000" font-family="Segoe UI" font-size="11" lengthAdjust="spacingAndGlyphs" textLength="41" x="1529.5" y="397.5073">&#127912; Pixel</text><text fill="#000000" font-family="Segoe UI" font-size="11" lengthAdjust="spacingAndGlyphs" textLength="101" x="1529.5" y="410.312">comfyui-prompter</text><!--MD5=[59aada18e079f6681646d3018f0144c9]
entity re_spec--><rect fill="#BBDEFB" filter="url(#fhlbrv9s1ked8)" height="42.8047" style="stroke: #A80036; stroke-width: 1.5;" width="128" x="1351" y="373.7969"/><rect fill="#BBDEFB" height="10" style="stroke: #A80036; stroke-width: 1.5;" width="15" x="1459" y="378.7969"/><rect fill="#BBDEFB" height="2" style="stroke: #A80036; stroke-width: 1.5;" width="4" x="1457" y="380.7969"/><rect fill="#BBDEFB" height="2" style="stroke: #A80036; stroke-width: 1.5;" width="4" x="1457" y="384.7969"/><text fill="#000000" font-family="Segoe UI" font-size="11" lengthAdjust="spacingAndGlyphs" textLength="88" x="1366" y="404.0073">&#128269; RE Specialist</text><!--MD5=[b5820da9d7622f9e3b74db8185d567f8]
entity sk_forensic--><rect fill="#FEFECE" filter="url(#fhlbrv9s1ked8)" height="42.8047" style="stroke: #A80036; stroke-width: 1.5;" width="150" x="185" y="516.2969"/><rect fill="#FEFECE" height="10" style="stroke: #A80036; stroke-width: 1.5;" width="15" x="315" y="521.2969"/><rect fill="#FEFECE" height="2" style="stroke: #A80036; stroke-width: 1.5;" width="4" x="313" y="523.2969"/><rect fill="#FEFECE" height="2" style="stroke: #A80036; stroke-width: 1.5;" width="4" x="313" y="527.2969"/><text fill="#000000" font-family="Segoe UI" font-size="11" lengthAdjust="spacingAndGlyphs" textLength="110" x="200" y="546.5073">core/panel-forensic</text><!--MD5=[51d6f7ce12e783645d7107dd58b76133]
entity sk_lewd--><rect fill="#FEFECE" filter="url(#fhlbrv9s1ked8)" height="42.8047" style="stroke: #A80036; stroke-width: 1.5;" width="132" x="370" y="516.2969"/><rect fill="#FEFECE" height="10" style="stroke: #A80036; stroke-width: 1.5;" width="15" x="482" y="521.2969"/><rect fill="#FEFECE" height="2" style="stroke: #A80036; stroke-width: 1.5;" width="4" x="480" y="523.2969"/><rect fill="#FEFECE" height="2" style="stroke: #A80036; stroke-width: 1.5;" width="4" x="480" y="527.2969"/><text fill="#000000" font-family="Segoe UI" font-size="11" lengthAdjust="spacingAndGlyphs" textLength="92" x="385" y="546.5073">core/lewd-writer</text><!--MD5=[580e77db8c0dc64a852212b115cc61c8]
entity sk_prelude--><rect fill="#FEFECE" filter="url(#fhlbrv9s1ked8)" height="42.8047" style="stroke: #A80036; stroke-width: 1.5;" width="150" x="537" y="516.2969"/><rect fill="#FEFECE" height="10" style="stroke: #A80036; stroke-width: 1.5;" width="15" x="667" y="521.2969"/><rect fill="#FEFECE" height="2" style="stroke: #A80036; stroke-width: 1.5;" width="4" x="665" y="523.2969"/><rect fill="#FEFECE" height="2" style="stroke: #A80036; stroke-width: 1.5;" width="4" x="665" y="527.2969"/><text fill="#000000" font-family="Segoe UI" font-size="11" lengthAdjust="spacingAndGlyphs" textLength="110" x="552" y="546.5073">core/scene-prelude</text><!--MD5=[ffa6e39693872bfec629fdd5e5a7cf10]
entity sk_rp--><rect fill="#FEFECE" filter="url(#fhlbrv9s1ked8)" height="42.8047" style="stroke: #A80036; stroke-width: 1.5;" width="156" x="1672" y="516.2969"/><rect fill="#FEFECE" height="10" style="stroke: #A80036; stroke-width: 1.5;" width="15" x="1808" y="521.2969"/><rect fill="#FEFECE" height="2" style="stroke: #A80036; stroke-width: 1.5;" width="4" x="1806" y="523.2969"/><rect fill="#FEFECE" height="2" style="stroke: #A80036; stroke-width: 1.5;" width="4" x="1806" y="527.2969"/><text fill="#000000" font-family="Segoe UI" font-size="11" lengthAdjust="spacingAndGlyphs" textLength="116" x="1687" y="546.5073">core/roleplay-engine</text><!--MD5=[5776de1ee37ee7bfd2af3aace0d03966]
entity sk_char--><rect fill="#FEFECE" filter="url(#fhlbrv9s1ked8)" height="42.8047" style="stroke: #A80036; stroke-width: 1.5;" width="189" x="1219.5" y="516.2969"/><rect fill="#FEFECE" height="10" style="stroke: #A80036; stroke-width: 1.5;" width="15" x="1388.5" y="521.2969"/><rect fill="#FEFECE" height="2" style="stroke: #A80036; stroke-width: 1.5;" width="4" x="1386.5" y="523.2969"/><rect fill="#FEFECE" height="2" style="stroke: #A80036; stroke-width: 1.5;" width="4" x="1386.5" y="527.2969"/><text fill="#000000" font-family="Segoe UI" font-size="11" lengthAdjust="spacingAndGlyphs" textLength="149" x="1234.5" y="546.5073">services/character-builder</text><!--MD5=[4bb09e54dfa58f7053ce7e3df2ecf4ff]
entity sk_dialog--><rect fill="#FEFECE" filter="url(#fhlbrv9s1ked8)" height="42.8047" style="stroke: #A80036; stroke-width: 1.5;" width="193" x="1443.5" y="516.2969"/><rect fill="#FEFECE" height="10" style="stroke: #A80036; stroke-width: 1.5;" width="15" x="1616.5" y="521.2969"/><rect fill="#FEFECE" height="2" style="stroke: #A80036; stroke-width: 1.5;" width="4" x="1614.5" y="523.2969"/><rect fill="#FEFECE" height="2" style="stroke: #A80036; stroke-width: 1.5;" width="4" x="1614.5" y="527.2969"/><text fill="#000000" font-family="Segoe UI" font-size="11" lengthAdjust="spacingAndGlyphs" textLength="153" x="1458.5" y="546.5073">services/dialogue-scripting</text><!--MD5=[90aaa50ace81eb2cfd510e709f5e9376]
entity sk_ec--><rect fill="#FEFECE" filter="url(#fhlbrv9s1ked8)" height="42.8047" style="stroke: #A80036; stroke-width: 1.5;" width="220" x="722" y="516.2969"/><rect fill="#FEFECE" height="10" style="stroke: #A80036; stroke-width: 1.5;" width="15" x="922" y="521.2969"/><rect fill="#FEFECE" height="2" style="stroke: #A80036; stroke-width: 1.5;" width="4" x="920" y="523.2969"/><rect fill="#FEFECE" height="2" style="stroke: #A80036; stroke-width: 1.5;" width="4" x="920" y="527.2969"/><text fill="#000000" font-family="Segoe UI" font-size="11" lengthAdjust="spacingAndGlyphs" textLength="180" x="737" y="546.5073">services/erotic-image-captioner</text><!--MD5=[87093547e9554bfc7a87b3fcccca59df]
entity sk_audit--><rect fill="#FEFECE" filter="url(#fhlbrv9s1ked8)" height="42.8047" style="stroke: #A80036; stroke-width: 1.5;" width="207" x="977.5" y="516.2969"/><rect fill="#FEFECE" height="10" style="stroke: #A80036; stroke-width: 1.5;" width="15" x="1164.5" y="521.2969"/><rect fill="#FEFECE" height="2" style="stroke: #A80036; stroke-width: 1.5;" width="4" x="1162.5" y="523.2969"/><rect fill="#FEFECE" height="2" style="stroke: #A80036; stroke-width: 1.5;" width="4" x="1162.5" y="527.2969"/><text fill="#000000" font-family="Segoe UI" font-size="11" lengthAdjust="spacingAndGlyphs" textLength="167" x="992.5" y="546.5073">modules/gooner-audit-engine</text><!--MD5=[af4a04b08d7e2640decdb0f7e99f09f2]
entity protocol--><rect fill="#F5F5F5" filter="url(#fhlbrv9s1ked8)" height="42.8047" style="stroke: #A80036; stroke-width: 1.5;" width="144" x="6" y="516.2969"/><rect fill="#F5F5F5" height="10" style="stroke: #A80036; stroke-width: 1.5;" width="15" x="130" y="521.2969"/><rect fill="#F5F5F5" height="2" style="stroke: #A80036; stroke-width: 1.5;" width="4" x="128" y="523.2969"/><rect fill="#F5F5F5" height="2" style="stroke: #A80036; stroke-width: 1.5;" width="4" x="128" y="527.2969"/><text fill="#000000" font-family="Segoe UI" font-size="11" lengthAdjust="spacingAndGlyphs" textLength="104" x="21" y="546.5073">agent-protocol.md</text><!--MD5=[aff0e67a1692f4b0d96c087fa0872bfd]
entity registry--><rect fill="#F5F5F5" filter="url(#fhlbrv9s1ked8)" height="42.8047" style="stroke: #A80036; stroke-width: 1.5;" width="151" x="354.5" y="77.7969"/><rect fill="#F5F5F5" height="10" style="stroke: #A80036; stroke-width: 1.5;" width="15" x="485.5" y="82.7969"/><rect fill="#F5F5F5" height="2" style="stroke: #A80036; stroke-width: 1.5;" width="4" x="483.5" y="84.7969"/><rect fill="#F5F5F5" height="2" style="stroke: #A80036; stroke-width: 1.5;" width="4" x="483.5" y="88.7969"/><text fill="#000000" font-family="Segoe UI" font-size="11" lengthAdjust="spacingAndGlyphs" textLength="111" x="369.5" y="108.0073">agent-registry.yaml</text><!--MD5=[83ec937a05e66710d8ce601ff2f4ad93]
link director to kana--><path d="M186.7,108.6969 C142.18,118.1969 86.76,138.3969 59,181.2969 C36.06,216.7469 41.8,237.7369 59,276.2969 C98.43,364.6969 220.08,387.8069 298.17,393.2969 " fill="none" id="director-&gt;kana" style="stroke: #555555; stroke-width: 1.0;"/><polygon fill="#555555" points="303.25,393.6369,294.5317,389.0553,298.2608,393.309,294.0071,397.0381,303.25,393.6369" style="stroke: #555555; stroke-width: 1.0;"/><text fill="#000000" font-family="Segoe UI" font-size="11" lengthAdjust="spacingAndGlyphs" textLength="30" x="60" y="252.5073">owns</text><!--MD5=[882c7e92abf3c3fe3bea688463d71736]
link director to suki--><path d="M208.22,127.3669 C189.99,141.0369 170.9,159.3869 161,181.2969 C143.61,219.7769 143.8,237.7369 161,276.2969 C172.92,303.0269 182.85,309.3669 210,320.2969 C259.09,340.0569 399.23,307.7669 448,328.2969 C465.58,335.6969 481.3,349.7869 493.28,363.0469 " fill="none" id="director-&gt;suki" style="stroke: #555555; stroke-width: 1.0;"/><polygon fill="#555555" points="496.88,367.1269,493.9461,357.7252,493.5804,363.3702,487.9354,363.0045,496.88,367.1269" style="stroke: #555555; stroke-width: 1.0;"/><text fill="#000000" font-family="Segoe UI" font-size="11" lengthAdjust="spacingAndGlyphs" textLength="30" x="162" y="252.5073">owns</text><!--MD5=[fd169b04ec3a112a9ee2b581b57df58c]
link director to luna--><path d="M244.63,127.3969 C234.96,164.4169 223.92,231.3469 254,276.2969 C282.14,318.3469 309.58,309.4469 359,320.2969 C408.3,331.1169 539.03,309.7969 586,328.2969 C604.88,335.7269 622.26,349.9969 635.62,363.3669 " fill="none" id="director-&gt;luna" style="stroke: #555555; stroke-width: 1.0;"/><polygon fill="#555555" points="639.29,367.1069,635.8475,357.8792,635.7904,363.5358,630.1338,363.4787,639.29,367.1069" style="stroke: #555555; stroke-width: 1.0;"/><text fill="#000000" font-family="Segoe UI" font-size="11" lengthAdjust="spacingAndGlyphs" textLength="30" x="255" y="252.5073">owns</text><!--MD5=[4bad3f325de64cab2c4359de9b9de0c5]
link director to riko--><path d="M292.34,127.3769 C306.03,135.9169 321.77,144.8169 337,151.2969 C384.81,171.6569 404.09,156.9669 450,181.2969 C467.22,190.4169 483.86,204.1169 497.15,216.6769 " fill="none" id="director-&gt;riko" style="stroke: #555555; stroke-width: 1.0;"/><polygon fill="#555555" points="500.81,220.1869,497.0899,211.0676,497.2039,216.7233,491.5482,216.8374,500.81,220.1869" style="stroke: #555555; stroke-width: 1.0;"/><text fill="#000000" font-family="Segoe UI" font-size="11" lengthAdjust="spacingAndGlyphs" textLength="30" x="433" y="170.5073">owns</text><!--MD5=[754d0d41df38fa3744cfaabc013b6165]
link director to aria--><path d="M289.17,127.5669 C303.35,136.7869 320.22,146.0669 337,151.2969 C365.69,160.2469 442.14,155.8969 472,159.2969 C530.22,165.9269 547.97,158.6069 602,181.2969 C622.57,189.9369 642.91,204.0169 659.13,216.9569 " fill="none" id="director-&gt;aria" style="stroke: #555555; stroke-width: 1.0;"/><polygon fill="#555555" points="663.16,220.2269,658.6779,211.457,659.2724,217.0825,653.6469,217.6771,663.16,220.2269" style="stroke: #555555; stroke-width: 1.0;"/><text fill="#000000" font-family="Segoe UI" font-size="11" lengthAdjust="spacingAndGlyphs" textLength="30" x="579" y="170.5073">owns</text><!--MD5=[aa7949aebcce190d454072305f814f7c]
link director to miki--><path d="M288.27,127.3069 C302.6,136.7369 319.82,146.2269 337,151.2969 C366.96,160.1369 586.87,156.7969 618,159.2969 C692.18,165.2569 715.5,152.1969 784,181.2969 C803.36,189.5269 821.97,203.5569 836.65,216.5669 " fill="none" id="director-&gt;miki" style="stroke: #555555; stroke-width: 1.0;"/><polygon fill="#555555" points="840.68,220.2069,836.6662,211.213,836.9635,216.8621,831.3145,217.1594,840.68,220.2069" style="stroke: #555555; stroke-width: 1.0;"/><text fill="#000000" font-family="Segoe UI" font-size="11" lengthAdjust="spacingAndGlyphs" textLength="30" x="762" y="170.5073">owns</text><!--MD5=[d027ad4ecf63fc33fc56970398cccc49]
link director to nova--><path d="M274.36,127.6069 C293.97,152.6669 323,189.7769 343.53,216.0269 " fill="none" id="director-&gt;nova" style="stroke: #555555; stroke-width: 1.0;"/><polygon fill="#555555" points="346.75,220.1369,344.3532,210.5841,343.6685,216.1993,338.0532,215.5146,346.75,220.1369" style="stroke: #555555; stroke-width: 1.0;"/><text fill="#000000" font-family="Segoe UI" font-size="11" lengthAdjust="spacingAndGlyphs" textLength="30" x="308" y="170.5073">owns</text><!--MD5=[4144cf8bc635543fbae26679aa9e9553]
link nova to kana--><path d="M367.81,276.5669 C367.64,300.7769 367.4,336.1669 367.22,361.8269 " fill="none" id="nova-&gt;kana" style="stroke: #555555; stroke-width: 1.0;"/><polygon fill="#555555" points="367.19,367.1469,371.2414,358.1699,367.2186,362.147,363.2415,358.1242,367.19,367.1469" style="stroke: #555555; stroke-width: 1.0;"/><text fill="#000000" font-family="Segoe UI" font-size="11" lengthAdjust="spacingAndGlyphs" textLength="46" x="368" y="317.5073">forensic</text><!--MD5=[3fabeb63e3de1ff51b1c9ec23fcfbebd]
link nova to luna--><path d="M432.51,271.3369 C491.7,291.7669 572.23,320.1969 586,328.2969 C602.53,338.0069 618.84,351.5169 632.09,363.7769 " fill="none" id="nova-&gt;luna" style="stroke: #555555; stroke-width: 1.0;"/><polygon fill="#555555" points="635.75,367.2069,631.9199,358.1333,632.1023,363.7872,626.4484,363.9696,635.75,367.2069" style="stroke: #555555; stroke-width: 1.0;"/><text fill="#000000" font-family="Segoe UI" font-size="11" lengthAdjust="spacingAndGlyphs" textLength="43" x="568" y="317.5073">prelude</text><!--MD5=[6a8b5ccd5f16644c1011d9a02bffab63]
link nova to suki--><path d="M396.03,276.5669 C421.42,301.2769 458.8,337.6569 485.28,363.4269 " fill="none" id="nova-&gt;suki" style="stroke: #555555; stroke-width: 1.0;"/><polygon fill="#555555" points="489.1,367.1469,485.4348,358.0054,485.5148,363.6617,479.8585,363.7417,489.1,367.1469" style="stroke: #555555; stroke-width: 1.0;"/><text fill="#000000" font-family="Segoe UI" font-size="11" lengthAdjust="spacingAndGlyphs" textLength="41" x="439" y="317.5073">caption</text><!--MD5=[5f6feb3636aa4751fae069435915c273]
link kana to sk_forensic--><path d="M346.37,423.3869 C326.85,449.0169 297.8,487.1569 278.88,512.0069 " fill="none" id="kana-&gt;sk_forensic" style="stroke: #555555; stroke-width: 1.0;"/><polygon fill="#555555" points="275.7,516.1769,284.3382,511.4459,278.7319,512.201,277.9768,506.5948,275.7,516.1769" style="stroke: #555555; stroke-width: 1.0;"/><!--MD5=[060bbfc452ad0867198d085208e30112]
link suki to sk_lewd--><path d="M501.38,423.3869 C486.67,448.9069 464.8,486.8469 450.47,511.6969 " fill="none" id="suki-&gt;sk_lewd" style="stroke: #555555; stroke-width: 1.0;"/><polygon fill="#555555" points="447.89,516.1769,455.8406,510.3642,450.3799,511.841,448.9031,506.3803,447.89,516.1769" style="stroke: #555555; stroke-width: 1.0;"/><!--MD5=[5971356ac5b4b4c255f1508b3bc88257]
link luna to sk_prelude--><path d="M652.36,423.3869 C643.31,448.8069 629.89,486.5269 621.04,511.3869 " fill="none" id="luna-&gt;sk_prelude" style="stroke: #555555; stroke-width: 1.0;"/><polygon fill="#555555" points="619.34,516.1769,626.1436,509.0557,621.028,511.4704,618.6133,506.3549,619.34,516.1769" style="stroke: #555555; stroke-width: 1.0;"/><!--MD5=[3b8fca619e06b3cb4de4284f8e9826fb]
link riko to sk_audit--><path d="M584.68,270.9769 C590.5,272.8769 596.34,274.6869 602,276.2969 C662.36,293.5069 679.68,288.9469 740,306.2969 C767.7,314.2669 775.61,314.6569 801,328.2969 C902,382.5669 1006.63,470.4969 1054.37,512.6869 " fill="none" id="riko-&gt;sk_audit" style="stroke: #555555; stroke-width: 1.0;"/><polygon fill="#555555" points="1058.26,516.1369,1054.1738,507.1757,1054.5167,512.8222,1048.8702,513.1651,1058.26,516.1369" style="stroke: #555555; stroke-width: 1.0;"/><!--MD5=[92a883b307f11ffb8584c7bfcf91beb1]
link aria to sk_char--><path d="M766.52,272.9969 C809.72,287.5869 865.09,307.4469 913,328.2969 C1045.51,385.9469 1073.97,410.2869 1202,477.2969 C1224.76,489.2069 1250.04,502.6269 1270.81,513.6969 " fill="none" id="aria-&gt;sk_char" style="stroke: #555555; stroke-width: 1.0;"/><polygon fill="#555555" points="1275.45,516.1669,1269.3951,508.3991,1271.0394,513.8117,1265.6268,515.456,1275.45,516.1669" style="stroke: #555555; stroke-width: 1.0;"/><!--MD5=[659d286bde0af2d7bc0b2ce06874e334]
link miki to sk_dialog--><path d="M931.85,276.4669 C968.09,291.6769 1014.07,310.9969 1055,328.2969 C1179.55,380.9369 1208.46,399.6469 1335,447.2969 C1374.85,462.3069 1386.77,460.7269 1426,477.2969 C1451.15,487.9269 1478.29,501.9769 1499.78,513.7569 " fill="none" id="miki-&gt;sk_dialog" style="stroke: #555555; stroke-width: 1.0;"/><polygon fill="#555555" points="1504.27,516.2369,1498.3147,508.3925,1499.8898,513.8256,1494.4567,515.4008,1504.27,516.2369" style="stroke: #555555; stroke-width: 1.0;"/><!--MD5=[c5ef42858c1bdea62a2f72a0120dcb77]
link nova to sk_ec--><path d="M432.65,271.5369 C438.49,273.2569 444.33,274.8669 450,276.2969 C576.14,308.0169 635.71,247.9569 738,328.2969 C797.08,374.6969 820.18,466.4069 828.21,511.0969 " fill="none" id="nova-&gt;sk_ec" style="stroke: #555555; stroke-width: 1.0;"/><polygon fill="#555555" points="829.07,516.0569,831.4688,506.5046,828.2133,511.1308,823.5871,507.8753,829.07,516.0569" style="stroke: #555555; stroke-width: 1.0;"/><!--MD5=[44e098439e0c9d7512a54595d8a45daf]
link yua to sk_rp--><path d="M1750,423.3869 C1750,448.6969 1750,486.2169 1750,511.0769 " fill="none" id="yua-&gt;sk_rp" style="stroke: #555555; stroke-width: 1.0;"/><polygon fill="#555555" points="1750,516.1769,1754,507.1769,1750,511.1769,1746,507.1769,1750,516.1769" style="stroke: #555555; stroke-width: 1.0;"/><!--MD5=[270b653fdead5c9b51adc97abe1b9445]
link director to protocol--><path d="M186.75,101.9469 C132.55,107.4669 60.92,125.5969 36,181.2969 C-15.22,295.7969 40.43,450.7169 66.27,511.1569 " fill="none" id="director-&gt;protocol" style="stroke: #555555; stroke-width: 1.0; stroke-dasharray: 7.0,7.0;"/><polygon fill="#555555" points="68.38,516.0269,68.4743,506.1785,66.3932,511.4386,61.1331,509.3574,68.38,516.0269" style="stroke: #555555; stroke-width: 1.0;"/><text fill="#000000" font-family="Segoe UI" font-size="11" lengthAdjust="spacingAndGlyphs" textLength="40" x="18" y="317.5073">follows</text><!--MD5=[d32bcd07813e6e6adcc38c5a4bb781fd]
link kana to protocol--><path d="M303.44,399.7969 C252.95,405.3269 182.65,419.4569 132,455.2969 C112.07,469.3969 97.49,493.3769 88.54,511.6869 " fill="none" id="kana-&gt;protocol" style="stroke: #555555; stroke-width: 1.0; stroke-dasharray: 7.0,7.0;"/><polygon fill="#555555" points="86.39,516.2069,93.8795,509.811,88.5458,511.6955,86.6613,506.3618,86.39,516.2069" style="stroke: #555555; stroke-width: 1.0;"/><text fill="#000000" font-family="Segoe UI" font-size="11" lengthAdjust="spacingAndGlyphs" textLength="40" x="133" y="466.5073">follows</text><!--MD5=[02a7d27d594e2d0e477b8c14850653d0]
link suki to protocol--><path d="M487.5,423.4669 C475.99,432.5569 462.16,441.7769 448,447.2969 C331.81,492.6069 286.45,435.3469 169,477.2969 C146.39,485.3769 123.77,500.1169 106.75,512.9069 " fill="none" id="suki-&gt;protocol" style="stroke: #555555; stroke-width: 1.0; stroke-dasharray: 7.0,7.0;"/><polygon fill="#555555" points="102.54,516.1069,112.126,513.8466,106.5211,513.0818,107.2859,507.4769,102.54,516.1069" style="stroke: #555555; stroke-width: 1.0;"/><text fill="#000000" font-family="Segoe UI" font-size="11" lengthAdjust="spacingAndGlyphs" textLength="40" x="422" y="466.5073">follows</text><!--MD5=[8a62be7c8897b27f4112a6d7b7cf4d60]
@startuml LND_Studio_Agents
title Agents — Hierarchy & Delegation

skinparam {
  ComponentStyle uml2
  PackageStyle frame
  ArrowColor #555555
  defaultFontName "Segoe UI"
  defaultFontSize 11
  TitleFontSize 14
}

package "Layer 1: Orchestration" as L1 #E3F2FD {
  component [🎬 Director K\nlnd-orchestrator] as director #90CAF9
}

package "Layer 2: Specialists (Owned)" as L2 #E3F2FD {
  component [🖼️ Kana\nmanga-adapter] as kana #BBDEFB
  component [🖋️ Suki\nlewd-writer] as suki #BBDEFB
  component [🌍 Luna\nworld-weaver] as luna #BBDEFB
  component [🛡️ Riko\ngooner-editor] as riko #BBDEFB
  component [👤 Aria\ncharacter-architect] as aria #BBDEFB
  component [💬 Miki\ndialogue-crafter] as miki #BBDEFB
  component [📸 Nova\nerotic-captioner] as nova #BBDEFB
}

package "Layer 2: Extended (Project-scoped)" as L2_EXT #E3F2FD {
  component [🎭 Yua\nroleplay-actor] as yua #BBDEFB
  component [🎨 Pixel\ncomfyui-prompter] as pixel #BBDEFB
  component [🔍 RE Specialist] as re_spec #BBDEFB
}

director - -> kana : owns
director - -> suki : owns
director - -> luna : owns
director - -> riko : owns
director - -> aria : owns
director - -> miki : owns
director - -> nova : owns

nova - -> kana : forensic
nova - -> luna : prelude
nova - -> suki : caption

package "Primary Skills" as SKILLS #F3E5F5 {
  component [core/panel-forensic] as sk_forensic
  component [core/lewd-writer] as sk_lewd
  component [core/scene-prelude] as sk_prelude
  component [core/roleplay-engine] as sk_rp
  component [services/character-builder] as sk_char
  component [services/dialogue-scripting] as sk_dialog
  component [services/erotic-image-captioner] as sk_ec
  component [modules/gooner-audit-engine] as sk_audit
}

kana - -> sk_forensic
suki - -> sk_lewd
luna - -> sk_prelude
riko - -> sk_audit
aria - -> sk_char
miki - -> sk_dialog
nova - -> sk_ec
yua - -> sk_rp

component [agent-protocol.md] as protocol #F5F5F5
component [agent-registry.yaml] as registry #F5F5F5

director ..> protocol : follows
kana ..> protocol : follows
suki ..> protocol : follows

@enduml

PlantUML version 1.2020.02(Sun Mar 01 17:22:07 ICT 2020)
(GPL source distribution)
Java Runtime: OpenJDK Runtime Environment
JVM: OpenJDK 64-Bit Server VM
Java Version: 21.0.10+7-Ubuntu-124.04
Operating System: Linux
Default Encoding: UTF-8
Language: en
Country: US
--></g></svg>