<?xml version="1.0" encoding="UTF-8" standalone="no"?><svg xmlns="http://www.w3.org/2000/svg" xmlns:xlink="http://www.w3.org/1999/xlink" contentScriptType="application/ecmascript" contentStyleType="text/css" height="715px" preserveAspectRatio="none" style="width:3084px;height:715px;" version="1.1" viewBox="0 0 3084 715" width="3084px" zoomAndPan="magnify"><defs><filter height="300%" id="f15zd30gz4q9ge" width="300%" x="-1" y="-1"><feGaussianBlur result="blurOut" stdDeviation="2.0"/><feColorMatrix in="blurOut" result="blurOut2" type="matrix" values="0 0 0 0 0 0 0 0 0 0 0 0 0 0 0 0 0 0 .4 0"/><feOffset dx="4.0" dy="4.0" in="blurOut2" result="blurOut3"/><feBlend in="SourceGraphic" in2="blurOut3" mode="normal"/></filter></defs><g><text fill="#000000" font-family="Segoe UI" font-size="14" lengthAdjust="spacingAndGlyphs" textLength="230" x="1433" y="12.9951">Core Engine, Services &amp; Modules</text><!--MD5=[bc626bd40949d04a3504d83696d54a38]
cluster CORE--><polygon fill="#F3E5F5" filter="url(#f15zd30gz4q9ge)" points="984,174.2969,1158,174.2969,1165,193.1016,2235,193.1016,2235,597.2969,984,597.2969,984,174.2969" style="stroke: #000000; stroke-width: 1.5;"/><line style="stroke: #000000; stroke-width: 1.5;" x1="984" x2="1165" y1="193.1016" y2="193.1016"/><text fill="#000000" font-family="Segoe UI" font-size="11" font-weight="bold" lengthAdjust="spacingAndGlyphs" textLength="168" x="988" y="186.5073">Core Engine (studio/core/)</text><!--MD5=[5b897dabbd3ef345690dbc11ace01ee2]
cluster ORCH--><polygon fill="#F3E5F5" filter="url(#f15zd30gz4q9ge)" points="1700,213.2969,1796,213.2969,1803,232.1016,1898,232.1016,1898,573.2969,1700,573.2969,1700,213.2969" style="stroke: #000000; stroke-width: 1.5;"/><line style="stroke: #000000; stroke-width: 1.5;" x1="1700" x2="1803" y1="232.1016" y2="232.1016"/><text fill="#000000" font-family="Segoe UI" font-size="11" font-weight="bold" lengthAdjust="spacingAndGlyphs" textLength="90" x="1704" y="225.5073">orchestration/</text><!--MD5=[853204f3ee272c3b50b562b104b637a4]
cluster PY_SCH--><polygon fill="#F3E5F5" filter="url(#f15zd30gz4q9ge)" points="1205,347.2969,1340,347.2969,1347,366.1016,1676,366.1016,1676,437.2969,1205,437.2969,1205,347.2969" style="stroke: #000000; stroke-width: 1.5;"/><line style="stroke: #000000; stroke-width: 1.5;" x1="1205" x2="1347" y1="366.1016" y2="366.1016"/><text fill="#000000" font-family="Segoe UI" font-size="11" font-weight="bold" lengthAdjust="spacingAndGlyphs" textLength="129" x="1209" y="359.5073">schemas/ (Pydantic)</text><!--MD5=[ef4d7f72850c7afb779364a06c9283ed]
cluster SERVICES--><polygon fill="#FCE4EC" filter="url(#f15zd30gz4q9ge)" points="22,40.2969,197,40.2969,204,59.1016,960,59.1016,960,437.2969,22,437.2969,22,40.2969" style="stroke: #000000; stroke-width: 1.5;"/><line style="stroke: #000000; stroke-width: 1.5;" x1="22" x2="204" y1="59.1016" y2="59.1016"/><text fill="#000000" font-family="Segoe UI" font-size="11" font-weight="bold" lengthAdjust="spacingAndGlyphs" textLength="169" x="26" y="52.5073">Services (studio/services/)</text><!--MD5=[21b0c384bc1dcb7ee7c2554680286261]
cluster MODULES--><polygon fill="#E0F7FA" filter="url(#f15zd30gz4q9ge)" points="2259,483.2969,2435,483.2969,2442,502.1016,3062,502.1016,3062,703.2969,2259,703.2969,2259,483.2969" style="stroke: #000000; stroke-width: 1.5;"/><line style="stroke: #000000; stroke-width: 1.5;" x1="2259" x2="2442" y1="502.1016" y2="502.1016"/><text fill="#000000" font-family="Segoe UI" font-size="11" font-weight="bold" lengthAdjust="spacingAndGlyphs" textLength="170" x="2263" y="495.5073">Modules (studio/modules/)</text><!--MD5=[bd4cab694dcdda8201b1f1ce51c6dfb8]
entity c_forensic--><rect fill="#FEFECE" filter="url(#f15zd30gz4q9ge)" height="42.8047" style="stroke: #A80036; stroke-width: 1.5;" width="121" x="1562.5" y="244.2969"/><rect fill="#FEFECE" height="10" style="stroke: #A80036; stroke-width: 1.5;" width="15" x="1663.5" y="249.2969"/><rect fill="#FEFECE" height="2" style="stroke: #A80036; stroke-width: 1.5;" width="4" x="1661.5" y="251.2969"/><rect fill="#FEFECE" height="2" style="stroke: #A80036; stroke-width: 1.5;" width="4" x="1661.5" y="255.2969"/><text fill="#000000" font-family="Segoe UI" font-size="11" lengthAdjust="spacingAndGlyphs" textLength="81" x="1577.5" y="274.5073">panel-forensic</text><!--MD5=[de43cf1aec5c616cc4d4996f628d9dd3]
entity c_lewd--><rect fill="#FEFECE" filter="url(#f15zd30gz4q9ge)" height="42.8047" style="stroke: #A80036; stroke-width: 1.5;" width="103" x="2115.5" y="244.2969"/><rect fill="#FEFECE" height="10" style="stroke: #A80036; stroke-width: 1.5;" width="15" x="2198.5" y="249.2969"/><rect fill="#FEFECE" height="2" style="stroke: #A80036; stroke-width: 1.5;" width="4" x="2196.5" y="251.2969"/><rect fill="#FEFECE" height="2" style="stroke: #A80036; stroke-width: 1.5;" width="4" x="2196.5" y="255.2969"/><text fill="#000000" font-family="Segoe UI" font-size="11" lengthAdjust="spacingAndGlyphs" textLength="63" x="2130.5" y="274.5073">lewd-writer</text><!--MD5=[982d625e0d403be0d9ed3cf804e277fb]
entity c_caption--><rect fill="#FEFECE" filter="url(#f15zd30gz4q9ge)" height="42.8047" style="stroke: #A80036; stroke-width: 1.5;" width="154" x="1373" y="244.2969"/><rect fill="#FEFECE" height="10" style="stroke: #A80036; stroke-width: 1.5;" width="15" x="1507" y="249.2969"/><rect fill="#FEFECE" height="2" style="stroke: #A80036; stroke-width: 1.5;" width="4" x="1505" y="251.2969"/><rect fill="#FEFECE" height="2" style="stroke: #A80036; stroke-width: 1.5;" width="4" x="1505" y="255.2969"/><text fill="#000000" font-family="Segoe UI" font-size="11" lengthAdjust="spacingAndGlyphs" textLength="114" x="1388" y="274.5073">erotic-caption-writer</text><!--MD5=[916f9cef36a8281b4b8e0b70d17924b3]
entity c_prelude--><rect fill="#FEFECE" filter="url(#f15zd30gz4q9ge)" height="42.8047" style="stroke: #A80036; stroke-width: 1.5;" width="121" x="1216.5" y="244.2969"/><rect fill="#FEFECE" height="10" style="stroke: #A80036; stroke-width: 1.5;" width="15" x="1317.5" y="249.2969"/><rect fill="#FEFECE" height="2" style="stroke: #A80036; stroke-width: 1.5;" width="4" x="1315.5" y="251.2969"/><rect fill="#FEFECE" height="2" style="stroke: #A80036; stroke-width: 1.5;" width="4" x="1315.5" y="255.2969"/><text fill="#000000" font-family="Segoe UI" font-size="11" lengthAdjust="spacingAndGlyphs" textLength="81" x="1231.5" y="274.5073">scene-prelude</text><!--MD5=[7dccd2416e822c2de0b46a7855c7360e]
entity c_transform--><rect fill="#FEFECE" filter="url(#f15zd30gz4q9ge)" height="42.8047" style="stroke: #A80036; stroke-width: 1.5;" width="167" x="1913.5" y="244.2969"/><rect fill="#FEFECE" height="10" style="stroke: #A80036; stroke-width: 1.5;" width="15" x="2060.5" y="249.2969"/><rect fill="#FEFECE" height="2" style="stroke: #A80036; stroke-width: 1.5;" width="4" x="2058.5" y="251.2969"/><rect fill="#FEFECE" height="2" style="stroke: #A80036; stroke-width: 1.5;" width="4" x="2058.5" y="255.2969"/><text fill="#000000" font-family="Segoe UI" font-size="11" lengthAdjust="spacingAndGlyphs" textLength="127" x="1928.5" y="274.5073">transformation-engine</text><!--MD5=[2e5c99b828d122ce74e5f14d88221deb]
entity c_vc--><rect fill="#FEFECE" filter="url(#f15zd30gz4q9ge)" height="42.8047" style="stroke: #A80036; stroke-width: 1.5;" width="181" x="1000.5" y="244.2969"/><rect fill="#FEFECE" height="10" style="stroke: #A80036; stroke-width: 1.5;" width="15" x="1161.5" y="249.2969"/><rect fill="#FEFECE" height="2" style="stroke: #A80036; stroke-width: 1.5;" width="4" x="1159.5" y="251.2969"/><rect fill="#FEFECE" height="2" style="stroke: #A80036; stroke-width: 1.5;" width="4" x="1159.5" y="255.2969"/><text fill="#000000" font-family="Segoe UI" font-size="11" lengthAdjust="spacingAndGlyphs" textLength="141" x="1015.5" y="274.5073">volume-context-extractor</text><!--MD5=[26fa97313562454969ef0dbe9fca3fd8]
entity c_rp--><rect fill="#FEFECE" filter="url(#f15zd30gz4q9ge)" height="42.8047" style="stroke: #A80036; stroke-width: 1.5;" width="127" x="1946.5" y="378.2969"/><rect fill="#FEFECE" height="10" style="stroke: #A80036; stroke-width: 1.5;" width="15" x="2053.5" y="383.2969"/><rect fill="#FEFECE" height="2" style="stroke: #A80036; stroke-width: 1.5;" width="4" x="2051.5" y="385.2969"/><rect fill="#FEFECE" height="2" style="stroke: #A80036; stroke-width: 1.5;" width="4" x="2051.5" y="389.2969"/><text fill="#000000" font-family="Segoe UI" font-size="11" lengthAdjust="spacingAndGlyphs" textLength="87" x="1961.5" y="408.5073">roleplay-engine</text><!--MD5=[6b819582b309ee4440ba8d6ab472f516]
entity c_party--><rect fill="#FEFECE" filter="url(#f15zd30gz4q9ge)" height="42.8047" style="stroke: #A80036; stroke-width: 1.5;" width="105" x="2108.5" y="378.2969"/><rect fill="#FEFECE" height="10" style="stroke: #A80036; stroke-width: 1.5;" width="15" x="2193.5" y="383.2969"/><rect fill="#FEFECE" height="2" style="stroke: #A80036; stroke-width: 1.5;" width="4" x="2191.5" y="385.2969"/><rect fill="#FEFECE" height="2" style="stroke: #A80036; stroke-width: 1.5;" width="4" x="2191.5" y="389.2969"/><text fill="#000000" font-family="Segoe UI" font-size="11" lengthAdjust="spacingAndGlyphs" textLength="65" x="2123.5" y="408.5073">party-mode</text><!--MD5=[80748b5bcabbc36f18337d78f744e0c1]
entity o_reg--><rect fill="#FEFECE" filter="url(#f15zd30gz4q9ge)" height="42.8047" style="stroke: #A80036; stroke-width: 1.5;" width="165" x="1716.5" y="514.2969"/><rect fill="#FEFECE" height="10" style="stroke: #A80036; stroke-width: 1.5;" width="15" x="1861.5" y="519.2969"/><rect fill="#FEFECE" height="2" style="stroke: #A80036; stroke-width: 1.5;" width="4" x="1859.5" y="521.2969"/><rect fill="#FEFECE" height="2" style="stroke: #A80036; stroke-width: 1.5;" width="4" x="1859.5" y="525.2969"/><text fill="#000000" font-family="Segoe UI" font-size="11" lengthAdjust="spacingAndGlyphs" textLength="125" x="1731.5" y="544.5073">pipeline_registry.yaml</text><!--MD5=[f50404dbb15e7054c547a50be4eb870d]
entity o_mgr--><rect fill="#FEFECE" filter="url(#f15zd30gz4q9ge)" height="42.8047" style="stroke: #A80036; stroke-width: 1.5;" width="158" x="1720" y="378.2969"/><rect fill="#FEFECE" height="10" style="stroke: #A80036; stroke-width: 1.5;" width="15" x="1858" y="383.2969"/><rect fill="#FEFECE" height="2" style="stroke: #A80036; stroke-width: 1.5;" width="4" x="1856" y="385.2969"/><rect fill="#FEFECE" height="2" style="stroke: #A80036; stroke-width: 1.5;" width="4" x="1856" y="389.2969"/><text fill="#000000" font-family="Segoe UI" font-size="11" lengthAdjust="spacingAndGlyphs" textLength="118" x="1735" y="408.5073">pipeline_manager.py</text><!--MD5=[a7c5fc1e66f2d0cb5827644b3daa6218]
entity o_run--><rect fill="#FEFECE" filter="url(#f15zd30gz4q9ge)" height="42.8047" style="stroke: #A80036; stroke-width: 1.5;" width="95" x="1751.5" y="244.2969"/><rect fill="#FEFECE" height="10" style="stroke: #A80036; stroke-width: 1.5;" width="15" x="1826.5" y="249.2969"/><rect fill="#FEFECE" height="2" style="stroke: #A80036; stroke-width: 1.5;" width="4" x="1824.5" y="251.2969"/><rect fill="#FEFECE" height="2" style="stroke: #A80036; stroke-width: 1.5;" width="4" x="1824.5" y="255.2969"/><text fill="#000000" font-family="Segoe UI" font-size="11" lengthAdjust="spacingAndGlyphs" textLength="55" x="1766.5" y="274.5073">runner.py</text><!--MD5=[c465a64d5c3aebe1b097bd0482f2940f]
entity py_f--><rect fill="#FEFECE" filter="url(#f15zd30gz4q9ge)" height="42.8047" style="stroke: #A80036; stroke-width: 1.5;" width="126" x="1534" y="378.2969"/><rect fill="#FEFECE" height="10" style="stroke: #A80036; stroke-width: 1.5;" width="15" x="1640" y="383.2969"/><rect fill="#FEFECE" height="2" style="stroke: #A80036; stroke-width: 1.5;" width="4" x="1638" y="385.2969"/><rect fill="#FEFECE" height="2" style="stroke: #A80036; stroke-width: 1.5;" width="4" x="1638" y="389.2969"/><text fill="#000000" font-family="Segoe UI" font-size="11" lengthAdjust="spacingAndGlyphs" textLength="86" x="1549" y="408.5073">ForensicOutput</text><!--MD5=[94da74ee92e09fb53c38788059093e93]
entity py_p--><rect fill="#FEFECE" filter="url(#f15zd30gz4q9ge)" height="42.8047" style="stroke: #A80036; stroke-width: 1.5;" width="121" x="1221.5" y="378.2969"/><rect fill="#FEFECE" height="10" style="stroke: #A80036; stroke-width: 1.5;" width="15" x="1322.5" y="383.2969"/><rect fill="#FEFECE" height="2" style="stroke: #A80036; stroke-width: 1.5;" width="4" x="1320.5" y="385.2969"/><rect fill="#FEFECE" height="2" style="stroke: #A80036; stroke-width: 1.5;" width="4" x="1320.5" y="389.2969"/><text fill="#000000" font-family="Segoe UI" font-size="11" lengthAdjust="spacingAndGlyphs" textLength="81" x="1236.5" y="408.5073">PreludeOutput</text><!--MD5=[b8ff41bcbd87fcbf82907fb5b6779ab1]
entity py_c--><rect fill="#FEFECE" filter="url(#f15zd30gz4q9ge)" height="42.8047" style="stroke: #A80036; stroke-width: 1.5;" width="121" x="1377.5" y="378.2969"/><rect fill="#FEFECE" height="10" style="stroke: #A80036; stroke-width: 1.5;" width="15" x="1478.5" y="383.2969"/><rect fill="#FEFECE" height="2" style="stroke: #A80036; stroke-width: 1.5;" width="4" x="1476.5" y="385.2969"/><rect fill="#FEFECE" height="2" style="stroke: #A80036; stroke-width: 1.5;" width="4" x="1476.5" y="389.2969"/><text fill="#000000" font-family="Segoe UI" font-size="11" lengthAdjust="spacingAndGlyphs" textLength="81" x="1392.5" y="408.5073">CaptionOutput</text><!--MD5=[45caab833b343973571c38c1ddee4661]
entity s_alch--><rect fill="#FEFECE" filter="url(#f15zd30gz4q9ge)" height="42.8047" style="stroke: #A80036; stroke-width: 1.5;" width="139" x="804.5" y="71.2969"/><rect fill="#FEFECE" height="10" style="stroke: #A80036; stroke-width: 1.5;" width="15" x="923.5" y="76.2969"/><rect fill="#FEFECE" height="2" style="stroke: #A80036; stroke-width: 1.5;" width="4" x="921.5" y="78.2969"/><rect fill="#FEFECE" height="2" style="stroke: #A80036; stroke-width: 1.5;" width="4" x="921.5" y="82.2969"/><text fill="#000000" font-family="Segoe UI" font-size="11" lengthAdjust="spacingAndGlyphs" textLength="99" x="819.5" y="101.5073">gooner-alchemist</text><!--MD5=[77f6aa226f5a8e8d25267a6e22a5e4d8]
entity s_ec--><rect fill="#FEFECE" filter="url(#f15zd30gz4q9ge)" height="42.8047" style="stroke: #A80036; stroke-width: 1.5;" width="168" x="601" y="71.2969"/><rect fill="#FEFECE" height="10" style="stroke: #A80036; stroke-width: 1.5;" width="15" x="749" y="76.2969"/><rect fill="#FEFECE" height="2" style="stroke: #A80036; stroke-width: 1.5;" width="4" x="747" y="78.2969"/><rect fill="#FEFECE" height="2" style="stroke: #A80036; stroke-width: 1.5;" width="4" x="747" y="82.2969"/><text fill="#000000" font-family="Segoe UI" font-size="11" lengthAdjust="spacingAndGlyphs" textLength="128" x="616" y="101.5073">erotic-image-captioner</text><!--MD5=[9d01ebdedb769dd898c0a5023c513698]
entity s_char--><rect fill="#FEFECE" filter="url(#f15zd30gz4q9ge)" height="42.8047" style="stroke: #A80036; stroke-width: 1.5;" width="137" x="38.5" y="71.2969"/><rect fill="#FEFECE" height="10" style="stroke: #A80036; stroke-width: 1.5;" width="15" x="155.5" y="76.2969"/><rect fill="#FEFECE" height="2" style="stroke: #A80036; stroke-width: 1.5;" width="4" x="153.5" y="78.2969"/><rect fill="#FEFECE" height="2" style="stroke: #A80036; stroke-width: 1.5;" width="4" x="153.5" y="82.2969"/><text fill="#000000" font-family="Segoe UI" font-size="11" lengthAdjust="spacingAndGlyphs" textLength="97" x="53.5" y="101.5073">character-builder</text><!--MD5=[9b4152dc42ead35b1c584970230cbaf1]
entity s_dial--><rect fill="#FEFECE" filter="url(#f15zd30gz4q9ge)" height="42.8047" style="stroke: #A80036; stroke-width: 1.5;" width="141" x="210.5" y="71.2969"/><rect fill="#FEFECE" height="10" style="stroke: #A80036; stroke-width: 1.5;" width="15" x="331.5" y="76.2969"/><rect fill="#FEFECE" height="2" style="stroke: #A80036; stroke-width: 1.5;" width="4" x="329.5" y="78.2969"/><rect fill="#FEFECE" height="2" style="stroke: #A80036; stroke-width: 1.5;" width="4" x="329.5" y="82.2969"/><text fill="#000000" font-family="Segoe UI" font-size="11" lengthAdjust="spacingAndGlyphs" textLength="101" x="225.5" y="101.5073">dialogue-scripting</text><!--MD5=[f652151221b71c291d8b5212dad10245]
entity s_manga--><rect fill="#FEFECE" filter="url(#f15zd30gz4q9ge)" height="42.8047" style="stroke: #A80036; stroke-width: 1.5;" width="179" x="386.5" y="71.2969"/><rect fill="#FEFECE" height="10" style="stroke: #A80036; stroke-width: 1.5;" width="15" x="545.5" y="76.2969"/><rect fill="#FEFECE" height="2" style="stroke: #A80036; stroke-width: 1.5;" width="4" x="543.5" y="78.2969"/><rect fill="#FEFECE" height="2" style="stroke: #A80036; stroke-width: 1.5;" width="4" x="543.5" y="82.2969"/><text fill="#000000" font-family="Segoe UI" font-size="11" lengthAdjust="spacingAndGlyphs" textLength="139" x="401.5" y="101.5073">manga-context-extractor</text><!--MD5=[8d07d898cb3b3922f39fdd49450c4971]
entity s_novel--><rect fill="#FEFECE" filter="url(#f15zd30gz4q9ge)" height="42.8047" style="stroke: #A80036; stroke-width: 1.5;" width="147" x="38.5" y="244.2969"/><rect fill="#FEFECE" height="10" style="stroke: #A80036; stroke-width: 1.5;" width="15" x="165.5" y="249.2969"/><rect fill="#FEFECE" height="2" style="stroke: #A80036; stroke-width: 1.5;" width="4" x="163.5" y="251.2969"/><rect fill="#FEFECE" height="2" style="stroke: #A80036; stroke-width: 1.5;" width="4" x="163.5" y="255.2969"/><text fill="#000000" font-family="Segoe UI" font-size="11" lengthAdjust="spacingAndGlyphs" textLength="107" x="53.5" y="274.5073">novel-development</text><!--MD5=[3e4b67f4e25e9dd7e67d791a3e82f44b]
entity s_scene--><rect fill="#FEFECE" filter="url(#f15zd30gz4q9ge)" height="42.8047" style="stroke: #A80036; stroke-width: 1.5;" width="136" x="221" y="244.2969"/><rect fill="#FEFECE" height="10" style="stroke: #A80036; stroke-width: 1.5;" width="15" x="337" y="249.2969"/><rect fill="#FEFECE" height="2" style="stroke: #A80036; stroke-width: 1.5;" width="4" x="335" y="251.2969"/><rect fill="#FEFECE" height="2" style="stroke: #A80036; stroke-width: 1.5;" width="4" x="335" y="255.2969"/><text fill="#000000" font-family="Segoe UI" font-size="11" lengthAdjust="spacingAndGlyphs" textLength="96" x="236" y="274.5073">scene-expansion</text><!--MD5=[93b8074d4e6d452a101278060c1a1e47]
entity s_release--><rect fill="#FEFECE" filter="url(#f15zd30gz4q9ge)" height="42.8047" style="stroke: #A80036; stroke-width: 1.5;" width="136" x="392" y="244.2969"/><rect fill="#FEFECE" height="10" style="stroke: #A80036; stroke-width: 1.5;" width="15" x="508" y="249.2969"/><rect fill="#FEFECE" height="2" style="stroke: #A80036; stroke-width: 1.5;" width="4" x="506" y="251.2969"/><rect fill="#FEFECE" height="2" style="stroke: #A80036; stroke-width: 1.5;" width="4" x="506" y="255.2969"/><text fill="#000000" font-family="Segoe UI" font-size="11" lengthAdjust="spacingAndGlyphs" textLength="96" x="407" y="274.5073">release-compiler</text><!--MD5=[bcc57b3f1676a2a5589282c70f3a323a]
entity s_renpy--><rect fill="#FEFECE" filter="url(#f15zd30gz4q9ge)" height="42.8047" style="stroke: #A80036; stroke-width: 1.5;" width="136" x="44" y="378.2969"/><rect fill="#FEFECE" height="10" style="stroke: #A80036; stroke-width: 1.5;" width="15" x="160" y="383.2969"/><rect fill="#FEFECE" height="2" style="stroke: #A80036; stroke-width: 1.5;" width="4" x="158" y="385.2969"/><rect fill="#FEFECE" height="2" style="stroke: #A80036; stroke-width: 1.5;" width="4" x="158" y="389.2969"/><text fill="#000000" font-family="Segoe UI" font-size="11" lengthAdjust="spacingAndGlyphs" textLength="96" x="59" y="408.5073">renpy-adaptation</text><!--MD5=[b7a23a4ef2d9a125b6effd054b062ee6]
entity s_rpg--><rect fill="#FEFECE" filter="url(#f15zd30gz4q9ge)" height="42.8047" style="stroke: #A80036; stroke-width: 1.5;" width="107" x="215.5" y="378.2969"/><rect fill="#FEFECE" height="10" style="stroke: #A80036; stroke-width: 1.5;" width="15" x="302.5" y="383.2969"/><rect fill="#FEFECE" height="2" style="stroke: #A80036; stroke-width: 1.5;" width="4" x="300.5" y="385.2969"/><rect fill="#FEFECE" height="2" style="stroke: #A80036; stroke-width: 1.5;" width="4" x="300.5" y="389.2969"/><text fill="#000000" font-family="Segoe UI" font-size="11" lengthAdjust="spacingAndGlyphs" textLength="67" x="230.5" y="408.5073">rpg-adapter</text><!--MD5=[6313c4bb2fe7fa145ca7de95e84ea11e]
entity s_bible--><rect fill="#FEFECE" filter="url(#f15zd30gz4q9ge)" height="42.8047" style="stroke: #A80036; stroke-width: 1.5;" width="97" x="357.5" y="378.2969"/><rect fill="#FEFECE" height="10" style="stroke: #A80036; stroke-width: 1.5;" width="15" x="434.5" y="383.2969"/><rect fill="#FEFECE" height="2" style="stroke: #A80036; stroke-width: 1.5;" width="4" x="432.5" y="385.2969"/><rect fill="#FEFECE" height="2" style="stroke: #A80036; stroke-width: 1.5;" width="4" x="432.5" y="389.2969"/><text fill="#000000" font-family="Segoe UI" font-size="11" lengthAdjust="spacingAndGlyphs" textLength="57" x="372.5" y="408.5073">bible-sync</text><!--MD5=[555822643207cf872ec93368e52b38c0]
entity m_fetish--><rect fill="#FEFECE" filter="url(#f15zd30gz4q9ge)" height="42.8047" style="stroke: #A80036; stroke-width: 1.5;" width="127" x="2630.5" y="514.2969"/><rect fill="#FEFECE" height="10" style="stroke: #A80036; stroke-width: 1.5;" width="15" x="2737.5" y="519.2969"/><rect fill="#FEFECE" height="2" style="stroke: #A80036; stroke-width: 1.5;" width="4" x="2735.5" y="521.2969"/><rect fill="#FEFECE" height="2" style="stroke: #A80036; stroke-width: 1.5;" width="4" x="2735.5" y="525.2969"/><text fill="#000000" font-family="Segoe UI" font-size="11" lengthAdjust="spacingAndGlyphs" textLength="87" x="2645.5" y="544.5073">fetish-guidance</text><!--MD5=[469b1b25d8d49ab0afa13d3955506978]
entity m_audit--><rect fill="#FEFECE" filter="url(#f15zd30gz4q9ge)" height="42.8047" style="stroke: #A80036; stroke-width: 1.5;" width="154" x="2275" y="514.2969"/><rect fill="#FEFECE" height="10" style="stroke: #A80036; stroke-width: 1.5;" width="15" x="2409" y="519.2969"/><rect fill="#FEFECE" height="2" style="stroke: #A80036; stroke-width: 1.5;" width="4" x="2407" y="521.2969"/><rect fill="#FEFECE" height="2" style="stroke: #A80036; stroke-width: 1.5;" width="4" x="2407" y="525.2969"/><text fill="#000000" font-family="Segoe UI" font-size="11" lengthAdjust="spacingAndGlyphs" textLength="114" x="2290" y="544.5073">gooner-audit-engine</text><!--MD5=[28eb87809d881674ed8e2a760cb8428d]
entity m_sfx--><rect fill="#FEFECE" filter="url(#f15zd30gz4q9ge)" height="42.8047" style="stroke: #A80036; stroke-width: 1.5;" width="98" x="2793" y="514.2969"/><rect fill="#FEFECE" height="10" style="stroke: #A80036; stroke-width: 1.5;" width="15" x="2871" y="519.2969"/><rect fill="#FEFECE" height="2" style="stroke: #A80036; stroke-width: 1.5;" width="4" x="2869" y="521.2969"/><rect fill="#FEFECE" height="2" style="stroke: #A80036; stroke-width: 1.5;" width="4" x="2869" y="525.2969"/><text fill="#000000" font-family="Segoe UI" font-size="11" lengthAdjust="spacingAndGlyphs" textLength="58" x="2808" y="544.5073">sfx-lookup</text><!--MD5=[cad392c3708ab7848c3b1b7f62a20d47]
entity m_style--><rect fill="#FEFECE" filter="url(#f15zd30gz4q9ge)" height="42.8047" style="stroke: #A80036; stroke-width: 1.5;" width="119" x="2926.5" y="514.2969"/><rect fill="#FEFECE" height="10" style="stroke: #A80036; stroke-width: 1.5;" width="15" x="3025.5" y="519.2969"/><rect fill="#FEFECE" height="2" style="stroke: #A80036; stroke-width: 1.5;" width="4" x="3023.5" y="521.2969"/><rect fill="#FEFECE" height="2" style="stroke: #A80036; stroke-width: 1.5;" width="4" x="3023.5" y="525.2969"/><text fill="#000000" font-family="Segoe UI" font-size="11" lengthAdjust="spacingAndGlyphs" textLength="79" x="2941.5" y="544.5073">style-enforcer</text><!--MD5=[df4552d8604422676fba8b3264730303]
entity m_re--><rect fill="#FEFECE" filter="url(#f15zd30gz4q9ge)" height="42.8047" style="stroke: #A80036; stroke-width: 1.5;" width="131" x="2464.5" y="514.2969"/><rect fill="#FEFECE" height="10" style="stroke: #A80036; stroke-width: 1.5;" width="15" x="2575.5" y="519.2969"/><rect fill="#FEFECE" height="2" style="stroke: #A80036; stroke-width: 1.5;" width="4" x="2573.5" y="521.2969"/><rect fill="#FEFECE" height="2" style="stroke: #A80036; stroke-width: 1.5;" width="4" x="2573.5" y="525.2969"/><text fill="#000000" font-family="Segoe UI" font-size="11" lengthAdjust="spacingAndGlyphs" textLength="91" x="2479.5" y="544.5073">lnd-re-specialist</text><!--MD5=[1c98164ebc459c6b8158a68bfc51853a]
entity m_st--><rect fill="#FEFECE" filter="url(#f15zd30gz4q9ge)" height="42.8047" style="stroke: #A80036; stroke-width: 1.5;" width="138" x="2283" y="644.2969"/><rect fill="#FEFECE" height="10" style="stroke: #A80036; stroke-width: 1.5;" width="15" x="2401" y="649.2969"/><rect fill="#FEFECE" height="2" style="stroke: #A80036; stroke-width: 1.5;" width="4" x="2399" y="651.2969"/><rect fill="#FEFECE" height="2" style="stroke: #A80036; stroke-width: 1.5;" width="4" x="2399" y="655.2969"/><text fill="#000000" font-family="Segoe UI" font-size="11" lengthAdjust="spacingAndGlyphs" textLength="98" x="2298" y="674.5073">sillytavern-export</text><!--MD5=[d0c72bdf91d0ba36f09b7a60ae5cf9b4]
link s_alch to c_forensic--><path d="M943.55,96.2569 C1053.31,100.9369 1273.13,113.5469 1457,144.2969 C1496.76,150.9469 1511.12,144.4369 1545,166.2969 C1573.52,184.6969 1596.19,217.1269 1609.59,239.7269 " fill="none" id="s_alch-&gt;c_forensic" style="stroke: #555555; stroke-width: 1.0;"/><polygon fill="#555555" points="1612.14,244.1169,1611.0643,234.3269,1609.6224,239.7969,1604.1524,238.3551,1612.14,244.1169" style="stroke: #555555; stroke-width: 1.0;"/><text fill="#000000" font-family="Segoe UI" font-size="11" lengthAdjust="spacingAndGlyphs" textLength="37" x="1531" y="155.5073">Step 1</text><!--MD5=[47d6c998e6e90143668a4236e9948c32]
link s_alch to c_lewd--><path d="M943.55,94.4069 C1187.81,97.0469 1997.18,109.9769 2098,166.2969 C2126.59,182.2669 2146.05,215.6469 2156.83,239.0969 " fill="none" id="s_alch-&gt;c_lewd" style="stroke: #555555; stroke-width: 1.0;"/><polygon fill="#555555" points="2159,243.9469,2158.9685,234.0981,2156.9547,239.3843,2151.6685,237.3705,2159,243.9469" style="stroke: #555555; stroke-width: 1.0;"/><text fill="#000000" font-family="Segoe UI" font-size="11" lengthAdjust="spacingAndGlyphs" textLength="37" x="2067" y="155.5073">Step 3</text><!--MD5=[fcd70ce311905991075c229afb5f5ed1]
link s_ec to c_forensic--><path d="M769.17,111.7169 C775.19,112.6869 781.18,113.5669 787,114.2969 C1042.22,146.3969 1111.77,99.0669 1365,144.2969 C1385.62,147.9769 1389.39,154.5369 1410,158.2969 C1439.56,163.6869 1518.34,152.4169 1545,166.2969 C1575.47,182.1669 1597.97,215.7869 1610.78,239.3169 " fill="none" id="s_ec-&gt;c_forensic" style="stroke: #555555; stroke-width: 1.0;"/><polygon fill="#555555" points="1613.21,243.8769,1612.5239,234.0519,1610.866,239.4604,1605.4575,237.8024,1613.21,243.8769" style="stroke: #555555; stroke-width: 1.0;"/><text fill="#000000" font-family="Segoe UI" font-size="11" lengthAdjust="spacingAndGlyphs" textLength="37" x="1411" y="155.5073">Step 1</text><!--MD5=[ace0f7eab6ac7920449b014a85372c23]
link s_ec to c_prelude--><path d="M769.27,111.0369 C775.26,112.1669 781.22,113.2669 787,114.2969 C912.32,136.6169 943.45,144.5669 1070,158.2969 C1098.55,161.3969 1173.54,152.9969 1199,166.2969 C1229.45,182.2069 1251.96,215.8269 1264.77,239.3369 " fill="none" id="s_ec-&gt;c_prelude" style="stroke: #555555; stroke-width: 1.0;"/><polygon fill="#555555" points="1267.2,243.8969,1266.5139,234.0719,1264.856,239.4804,1259.4475,237.8224,1267.2,243.8969" style="stroke: #555555; stroke-width: 1.0;"/><text fill="#000000" font-family="Segoe UI" font-size="11" lengthAdjust="spacingAndGlyphs" textLength="37" x="1071" y="155.5073">Step 2</text><!--MD5=[a43457d5ad3b1c3a8673775ddc900540]
link s_ec to c_caption--><path d="M769.2,111.4569 C775.21,112.4869 781.19,113.4469 787,114.2969 C849.71,123.4469 1297.86,138.8769 1355,166.2969 C1388.88,182.5569 1417.15,216.3169 1433.82,239.7569 " fill="none" id="s_ec-&gt;c_caption" style="stroke: #555555; stroke-width: 1.0;"/><polygon fill="#555555" points="1436.8,244.0069,1434.9203,234.3391,1433.9346,239.9094,1428.3643,238.9237,1436.8,244.0069" style="stroke: #555555; stroke-width: 1.0;"/><text fill="#000000" font-family="Segoe UI" font-size="11" lengthAdjust="spacingAndGlyphs" textLength="37" x="1319" y="155.5073">Step 3</text><!--MD5=[5fd0381e406c4be6c49abdf5c4590694]
link c_lewd to m_fetish--><path d="M2218.82,287.1169 C2303.72,321.2669 2476.64,394.3969 2613,475.2969 C2630.83,485.8769 2649.56,499.4569 2664.51,510.9669 " fill="none" id="c_lewd-&gt;m_fetish" style="stroke: #555555; stroke-width: 1.0;"/><polygon fill="#555555" points="2668.63,514.1569,2663.9729,505.4787,2664.6802,511.0911,2659.0677,511.7984,2668.63,514.1569" style="stroke: #555555; stroke-width: 1.0;"/><text fill="#000000" font-family="Segoe UI" font-size="11" lengthAdjust="spacingAndGlyphs" textLength="49" x="2555" y="404.0073">enriches</text><!--MD5=[42044b09abe6f9b565759bf9d46258ab]
link c_lewd to m_sfx--><path d="M2218.7,266.4569 C2304.55,267.7469 2480.18,278.4169 2613,339.2969 C2702.77,380.4369 2784.75,467.3169 2821.55,510.0269 " fill="none" id="c_lewd-&gt;m_sfx" style="stroke: #555555; stroke-width: 1.0;"/><polygon fill="#555555" points="2824.97,514.0169,2822.1704,504.5743,2821.7243,510.2135,2816.0851,509.7674,2824.97,514.0169" style="stroke: #555555; stroke-width: 1.0;"/><text fill="#000000" font-family="Segoe UI" font-size="11" lengthAdjust="spacingAndGlyphs" textLength="44" x="2759" y="404.0073">lookups</text><!--MD5=[dd7cc5ffc3c6212b9ff014bbbfaab7b3]
link c_lewd to m_style--><path d="M2218.92,267.8969 C2353.22,271.4769 2708.8,285.8669 2812,339.2969 C2888.11,378.6969 2946.53,466.1769 2972,509.4869 " fill="none" id="c_lewd-&gt;m_style" style="stroke: #555555; stroke-width: 1.0;"/><polygon fill="#555555" points="2974.66,514.0469,2973.5843,504.2569,2972.1424,509.7269,2966.6724,508.2851,2974.66,514.0469" style="stroke: #555555; stroke-width: 1.0;"/><text fill="#000000" font-family="Segoe UI" font-size="11" lengthAdjust="spacingAndGlyphs" textLength="50" x="2928" y="404.0073">enforces</text><!--MD5=[39e9ff4a0ecfc66f4f62096245a6fe0c]
link c_forensic to py_f--><path d="M1618.94,287.4169 C1614.4,310.4369 1607.06,347.7269 1602.13,372.7369 " fill="none" id="c_forensic-&gt;py_f" style="stroke: #555555; stroke-width: 1.0;"/><polygon fill="#555555" points="1601.12,377.8769,1606.7938,369.8266,1602.0923,372.9723,1598.9466,368.2708,1601.12,377.8769" style="stroke: #555555; stroke-width: 1.0;"/><text fill="#000000" font-family="Segoe UI" font-size="11" lengthAdjust="spacingAndGlyphs" textLength="51" x="1613" y="328.5073">validates</text><!--MD5=[172106ecda326fbd58b99bb22e99d2a4]
link c_prelude to py_p--><path d="M1277.78,287.4169 C1278.65,310.4369 1280.07,347.7269 1281.01,372.7369 " fill="none" id="c_prelude-&gt;py_p" style="stroke: #555555; stroke-width: 1.0;"/><polygon fill="#555555" points="1281.21,377.8769,1284.8732,368.7346,1281.0244,372.8803,1276.8787,369.0315,1281.21,377.8769" style="stroke: #555555; stroke-width: 1.0;"/><text fill="#000000" font-family="Segoe UI" font-size="11" lengthAdjust="spacingAndGlyphs" textLength="51" x="1280" y="328.5073">validates</text><!--MD5=[0c011db61acf31c09d9e68fa2e0281af]
link c_caption to py_c--><path d="M1448.12,287.4169 C1446.03,310.4369 1442.64,347.7269 1440.37,372.7369 " fill="none" id="c_caption-&gt;py_c" style="stroke: #555555; stroke-width: 1.0;"/><polygon fill="#555555" points="1439.9,377.8769,1444.6806,369.2661,1440.3424,372.8965,1436.712,368.5583,1439.9,377.8769" style="stroke: #555555; stroke-width: 1.0;"/><text fill="#000000" font-family="Segoe UI" font-size="11" lengthAdjust="spacingAndGlyphs" textLength="51" x="1446" y="328.5073">validates</text><!--MD5=[c536aacd11e42b94c109d2d02fad6173]
link o_run to o_mgr--><path d="M1788.8,287.3969 C1784.91,296.3469 1780.94,307.1069 1779,317.2969 C1775.39,336.2369 1780.85,357.3669 1786.97,373.3669 " fill="none" id="o_run-&gt;o_mgr" style="stroke: #555555; stroke-width: 1.0;"/><polygon fill="#555555" points="1788.89,378.1569,1789.2614,368.315,1787.033,373.5145,1781.8336,371.2861,1788.89,378.1569" style="stroke: #555555; stroke-width: 1.0;"/><text fill="#000000" font-family="Segoe UI" font-size="11" lengthAdjust="spacingAndGlyphs" textLength="28" x="1780" y="328.5073">uses</text><!--MD5=[be267e96c979af41d0565ec0bad1a1dd]
link o_mgr to o_reg--><path d="M1786.53,421.4769 C1781.59,430.8369 1776.49,442.2669 1774,453.2969 C1769.68,472.3969 1776.51,493.5269 1784.11,509.4869 " fill="none" id="o_mgr-&gt;o_reg" style="stroke: #555555; stroke-width: 1.0;"/><polygon fill="#555555" points="1786.48,514.2569,1786.0831,504.416,1784.2668,509.7734,1778.9095,507.9571,1786.48,514.2569" style="stroke: #555555; stroke-width: 1.0;"/><text fill="#000000" font-family="Segoe UI" font-size="11" lengthAdjust="spacingAndGlyphs" textLength="33" x="1775" y="464.5073">reads</text><!--MD5=[ff758d44965db33411571906aa737947]
link c_transform to c_vc--><!--MD5=[5e2f61236f8f505abf01c953b8751c2c]
link c_transform to c_rp--><!--MD5=[1e2f89b4ce6a576c3aca667e54005739]
link c_rp to c_party--><!--MD5=[78134d92a9dbe495a284c3b0d3983516]
link s_char to s_dial--><!--MD5=[e7691749b4ba7edf44af4c72ae190e9e]
link s_dial to s_manga--><!--MD5=[473db69bdb5e1c4dfdc86583d058d1df]
link s_char to s_novel--><!--MD5=[4e75ec173c4168f1d545aa970a0e9f02]
link s_novel to s_scene--><!--MD5=[b1690a473e9af0b26706152d6c6117cc]
link s_scene to s_release--><!--MD5=[6854bf955257fc35bbeb681811233a84]
link s_novel to s_renpy--><!--MD5=[2feca11d47d2b49ca86879595979e3c6]
link s_renpy to s_rpg--><!--MD5=[87a87d7b5688e7d5dde9e73e700925fb]
link s_rpg to s_bible--><!--MD5=[024684f2b52cbc160ad180bbd84986f7]
link m_audit to m_re--><!--MD5=[2732c3afd41c54c8bd0c905a477706da]
link m_audit to m_st--><!--MD5=[5edfa57b44584088fcdb87902c3d1c9c]
link c_vc to s_char--><!--MD5=[df620eec4c1a43c5064aeabb42852ed9]
link c_rp to m_audit--><!--MD5=[8a9296723d4be2a1027f194eb7750f0f]
@startuml LND_Studio_Core_Services
title Core Engine, Services & Modules

skinparam {
  ComponentStyle uml2
  PackageStyle frame
  ArrowColor #555555
  defaultFontName "Segoe UI"
  defaultFontSize 11
  TitleFontSize 14
}

package "Core Engine (studio/core/)" as CORE #F3E5F5 {
  component [panel-forensic] as c_forensic
  component [lewd-writer] as c_lewd
  component [erotic-caption-writer] as c_caption
  component [scene-prelude] as c_prelude
  component [transformation-engine] as c_transform
  component [volume-context-extractor] as c_vc
  component [roleplay-engine] as c_rp
  component [party-mode] as c_party

  package "orchestration/" as ORCH {
    component [pipeline_registry.yaml] as o_reg
    component [pipeline_manager.py] as o_mgr
    component [runner.py] as o_run
  }

  package "schemas/ (Pydantic)" as PY_SCH {
    component [ForensicOutput] as py_f
    component [PreludeOutput] as py_p
    component [CaptionOutput] as py_c
  }
}

package "Services (studio/services/)" as SERVICES #FCE4EC {
  component [gooner-alchemist] as s_alch
  component [erotic-image-captioner] as s_ec
  component [character-builder] as s_char
  component [dialogue-scripting] as s_dial
  component [manga-context-extractor] as s_manga
  component [novel-development] as s_novel
  component [scene-expansion] as s_scene
  component [release-compiler] as s_release
  component [renpy-adaptation] as s_renpy
  component [rpg-adapter] as s_rpg
  component [bible-sync] as s_bible
}

package "Modules (studio/modules/)" as MODULES #E0F7FA {
  component [fetish-guidance] as m_fetish
  component [gooner-audit-engine] as m_audit
  component [sfx-lookup] as m_sfx
  component [style-enforcer] as m_style
  component [lnd-re-specialist] as m_re
  component [sillytavern-export] as m_st
}

s_alch - -> c_forensic : Step 1
s_alch - -> c_lewd : Step 3
s_ec - -> c_forensic : Step 1
s_ec - -> c_prelude : Step 2
s_ec - -> c_caption : Step 3

c_lewd - -> m_fetish : enriches
c_lewd - -> m_sfx : lookups
c_lewd - -> m_style : enforces

c_forensic - -> py_f : validates
c_prelude - -> py_p : validates
c_caption - -> py_c : validates

o_run - -> o_mgr : uses
o_mgr - -> o_reg : reads

@enduml

PlantUML version 1.2020.02(Sun Mar 01 17:22:07 ICT 2020)
(GPL source distribution)
Java Runtime: OpenJDK Runtime Environment
JVM: OpenJDK 64-Bit Server VM
Java Version: 21.0.10+7-Ubuntu-124.04
Operating System: Linux
Default Encoding: UTF-8
Language: en
Country: US
--></g></svg>