<?xml version="1.0" encoding="UTF-8" standalone="no"?><svg xmlns="http://www.w3.org/2000/svg" xmlns:xlink="http://www.w3.org/1999/xlink" contentScriptType="application/ecmascript" contentStyleType="text/css" height="1225px" preserveAspectRatio="none" style="width:1495px;height:1225px;" version="1.1" viewBox="0 0 1495 1225" width="1495px" zoomAndPan="magnify"><defs><filter height="300%" id="f1d94v6v597mxa" width="300%" x="-1" y="-1"><feGaussianBlur result="blurOut" stdDeviation="2.0"/><feColorMatrix in="blurOut" result="blurOut2" type="matrix" values="0 0 0 0 0 0 0 0 0 0 0 0 0 0 0 0 0 0 .4 0"/><feOffset dx="4.0" dy="4.0" in="blurOut2" result="blurOut3"/><feBlend in="SourceGraphic" in2="blurOut3" mode="normal"/></filter></defs><g><text fill="#000000" font-family="sans-serif" font-size="18" lengthAdjust="spacingAndGlyphs" textLength="418" x="534" y="26.708">Gooner Alchemist - 5-Phase Sequence Diagram</text><rect fill="#FFFFFF" filter="url(#f1d94v6v597mxa)" height="75.3984" style="stroke: #000000; stroke-width: 2.0;" width="518.5" x="651.5" y="354.0469"/><rect fill="#FFFFFF" filter="url(#f1d94v6v597mxa)" height="75.3984" style="stroke: #000000; stroke-width: 2.0;" width="518.5" x="651.5" y="443.4453"/><rect fill="#FFFFFF" filter="url(#f1d94v6v597mxa)" height="117.5313" style="stroke: #000000; stroke-width: 2.0;" width="735.5" x="651.5" y="532.8438"/><rect fill="#FFFFFF" filter="url(#f1d94v6v597mxa)" height="117.5313" style="stroke: #000000; stroke-width: 2.0;" width="707.5" x="651.5" y="664.375"/><rect fill="#FFFFFF" filter="url(#f1d94v6v597mxa)" height="221.7344" style="stroke: #000000; stroke-width: 2.0;" width="831.5" x="641.5" y="795.9063"/><rect fill="#FFFFFF" filter="url(#f1d94v6v597mxa)" height="90.2031" style="stroke: #000000; stroke-width: 2.0;" width="811.5" x="651.5" y="920.4375"/><rect fill="#FFFFFF" height="43.9375" style="stroke: none; stroke-width: 1.0;" width="811.5" x="651.5" y="966.7031"/><line style="stroke: #A80036; stroke-width: 1.0; stroke-dasharray: 5.0,5.0;" x1="27" x2="27" y1="121.25" y2="1136.0391"/><line style="stroke: #A80036; stroke-width: 1.0; stroke-dasharray: 5.0,5.0;" x1="260" x2="260" y1="121.25" y2="1136.0391"/><line style="stroke: #A80036; stroke-width: 1.0; stroke-dasharray: 5.0,5.0;" x1="483.5" x2="483.5" y1="121.25" y2="1136.0391"/><line style="stroke: #A80036; stroke-width: 1.0; stroke-dasharray: 5.0,5.0;" x1="746.5" x2="746.5" y1="121.25" y2="1136.0391"/><line style="stroke: #A80036; stroke-width: 1.0; stroke-dasharray: 5.0,5.0;" x1="1098" x2="1098" y1="121.25" y2="1136.0391"/><line style="stroke: #A80036; stroke-width: 1.0; stroke-dasharray: 5.0,5.0;" x1="1382" x2="1382" y1="121.25" y2="1136.0391"/><text fill="#000000" font-family="sans-serif" font-size="14" lengthAdjust="spacingAndGlyphs" textLength="32" x="8" y="117.9482">User</text><ellipse cx="27" cy="47.9531" fill="#FEFECE" filter="url(#f1d94v6v597mxa)" rx="8" ry="8" style="stroke: #A80036; stroke-width: 2.0;"/><path d="M27,55.9531 L27,82.9531 M14,63.9531 L40,63.9531 M27,82.9531 L14,97.9531 M27,82.9531 L40,97.9531 " fill="none" filter="url(#f1d94v6v597mxa)" style="stroke: #A80036; stroke-width: 2.0;"/><text fill="#000000" font-family="sans-serif" font-size="14" lengthAdjust="spacingAndGlyphs" textLength="32" x="8" y="1148.0342">User</text><ellipse cx="27" cy="1161.3359" fill="#FEFECE" filter="url(#f1d94v6v597mxa)" rx="8" ry="8" style="stroke: #A80036; stroke-width: 2.0;"/><path d="M27,1169.3359 L27,1196.3359 M14,1177.3359 L40,1177.3359 M27,1196.3359 L14,1211.3359 M27,1196.3359 L40,1211.3359 " fill="none" filter="url(#f1d94v6v597mxa)" style="stroke: #A80036; stroke-width: 2.0;"/><rect fill="#FEFECE" filter="url(#f1d94v6v597mxa)" height="46.5938" style="stroke: #A80036; stroke-width: 1.5;" width="136" x="190" y="69.6563"/><text fill="#000000" font-family="sans-serif" font-size="14" lengthAdjust="spacingAndGlyphs" textLength="62" x="227" y="89.6514">Workflow</text><text fill="#000000" font-family="sans-serif" font-size="14" lengthAdjust="spacingAndGlyphs" textLength="122" x="197" y="105.9482">(Slash Command)</text><rect fill="#FEFECE" filter="url(#f1d94v6v597mxa)" height="46.5938" style="stroke: #A80036; stroke-width: 1.5;" width="136" x="190" y="1135.0391"/><text fill="#000000" font-family="sans-serif" font-size="14" lengthAdjust="spacingAndGlyphs" textLength="62" x="227" y="1155.0342">Workflow</text><text fill="#000000" font-family="sans-serif" font-size="14" lengthAdjust="spacingAndGlyphs" textLength="122" x="197" y="1171.3311">(Slash Command)</text><rect fill="#FEFECE" filter="url(#f1d94v6v597mxa)" height="46.5938" style="stroke: #A80036; stroke-width: 1.5;" width="127" x="418.5" y="69.6563"/><text fill="#000000" font-family="sans-serif" font-size="14" lengthAdjust="spacingAndGlyphs" textLength="113" x="425.5" y="89.6514">Director K Agent</text><text fill="#000000" font-family="sans-serif" font-size="14" lengthAdjust="spacingAndGlyphs" textLength="97" x="433.5" y="105.9482">(Orchestrator)</text><rect fill="#FEFECE" filter="url(#f1d94v6v597mxa)" height="46.5938" style="stroke: #A80036; stroke-width: 1.5;" width="127" x="418.5" y="1135.0391"/><text fill="#000000" font-family="sans-serif" font-size="14" lengthAdjust="spacingAndGlyphs" textLength="113" x="425.5" y="1155.0342">Director K Agent</text><text fill="#000000" font-family="sans-serif" font-size="14" lengthAdjust="spacingAndGlyphs" textLength="97" x="433.5" y="1171.3311">(Orchestrator)</text><rect fill="#FEFECE" filter="url(#f1d94v6v597mxa)" height="46.5938" style="stroke: #A80036; stroke-width: 1.5;" width="167" x="661.5" y="69.6563"/><text fill="#000000" font-family="sans-serif" font-size="14" lengthAdjust="spacingAndGlyphs" textLength="153" x="668.5" y="89.6514">Gooner Alchemist Skill</text><text fill="#000000" font-family="sans-serif" font-size="14" lengthAdjust="spacingAndGlyphs" textLength="69" x="710.5" y="105.9482">(Contract)</text><rect fill="#FEFECE" filter="url(#f1d94v6v597mxa)" height="46.5938" style="stroke: #A80036; stroke-width: 1.5;" width="167" x="661.5" y="1135.0391"/><text fill="#000000" font-family="sans-serif" font-size="14" lengthAdjust="spacingAndGlyphs" textLength="153" x="668.5" y="1155.0342">Gooner Alchemist Skill</text><text fill="#000000" font-family="sans-serif" font-size="14" lengthAdjust="spacingAndGlyphs" textLength="69" x="710.5" y="1171.3311">(Contract)</text><rect fill="#FEFECE" filter="url(#f1d94v6v597mxa)" height="46.5938" style="stroke: #A80036; stroke-width: 1.5;" width="120" x="1036" y="69.6563"/><text fill="#000000" font-family="sans-serif" font-size="14" lengthAdjust="spacingAndGlyphs" textLength="91" x="1050.5" y="89.6514">Sub-Systems</text><text fill="#000000" font-family="sans-serif" font-size="14" lengthAdjust="spacingAndGlyphs" textLength="106" x="1043" y="105.9482">(Core/Services)</text><rect fill="#FEFECE" filter="url(#f1d94v6v597mxa)" height="46.5938" style="stroke: #A80036; stroke-width: 1.5;" width="120" x="1036" y="1135.0391"/><text fill="#000000" font-family="sans-serif" font-size="14" lengthAdjust="spacingAndGlyphs" textLength="91" x="1050.5" y="1155.0342">Sub-Systems</text><text fill="#000000" font-family="sans-serif" font-size="14" lengthAdjust="spacingAndGlyphs" textLength="106" x="1043" y="1171.3311">(Core/Services)</text><text fill="#000000" font-family="sans-serif" font-size="14" lengthAdjust="spacingAndGlyphs" textLength="48" x="1355" y="101.6514">Output</text><text fill="#000000" font-family="sans-serif" font-size="14" lengthAdjust="spacingAndGlyphs" textLength="136" x="1311" y="117.9482">(chapter_prose.md)</text><path d="M1364,52.6563 C1364,42.6563 1382,42.6563 1382,42.6563 C1382,42.6563 1400,42.6563 1400,52.6563 L1400,78.6563 C1400,88.6563 1382,88.6563 1382,88.6563 C1382,88.6563 1364,88.6563 1364,78.6563 L1364,52.6563 " fill="#FEFECE" filter="url(#f1d94v6v597mxa)" style="stroke: #000000; stroke-width: 1.5;"/><path d="M1364,52.6563 C1364,62.6563 1382,62.6563 1382,62.6563 C1382,62.6563 1400,62.6563 1400,52.6563 " fill="none" style="stroke: #000000; stroke-width: 1.5;"/><text fill="#000000" font-family="sans-serif" font-size="14" lengthAdjust="spacingAndGlyphs" textLength="48" x="1355" y="1148.0342">Output</text><text fill="#000000" font-family="sans-serif" font-size="14" lengthAdjust="spacingAndGlyphs" textLength="136" x="1311" y="1164.3311">(chapter_prose.md)</text><path d="M1364,1177.6328 C1364,1167.6328 1382,1167.6328 1382,1167.6328 C1382,1167.6328 1400,1167.6328 1400,1177.6328 L1400,1203.6328 C1400,1213.6328 1382,1213.6328 1382,1213.6328 C1382,1213.6328 1364,1213.6328 1364,1203.6328 L1364,1177.6328 " fill="#FEFECE" filter="url(#f1d94v6v597mxa)" style="stroke: #000000; stroke-width: 1.5;"/><path d="M1364,1177.6328 C1364,1187.6328 1382,1187.6328 1382,1187.6328 C1382,1187.6328 1400,1187.6328 1400,1177.6328 " fill="none" style="stroke: #000000; stroke-width: 1.5;"/><rect fill="#EEEEEE" filter="url(#f1d94v6v597mxa)" height="3" style="stroke: #EEEEEE; stroke-width: 1.0;" width="1480" x="3" y="151.8164"/><line style="stroke: #000000; stroke-width: 1.0;" x1="3" x2="1483" y1="151.8164" y2="151.8164"/><line style="stroke: #000000; stroke-width: 1.0;" x1="3" x2="1483" y1="154.8164" y2="154.8164"/><rect fill="#EEEEEE" filter="url(#f1d94v6v597mxa)" height="23.1328" style="stroke: #000000; stroke-width: 2.0;" width="225" x="630.5" y="141.25"/><text fill="#000000" font-family="sans-serif" font-size="13" font-weight="bold" lengthAdjust="spacingAndGlyphs" textLength="206" x="636.5" y="157.3169">1. Orchestrator Initialization</text><polygon fill="#A80036" points="248,191.5156,258,195.5156,248,199.5156,252,195.5156" style="stroke: #A80036; stroke-width: 1.0;"/><line style="stroke: #A80036; stroke-width: 1.0;" x1="27" x2="254" y1="195.5156" y2="195.5156"/><text fill="#000000" font-family="sans-serif" font-size="13" lengthAdjust="spacingAndGlyphs" textLength="209" x="34" y="190.4497">/gooner-alchemist [corpus_path]</text><polygon fill="#A80036" points="472,220.6484,482,224.6484,472,228.6484,476,224.6484" style="stroke: #A80036; stroke-width: 1.0;"/><line style="stroke: #A80036; stroke-width: 1.0;" x1="260" x2="478" y1="224.6484" y2="224.6484"/><text fill="#000000" font-family="sans-serif" font-size="13" lengthAdjust="spacingAndGlyphs" textLength="200" x="267" y="219.5825">Load 'lnd-orchestrator' Persona</text><polygon fill="#A80036" points="735,249.7813,745,253.7813,735,257.7813,739,253.7813" style="stroke: #A80036; stroke-width: 1.0;"/><line style="stroke: #A80036; stroke-width: 1.0;" x1="484" x2="741" y1="253.7813" y2="253.7813"/><text fill="#000000" font-family="sans-serif" font-size="13" lengthAdjust="spacingAndGlyphs" textLength="239" x="491" y="248.7153">Route to 'gooner-alchemist/SKILL.md'</text><line style="stroke: #A80036; stroke-width: 1.0;" x1="747" x2="789" y1="282.9141" y2="282.9141"/><line style="stroke: #A80036; stroke-width: 1.0;" x1="789" x2="789" y1="282.9141" y2="295.9141"/><line style="stroke: #A80036; stroke-width: 1.0;" x1="748" x2="789" y1="295.9141" y2="295.9141"/><polygon fill="#A80036" points="758,291.9141,748,295.9141,758,299.9141,754,295.9141" style="stroke: #A80036; stroke-width: 1.0;"/><text fill="#000000" font-family="sans-serif" font-size="13" lengthAdjust="spacingAndGlyphs" textLength="337" x="754" y="277.8481">Inject 'narrative_style_pack' &amp; 'fetish_guidance_pack'</text><rect fill="#EEEEEE" filter="url(#f1d94v6v597mxa)" height="3" style="stroke: #EEEEEE; stroke-width: 1.0;" width="1480" x="3" y="324.4805"/><line style="stroke: #000000; stroke-width: 1.0;" x1="3" x2="1483" y1="324.4805" y2="324.4805"/><line style="stroke: #000000; stroke-width: 1.0;" x1="3" x2="1483" y1="327.4805" y2="327.4805"/><rect fill="#EEEEEE" filter="url(#f1d94v6v597mxa)" height="23.1328" style="stroke: #000000; stroke-width: 2.0;" width="227" x="629.5" y="313.9141"/><text fill="#000000" font-family="sans-serif" font-size="13" font-weight="bold" lengthAdjust="spacingAndGlyphs" textLength="208" x="635.5" y="329.981">2. Phase Execution Cascade</text><path d="M651.5,354.0469 L935.5,354.0469 L935.5,361.0469 L925.5,371.0469 L651.5,371.0469 L651.5,354.0469 " fill="#EEEEEE" style="stroke: #000000; stroke-width: 1.0;"/><rect fill="none" height="75.3984" style="stroke: #000000; stroke-width: 2.0;" width="518.5" x="651.5" y="354.0469"/><text fill="#000000" font-family="sans-serif" font-size="13" font-weight="bold" lengthAdjust="spacingAndGlyphs" textLength="239" x="666.5" y="367.1138">Phase 1: Input Analysis &amp; Triage</text><polygon fill="#A80036" points="1086,388.3125,1096,392.3125,1086,396.3125,1090,392.3125" style="stroke: #A80036; stroke-width: 1.0;"/><line style="stroke: #A80036; stroke-width: 1.0;" x1="747" x2="1092" y1="392.3125" y2="392.3125"/><text fill="#000000" font-family="sans-serif" font-size="13" lengthAdjust="spacingAndGlyphs" textLength="158" x="754" y="387.2466">Invoke Validation Module</text><polygon fill="#A80036" points="758,417.4453,748,421.4453,758,425.4453,754,421.4453" style="stroke: #A80036; stroke-width: 1.0;"/><line style="stroke: #A80036; stroke-width: 1.0; stroke-dasharray: 2.0,2.0;" x1="752" x2="1097" y1="421.4453" y2="421.4453"/><text fill="#000000" font-family="sans-serif" font-size="13" lengthAdjust="spacingAndGlyphs" textLength="151" x="764" y="416.3794">Verified corpus integrity</text><path d="M651.5,443.4453 L1044.5,443.4453 L1044.5,450.4453 L1034.5,460.4453 L651.5,460.4453 L651.5,443.4453 " fill="#EEEEEE" style="stroke: #000000; stroke-width: 1.0;"/><rect fill="none" height="75.3984" style="stroke: #000000; stroke-width: 2.0;" width="518.5" x="651.5" y="443.4453"/><text fill="#000000" font-family="sans-serif" font-size="13" font-weight="bold" lengthAdjust="spacingAndGlyphs" textLength="348" x="666.5" y="456.5122">Phase 2: Parallel Visual &amp; Transcript Alignment</text><polygon fill="#A80036" points="1086,477.7109,1096,481.7109,1086,485.7109,1090,481.7109" style="stroke: #A80036; stroke-width: 1.0;"/><line style="stroke: #A80036; stroke-width: 1.0;" x1="747" x2="1092" y1="481.7109" y2="481.7109"/><text fill="#000000" font-family="sans-serif" font-size="13" lengthAdjust="spacingAndGlyphs" textLength="169" x="754" y="476.645">Call 'Panel Forensic' (Core)</text><polygon fill="#A80036" points="758,506.8438,748,510.8438,758,514.8438,754,510.8438" style="stroke: #A80036; stroke-width: 1.0;"/><line style="stroke: #A80036; stroke-width: 1.0; stroke-dasharray: 2.0,2.0;" x1="752" x2="1097" y1="510.8438" y2="510.8438"/><text fill="#000000" font-family="sans-serif" font-size="13" lengthAdjust="spacingAndGlyphs" textLength="171" x="764" y="505.7778">Returns forensic-state.json</text><path d="M651.5,532.8438 L1091.5,532.8438 L1091.5,539.8438 L1081.5,549.8438 L651.5,549.8438 L651.5,532.8438 " fill="#EEEEEE" style="stroke: #000000; stroke-width: 1.0;"/><rect fill="none" height="117.5313" style="stroke: #000000; stroke-width: 2.0;" width="735.5" x="651.5" y="532.8438"/><text fill="#000000" font-family="sans-serif" font-size="13" font-weight="bold" lengthAdjust="spacingAndGlyphs" textLength="395" x="666.5" y="545.9106">Phase 3: R18 Detail Expansion (The Alchemist Phase)</text><polygon fill="#A80036" points="1086,567.1094,1096,571.1094,1086,575.1094,1090,571.1094" style="stroke: #A80036; stroke-width: 1.0;"/><line style="stroke: #A80036; stroke-width: 1.0;" x1="747" x2="1092" y1="571.1094" y2="571.1094"/><text fill="#000000" font-family="sans-serif" font-size="13" lengthAdjust="spacingAndGlyphs" textLength="129" x="754" y="566.0435">Inject sensory packs</text><line style="stroke: #A80036; stroke-width: 1.0;" x1="1098" x2="1140" y1="600.2422" y2="600.2422"/><line style="stroke: #A80036; stroke-width: 1.0;" x1="1140" x2="1140" y1="600.2422" y2="613.2422"/><line style="stroke: #A80036; stroke-width: 1.0;" x1="1099" x2="1140" y1="613.2422" y2="613.2422"/><polygon fill="#A80036" points="1109,609.2422,1099,613.2422,1109,617.2422,1105,613.2422" style="stroke: #A80036; stroke-width: 1.0;"/><text fill="#000000" font-family="sans-serif" font-size="13" lengthAdjust="spacingAndGlyphs" textLength="270" x="1105" y="595.1763">Amplify smells, fluids, psychological states</text><polygon fill="#A80036" points="758,638.375,748,642.375,758,646.375,754,642.375" style="stroke: #A80036; stroke-width: 1.0;"/><line style="stroke: #A80036; stroke-width: 1.0; stroke-dasharray: 2.0,2.0;" x1="752" x2="1097" y1="642.375" y2="642.375"/><text fill="#000000" font-family="sans-serif" font-size="13" lengthAdjust="spacingAndGlyphs" textLength="188" x="764" y="637.3091">Returns expanded_script.json</text><path d="M651.5,664.375 L882.5,664.375 L882.5,671.375 L872.5,681.375 L651.5,681.375 L651.5,664.375 " fill="#EEEEEE" style="stroke: #000000; stroke-width: 1.0;"/><rect fill="none" height="117.5313" style="stroke: #000000; stroke-width: 2.0;" width="707.5" x="651.5" y="664.375"/><text fill="#000000" font-family="sans-serif" font-size="13" font-weight="bold" lengthAdjust="spacingAndGlyphs" textLength="186" x="666.5" y="677.4419">Phase 4: Prose Synthesis</text><polygon fill="#A80036" points="1086,698.6406,1096,702.6406,1086,706.6406,1090,702.6406" style="stroke: #A80036; stroke-width: 1.0;"/><line style="stroke: #A80036; stroke-width: 1.0;" x1="747" x2="1092" y1="702.6406" y2="702.6406"/><text fill="#000000" font-family="sans-serif" font-size="13" lengthAdjust="spacingAndGlyphs" textLength="150" x="754" y="697.5747">Call 'Lewd Writer' (Core)</text><line style="stroke: #A80036; stroke-width: 1.0;" x1="1098" x2="1140" y1="731.7734" y2="731.7734"/><line style="stroke: #A80036; stroke-width: 1.0;" x1="1140" x2="1140" y1="731.7734" y2="744.7734"/><line style="stroke: #A80036; stroke-width: 1.0;" x1="1099" x2="1140" y1="744.7734" y2="744.7734"/><polygon fill="#A80036" points="1109,740.7734,1099,744.7734,1109,748.7734,1105,744.7734" style="stroke: #A80036; stroke-width: 1.0;"/><text fill="#000000" font-family="sans-serif" font-size="13" lengthAdjust="spacingAndGlyphs" textLength="242" x="1105" y="726.7075">Apply Mesugaki / R18 LightNovel Style</text><polygon fill="#A80036" points="758,769.9063,748,773.9063,758,777.9063,754,773.9063" style="stroke: #A80036; stroke-width: 1.0;"/><line style="stroke: #A80036; stroke-width: 1.0; stroke-dasharray: 2.0,2.0;" x1="752" x2="1097" y1="773.9063" y2="773.9063"/><text fill="#000000" font-family="sans-serif" font-size="13" lengthAdjust="spacingAndGlyphs" textLength="177" x="764" y="768.8403">Returns raw prose structure</text><path d="M641.5,795.9063 L936.5,795.9063 L936.5,802.9063 L926.5,812.9063 L641.5,812.9063 L641.5,795.9063 " fill="#EEEEEE" style="stroke: #000000; stroke-width: 1.0;"/><rect fill="none" height="221.7344" style="stroke: #000000; stroke-width: 2.0;" width="831.5" x="641.5" y="795.9063"/><text fill="#000000" font-family="sans-serif" font-size="13" font-weight="bold" lengthAdjust="spacingAndGlyphs" textLength="250" x="656.5" y="808.9731">Phase 5: Mandatory Gooner Audit</text><polygon fill="#A80036" points="1086,830.1719,1096,834.1719,1086,838.1719,1090,834.1719" style="stroke: #A80036; stroke-width: 1.0;"/><line style="stroke: #A80036; stroke-width: 1.0;" x1="747" x2="1092" y1="834.1719" y2="834.1719"/><text fill="#000000" font-family="sans-serif" font-size="13" lengthAdjust="spacingAndGlyphs" textLength="182" x="754" y="829.106">Call 'Quality Audit' (Services)</text><line style="stroke: #A80036; stroke-width: 1.0;" x1="1098" x2="1140" y1="863.3047" y2="863.3047"/><line style="stroke: #A80036; stroke-width: 1.0;" x1="1140" x2="1140" y1="863.3047" y2="876.3047"/><line style="stroke: #A80036; stroke-width: 1.0;" x1="1099" x2="1140" y1="876.3047" y2="876.3047"/><polygon fill="#A80036" points="1109,872.3047,1099,876.3047,1109,880.3047,1105,876.3047" style="stroke: #A80036; stroke-width: 1.0;"/><text fill="#000000" font-family="sans-serif" font-size="13" lengthAdjust="spacingAndGlyphs" textLength="183" x="1105" y="858.2388">Enforce 'Pervert POV' checks</text><polygon fill="#A80036" points="758,901.4375,748,905.4375,758,909.4375,754,905.4375" style="stroke: #A80036; stroke-width: 1.0;"/><line style="stroke: #A80036; stroke-width: 1.0; stroke-dasharray: 2.0,2.0;" x1="752" x2="1097" y1="905.4375" y2="905.4375"/><text fill="#000000" font-family="sans-serif" font-size="13" lengthAdjust="spacingAndGlyphs" textLength="124" x="764" y="900.3716">Returns audit score</text><path d="M651.5,920.4375 L715.5,920.4375 L715.5,927.4375 L705.5,937.4375 L651.5,937.4375 L651.5,920.4375 " fill="#EEEEEE" style="stroke: #000000; stroke-width: 1.0;"/><rect fill="none" height="90.2031" style="stroke: #000000; stroke-width: 2.0;" width="811.5" x="651.5" y="920.4375"/><text fill="#000000" font-family="sans-serif" font-size="13" font-weight="bold" lengthAdjust="spacingAndGlyphs" textLength="19" x="666.5" y="933.5044">alt</text><text fill="#000000" font-family="sans-serif" font-size="11" font-weight="bold" lengthAdjust="spacingAndGlyphs" textLength="173" x="730.5" y="932.6479">[Score is Below Threshold]</text><polygon fill="#A80036" points="1086,954.7031,1096,958.7031,1086,962.7031,1090,958.7031" style="stroke: #A80036; stroke-width: 1.0;"/><line style="stroke: #A80036; stroke-width: 1.0;" x1="747" x2="1092" y1="958.7031" y2="958.7031"/><text fill="#000000" font-family="sans-serif" font-size="13" lengthAdjust="spacingAndGlyphs" textLength="285" x="754" y="953.6372">Reject sequence &amp; request rewrite (Phase 4)</text><line style="stroke: #000000; stroke-width: 1.0; stroke-dasharray: 2.0,2.0;" x1="651.5" x2="1463" y1="967.7031" y2="967.7031"/><text fill="#000000" font-family="sans-serif" font-size="11" font-weight="bold" lengthAdjust="spacingAndGlyphs" textLength="115" x="656.5" y="977.9136">[Score is Passing]</text><polygon fill="#A80036" points="1370,998.6406,1380,1002.6406,1370,1006.6406,1374,1002.6406" style="stroke: #A80036; stroke-width: 1.0;"/><line style="stroke: #A80036; stroke-width: 1.0;" x1="747" x2="1376" y1="1002.6406" y2="1002.6406"/><text fill="#000000" font-family="sans-serif" font-size="13" lengthAdjust="spacingAndGlyphs" textLength="172" x="754" y="997.5747">Commit chapter_prose.md</text><rect fill="#EEEEEE" filter="url(#f1d94v6v597mxa)" height="3" style="stroke: #EEEEEE; stroke-width: 1.0;" width="1480" x="3" y="1045.207"/><line style="stroke: #000000; stroke-width: 1.0;" x1="3" x2="1483" y1="1045.207" y2="1045.207"/><line style="stroke: #000000; stroke-width: 1.0;" x1="3" x2="1483" y1="1048.207" y2="1048.207"/><rect fill="#EEEEEE" filter="url(#f1d94v6v597mxa)" height="23.1328" style="stroke: #000000; stroke-width: 2.0;" width="122" x="682" y="1034.6406"/><text fill="#000000" font-family="sans-serif" font-size="13" font-weight="bold" lengthAdjust="spacingAndGlyphs" textLength="103" x="688" y="1050.7075">3. Finalization</text><polygon fill="#A80036" points="495,1084.9063,485,1088.9063,495,1092.9063,491,1088.9063" style="stroke: #A80036; stroke-width: 1.0;"/><line style="stroke: #A80036; stroke-width: 1.0;" x1="489" x2="746" y1="1088.9063" y2="1088.9063"/><text fill="#000000" font-family="sans-serif" font-size="13" lengthAdjust="spacingAndGlyphs" textLength="151" x="501" y="1083.8403">Return artifact mapping</text><polygon fill="#A80036" points="38,1114.0391,28,1118.0391,38,1122.0391,34,1118.0391" style="stroke: #A80036; stroke-width: 1.0;"/><line style="stroke: #A80036; stroke-width: 1.0;" x1="32" x2="483" y1="1118.0391" y2="1118.0391"/><text fill="#000000" font-family="sans-serif" font-size="13" lengthAdjust="spacingAndGlyphs" textLength="137" x="44" y="1112.9731">Present Final Chapter</text><!--MD5=[2400fd7ead3fccce49af052b03536ec9]
@startuml


title Gooner Alchemist - 5-Phase Sequence Diagram

actor User
participant "Workflow\n(Slash Command)" as Trigger
participant "Director K Agent\n(Orchestrator)" as Orchestrator
participant "Gooner Alchemist Skill\n(Contract)" as Skill
participant "Sub-Systems\n(Core/Services)" as Modules
database "Output\n(chapter_prose.md)" as Output

== 1. Orchestrator Initialization ==
User -> Trigger: /gooner-alchemist [corpus_path]
Trigger -> Orchestrator: Load 'lnd-orchestrator' Persona
Orchestrator -> Skill: Route to 'gooner-alchemist/SKILL.md'
Skill -> Skill: Inject 'narrative_style_pack' & 'fetish_guidance_pack'

== 2. Phase Execution Cascade ==

group Phase 1: Input Analysis & Triage
    Skill -> Modules: Invoke Validation Module
    Modules - -> Skill: Verified corpus integrity
end

group Phase 2: Parallel Visual & Transcript Alignment
    Skill -> Modules: Call 'Panel Forensic' (Core)
    Modules - -> Skill: Returns forensic-state.json
end

group Phase 3: R18 Detail Expansion (The Alchemist Phase)
    Skill -> Modules: Inject sensory packs
    Modules -> Modules: Amplify smells, fluids, psychological states
    Modules - -> Skill: Returns expanded_script.json
end

group Phase 4: Prose Synthesis
    Skill -> Modules: Call 'Lewd Writer' (Core)
    Modules -> Modules: Apply Mesugaki / R18 LightNovel Style
    Modules - -> Skill: Returns raw prose structure
end

group Phase 5: Mandatory Gooner Audit
    Skill -> Modules: Call 'Quality Audit' (Services)
    Modules -> Modules: Enforce 'Pervert POV' checks
    Modules - -> Skill: Returns audit score
    
    alt Score is Below Threshold
        Skill -> Modules: Reject sequence & request rewrite (Phase 4)
    else Score is Passing
        Skill -> Output: Commit chapter_prose.md
    end
end

== 3. Finalization ==
Skill -> Orchestrator: Return artifact mapping
Orchestrator -> User: Present Final Chapter
@enduml

PlantUML version 1.2020.02(Sun Mar 01 17:22:07 ICT 2020)
(GPL source distribution)
Java Runtime: OpenJDK Runtime Environment
JVM: OpenJDK 64-Bit Server VM
Java Version: 21.0.10+7-Ubuntu-124.04
Operating System: Linux
Default Encoding: UTF-8
Language: en
Country: US
--></g></svg>