<?xml version="1.0" encoding="UTF-8" standalone="no"?><svg xmlns="http://www.w3.org/2000/svg" xmlns:xlink="http://www.w3.org/1999/xlink" contentScriptType="application/ecmascript" contentStyleType="text/css" height="974px" preserveAspectRatio="none" style="width:1897px;height:974px;" version="1.1" viewBox="0 0 1897 974" width="1897px" zoomAndPan="magnify"><defs><filter height="300%" id="fayphib69f0ei" width="300%" x="-1" y="-1"><feGaussianBlur result="blurOut" stdDeviation="2.0"/><feColorMatrix in="blurOut" result="blurOut2" type="matrix" values="0 0 0 0 0 0 0 0 0 0 0 0 0 0 0 0 0 0 .4 0"/><feOffset dx="4.0" dy="4.0" in="blurOut2" result="blurOut3"/><feBlend in="SourceGraphic" in2="blurOut3" mode="normal"/></filter></defs><g><text fill="#000000" font-family="sans-serif" font-size="18" lengthAdjust="spacingAndGlyphs" textLength="503" x="692.75" y="26.708">LND Studio v1.0.0 - Global Execution Sequence Diagram</text><rect fill="#FFFFFF" filter="url(#fayphib69f0ei)" height="673.5234" style="stroke: #A80036; stroke-width: 1.0;" width="10" x="328" y="195.5156"/><rect fill="#FFFFFF" filter="url(#fayphib69f0ei)" height="573.125" style="stroke: #A80036; stroke-width: 1.0;" width="10" x="633" y="266.7813"/><rect fill="#FFFFFF" filter="url(#fayphib69f0ei)" height="230.9297" style="stroke: #A80036; stroke-width: 1.0;" width="10" x="979" y="423.3125"/><rect fill="#FFFFFF" filter="url(#fayphib69f0ei)" height="29.1328" style="stroke: #A80036; stroke-width: 1.0;" width="10" x="1337" y="537.7109"/><rect fill="#FFFFFF" filter="url(#fayphib69f0ei)" height="29.1328" style="stroke: #A80036; stroke-width: 1.0;" width="10" x="1475.5" y="595.9766"/><rect fill="#FFFFFF" filter="url(#fayphib69f0ei)" height="156.5313" style="stroke: #A80036; stroke-width: 1.0;" width="10" x="1636.5" y="654.2422"/><line style="stroke: #A80036; stroke-width: 1.0; stroke-dasharray: 5.0,5.0;" x1="27" x2="27" y1="121.25" y2="887.0391"/><line style="stroke: #A80036; stroke-width: 1.0; stroke-dasharray: 5.0,5.0;" x1="333" x2="333" y1="121.25" y2="887.0391"/><line style="stroke: #A80036; stroke-width: 1.0; stroke-dasharray: 5.0,5.0;" x1="637.5" x2="637.5" y1="121.25" y2="887.0391"/><line style="stroke: #A80036; stroke-width: 1.0; stroke-dasharray: 5.0,5.0;" x1="983.5" x2="983.5" y1="121.25" y2="887.0391"/><line style="stroke: #A80036; stroke-width: 1.0; stroke-dasharray: 5.0,5.0;" x1="1341.5" x2="1341.5" y1="121.25" y2="887.0391"/><line style="stroke: #A80036; stroke-width: 1.0; stroke-dasharray: 5.0,5.0;" x1="1480.5" x2="1480.5" y1="121.25" y2="887.0391"/><line style="stroke: #A80036; stroke-width: 1.0; stroke-dasharray: 5.0,5.0;" x1="1641.5" x2="1641.5" y1="121.25" y2="887.0391"/><text fill="#000000" font-family="sans-serif" font-size="14" lengthAdjust="spacingAndGlyphs" textLength="32" x="8" y="117.9482">User</text><ellipse cx="27" cy="47.9531" fill="#FEFECE" filter="url(#fayphib69f0ei)" rx="8" ry="8" style="stroke: #A80036; stroke-width: 2.0;"/><path d="M27,55.9531 L27,82.9531 M14,63.9531 L40,63.9531 M27,82.9531 L14,97.9531 M27,82.9531 L40,97.9531 " fill="none" filter="url(#fayphib69f0ei)" style="stroke: #A80036; stroke-width: 2.0;"/><text fill="#000000" font-family="sans-serif" font-size="14" lengthAdjust="spacingAndGlyphs" textLength="32" x="8" y="899.0342">User</text><ellipse cx="27" cy="912.3359" fill="#FEFECE" filter="url(#fayphib69f0ei)" rx="8" ry="8" style="stroke: #A80036; stroke-width: 2.0;"/><path d="M27,920.3359 L27,947.3359 M14,928.3359 L40,928.3359 M27,947.3359 L14,962.3359 M27,947.3359 L40,962.3359 " fill="none" filter="url(#fayphib69f0ei)" style="stroke: #A80036; stroke-width: 2.0;"/><rect fill="#FEFECE" filter="url(#fayphib69f0ei)" height="46.5938" style="stroke: #A80036; stroke-width: 1.5;" width="136" x="263" y="69.6563"/><text fill="#000000" font-family="sans-serif" font-size="14" lengthAdjust="spacingAndGlyphs" textLength="122" x="270" y="89.6514">.agent/workflows/</text><text fill="#000000" font-family="sans-serif" font-size="14" lengthAdjust="spacingAndGlyphs" textLength="122" x="270" y="105.9482">(Slash Command)</text><rect fill="#FEFECE" filter="url(#fayphib69f0ei)" height="46.5938" style="stroke: #A80036; stroke-width: 1.5;" width="136" x="263" y="886.0391"/><text fill="#000000" font-family="sans-serif" font-size="14" lengthAdjust="spacingAndGlyphs" textLength="122" x="270" y="906.0342">.agent/workflows/</text><text fill="#000000" font-family="sans-serif" font-size="14" lengthAdjust="spacingAndGlyphs" textLength="122" x="270" y="922.3311">(Slash Command)</text><rect fill="#FEFECE" filter="url(#fayphib69f0ei)" height="46.5938" style="stroke: #A80036; stroke-width: 1.5;" width="149" x="561.5" y="69.6563"/><text fill="#000000" font-family="sans-serif" font-size="14" lengthAdjust="spacingAndGlyphs" textLength="101" x="585.5" y="89.6514">studio/agents/</text><text fill="#000000" font-family="sans-serif" font-size="14" lengthAdjust="spacingAndGlyphs" textLength="135" x="568.5" y="105.9482">(Persona &amp; Engine)</text><rect fill="#FEFECE" filter="url(#fayphib69f0ei)" height="46.5938" style="stroke: #A80036; stroke-width: 1.5;" width="149" x="561.5" y="886.0391"/><text fill="#000000" font-family="sans-serif" font-size="14" lengthAdjust="spacingAndGlyphs" textLength="101" x="585.5" y="906.0342">studio/agents/</text><text fill="#000000" font-family="sans-serif" font-size="14" lengthAdjust="spacingAndGlyphs" textLength="135" x="568.5" y="922.3311">(Persona &amp; Engine)</text><rect fill="#FEFECE" filter="url(#fayphib69f0ei)" height="46.5938" style="stroke: #A80036; stroke-width: 1.5;" width="161" x="901.5" y="69.6563"/><text fill="#000000" font-family="sans-serif" font-size="14" lengthAdjust="spacingAndGlyphs" textLength="61" x="951.5" y="89.6514">SKILL.md</text><text fill="#000000" font-family="sans-serif" font-size="14" lengthAdjust="spacingAndGlyphs" textLength="147" x="908.5" y="105.9482">(Contract &amp; Injection)</text><rect fill="#FEFECE" filter="url(#fayphib69f0ei)" height="46.5938" style="stroke: #A80036; stroke-width: 1.5;" width="161" x="901.5" y="886.0391"/><text fill="#000000" font-family="sans-serif" font-size="14" lengthAdjust="spacingAndGlyphs" textLength="61" x="951.5" y="906.0342">SKILL.md</text><text fill="#000000" font-family="sans-serif" font-size="14" lengthAdjust="spacingAndGlyphs" textLength="147" x="908.5" y="922.3311">(Contract &amp; Injection)</text><rect fill="#FEFECE" filter="url(#fayphib69f0ei)" height="46.5938" style="stroke: #A80036; stroke-width: 1.5;" width="135" x="1272.5" y="69.6563"/><text fill="#000000" font-family="sans-serif" font-size="14" lengthAdjust="spacingAndGlyphs" textLength="81" x="1299.5" y="89.6514">knowledge/</text><text fill="#000000" font-family="sans-serif" font-size="14" lengthAdjust="spacingAndGlyphs" textLength="121" x="1279.5" y="105.9482">(Domain Context)</text><rect fill="#FEFECE" filter="url(#fayphib69f0ei)" height="46.5938" style="stroke: #A80036; stroke-width: 1.5;" width="135" x="1272.5" y="886.0391"/><text fill="#000000" font-family="sans-serif" font-size="14" lengthAdjust="spacingAndGlyphs" textLength="81" x="1299.5" y="906.0342">knowledge/</text><text fill="#000000" font-family="sans-serif" font-size="14" lengthAdjust="spacingAndGlyphs" textLength="121" x="1279.5" y="922.3311">(Domain Context)</text><rect fill="#FEFECE" filter="url(#fayphib69f0ei)" height="46.5938" style="stroke: #A80036; stroke-width: 1.5;" width="114" x="1421.5" y="69.6563"/><text fill="#000000" font-family="sans-serif" font-size="14" lengthAdjust="spacingAndGlyphs" textLength="65" x="1446" y="89.6514">modules/</text><text fill="#000000" font-family="sans-serif" font-size="14" lengthAdjust="spacingAndGlyphs" textLength="100" x="1428.5" y="105.9482">(Sub-systems)</text><rect fill="#FEFECE" filter="url(#fayphib69f0ei)" height="46.5938" style="stroke: #A80036; stroke-width: 1.5;" width="114" x="1421.5" y="886.0391"/><text fill="#000000" font-family="sans-serif" font-size="14" lengthAdjust="spacingAndGlyphs" textLength="65" x="1446" y="906.0342">modules/</text><text fill="#000000" font-family="sans-serif" font-size="14" lengthAdjust="spacingAndGlyphs" textLength="100" x="1428.5" y="922.3311">(Sub-systems)</text><rect fill="#FEFECE" filter="url(#fayphib69f0ei)" height="46.5938" style="stroke: #A80036; stroke-width: 1.5;" width="180" x="1549.5" y="69.6563"/><text fill="#000000" font-family="sans-serif" font-size="14" lengthAdjust="spacingAndGlyphs" textLength="166" x="1556.5" y="89.6514">references/workflow.md</text><text fill="#000000" font-family="sans-serif" font-size="14" lengthAdjust="spacingAndGlyphs" textLength="82" x="1598.5" y="105.9482">(Step Logic)</text><rect fill="#FEFECE" filter="url(#fayphib69f0ei)" height="46.5938" style="stroke: #A80036; stroke-width: 1.5;" width="180" x="1549.5" y="886.0391"/><text fill="#000000" font-family="sans-serif" font-size="14" lengthAdjust="spacingAndGlyphs" textLength="166" x="1556.5" y="906.0342">references/workflow.md</text><text fill="#000000" font-family="sans-serif" font-size="14" lengthAdjust="spacingAndGlyphs" textLength="82" x="1598.5" y="922.3311">(Step Logic)</text><rect fill="#FFFFFF" filter="url(#fayphib69f0ei)" height="673.5234" style="stroke: #A80036; stroke-width: 1.0;" width="10" x="328" y="195.5156"/><rect fill="#FFFFFF" filter="url(#fayphib69f0ei)" height="573.125" style="stroke: #A80036; stroke-width: 1.0;" width="10" x="633" y="266.7813"/><rect fill="#FFFFFF" filter="url(#fayphib69f0ei)" height="230.9297" style="stroke: #A80036; stroke-width: 1.0;" width="10" x="979" y="423.3125"/><rect fill="#FFFFFF" filter="url(#fayphib69f0ei)" height="29.1328" style="stroke: #A80036; stroke-width: 1.0;" width="10" x="1337" y="537.7109"/><rect fill="#FFFFFF" filter="url(#fayphib69f0ei)" height="29.1328" style="stroke: #A80036; stroke-width: 1.0;" width="10" x="1475.5" y="595.9766"/><rect fill="#FFFFFF" filter="url(#fayphib69f0ei)" height="156.5313" style="stroke: #A80036; stroke-width: 1.0;" width="10" x="1636.5" y="654.2422"/><rect fill="#EEEEEE" filter="url(#fayphib69f0ei)" height="3" style="stroke: #EEEEEE; stroke-width: 1.0;" width="1882.5" x="3" y="151.8164"/><line style="stroke: #000000; stroke-width: 1.0;" x1="3" x2="1885.5" y1="151.8164" y2="151.8164"/><line style="stroke: #000000; stroke-width: 1.0;" x1="3" x2="1885.5" y1="154.8164" y2="154.8164"/><rect fill="#EEEEEE" filter="url(#fayphib69f0ei)" height="23.1328" style="stroke: #000000; stroke-width: 2.0;" width="236" x="826.25" y="141.25"/><text fill="#000000" font-family="sans-serif" font-size="13" font-weight="bold" lengthAdjust="spacingAndGlyphs" textLength="217" x="832.25" y="157.3169">1. Workflow Trigger (Layer 1)</text><polygon fill="#A80036" points="316,191.5156,326,195.5156,316,199.5156,320,195.5156" style="stroke: #A80036; stroke-width: 1.0;"/><line style="stroke: #A80036; stroke-width: 1.0;" x1="27" x2="322" y1="195.5156" y2="195.5156"/><text fill="#000000" font-family="sans-serif" font-size="13" lengthAdjust="spacingAndGlyphs" textLength="282" x="34" y="190.4497">Trigger Slash Command (e.g. /gooner-audit)</text><line style="stroke: #A80036; stroke-width: 1.0;" x1="338" x2="380" y1="224.6484" y2="224.6484"/><line style="stroke: #A80036; stroke-width: 1.0;" x1="380" x2="380" y1="224.6484" y2="237.6484"/><line style="stroke: #A80036; stroke-width: 1.0;" x1="339" x2="380" y1="237.6484" y2="237.6484"/><polygon fill="#A80036" points="349,233.6484,339,237.6484,349,241.6484,345,237.6484" style="stroke: #A80036; stroke-width: 1.0;"/><text fill="#000000" font-family="sans-serif" font-size="13" lengthAdjust="spacingAndGlyphs" textLength="186" x="345" y="219.5825">Parse instruction parameters</text><polygon fill="#A80036" points="621,262.7813,631,266.7813,621,270.7813,625,266.7813" style="stroke: #A80036; stroke-width: 1.0;"/><line style="stroke: #A80036; stroke-width: 1.0;" x1="338" x2="627" y1="266.7813" y2="266.7813"/><text fill="#000000" font-family="sans-serif" font-size="13" lengthAdjust="spacingAndGlyphs" textLength="276" x="345" y="261.7153">LOAD FULL agent yaml (e.g. gooner-editor)</text><rect fill="#EEEEEE" filter="url(#fayphib69f0ei)" height="3" style="stroke: #EEEEEE; stroke-width: 1.0;" width="1882.5" x="3" y="295.3477"/><line style="stroke: #000000; stroke-width: 1.0;" x1="3" x2="1885.5" y1="295.3477" y2="295.3477"/><line style="stroke: #000000; stroke-width: 1.0;" x1="3" x2="1885.5" y1="298.3477" y2="298.3477"/><rect fill="#EEEEEE" filter="url(#fayphib69f0ei)" height="23.1328" style="stroke: #000000; stroke-width: 2.0;" width="231" x="828.75" y="284.7813"/><text fill="#000000" font-family="sans-serif" font-size="13" font-weight="bold" lengthAdjust="spacingAndGlyphs" textLength="212" x="834.75" y="300.8481">2. Agent Bootstrap (Layer 2)</text><line style="stroke: #A80036; stroke-width: 1.0;" x1="643" x2="685" y1="339.0469" y2="339.0469"/><line style="stroke: #A80036; stroke-width: 1.0;" x1="685" x2="685" y1="339.0469" y2="352.0469"/><line style="stroke: #A80036; stroke-width: 1.0;" x1="644" x2="685" y1="352.0469" y2="352.0469"/><polygon fill="#A80036" points="654,348.0469,644,352.0469,654,356.0469,650,352.0469" style="stroke: #A80036; stroke-width: 1.0;"/><text fill="#000000" font-family="sans-serif" font-size="13" lengthAdjust="spacingAndGlyphs" textLength="286" x="650" y="333.981">Resolve {project-root} via `BOOTSTRAP.md`</text><line style="stroke: #A80036; stroke-width: 1.0;" x1="643" x2="685" y1="381.1797" y2="381.1797"/><line style="stroke: #A80036; stroke-width: 1.0;" x1="685" x2="685" y1="381.1797" y2="394.1797"/><line style="stroke: #A80036; stroke-width: 1.0;" x1="644" x2="685" y1="394.1797" y2="394.1797"/><polygon fill="#A80036" points="654,390.1797,644,394.1797,654,398.1797,650,394.1797" style="stroke: #A80036; stroke-width: 1.0;"/><text fill="#000000" font-family="sans-serif" font-size="13" lengthAdjust="spacingAndGlyphs" textLength="266" x="650" y="376.1138">Load Global Rules (`global_rule_hub.md`)</text><polygon fill="#A80036" points="967,419.3125,977,423.3125,967,427.3125,971,423.3125" style="stroke: #A80036; stroke-width: 1.0;"/><line style="stroke: #A80036; stroke-width: 1.0;" x1="643" x2="973" y1="423.3125" y2="423.3125"/><text fill="#000000" font-family="sans-serif" font-size="13" lengthAdjust="spacingAndGlyphs" textLength="317" x="650" y="418.2466">Route to designated SKILL.md via action mapping</text><rect fill="#EEEEEE" filter="url(#fayphib69f0ei)" height="3" style="stroke: #EEEEEE; stroke-width: 1.0;" width="1882.5" x="3" y="451.8789"/><line style="stroke: #000000; stroke-width: 1.0;" x1="3" x2="1885.5" y1="451.8789" y2="451.8789"/><line style="stroke: #000000; stroke-width: 1.0;" x1="3" x2="1885.5" y1="454.8789" y2="454.8789"/><rect fill="#EEEEEE" filter="url(#fayphib69f0ei)" height="23.1328" style="stroke: #000000; stroke-width: 2.0;" width="261" x="813.75" y="441.3125"/><text fill="#000000" font-family="sans-serif" font-size="13" font-weight="bold" lengthAdjust="spacingAndGlyphs" textLength="242" x="819.75" y="457.3794">3. Skill &amp; Auto-Injection (Layer 3)</text><line style="stroke: #A80036; stroke-width: 1.0;" x1="989" x2="1031" y1="495.5781" y2="495.5781"/><line style="stroke: #A80036; stroke-width: 1.0;" x1="1031" x2="1031" y1="495.5781" y2="508.5781"/><line style="stroke: #A80036; stroke-width: 1.0;" x1="990" x2="1031" y1="508.5781" y2="508.5781"/><polygon fill="#A80036" points="1000,504.5781,990,508.5781,1000,512.5781,996,508.5781" style="stroke: #A80036; stroke-width: 1.0;"/><text fill="#000000" font-family="sans-serif" font-size="13" lengthAdjust="spacingAndGlyphs" textLength="334" x="996" y="490.5122">Parse YAML Frontmatter &amp; `dependencies` contract</text><polygon fill="#A80036" points="1325,533.7109,1335,537.7109,1325,541.7109,1329,537.7109" style="stroke: #A80036; stroke-width: 1.0;"/><line style="stroke: #A80036; stroke-width: 1.0;" x1="989" x2="1331" y1="537.7109" y2="537.7109"/><text fill="#000000" font-family="sans-serif" font-size="13" lengthAdjust="spacingAndGlyphs" textLength="308" x="996" y="532.645">Request Read-Only Context (from `knowledge/`)</text><polygon fill="#A80036" points="1000,562.8438,990,566.8438,1000,570.8438,996,566.8438" style="stroke: #A80036; stroke-width: 1.0;"/><line style="stroke: #A80036; stroke-width: 1.0; stroke-dasharray: 2.0,2.0;" x1="994" x2="1341" y1="566.8438" y2="566.8438"/><text fill="#000000" font-family="sans-serif" font-size="13" lengthAdjust="spacingAndGlyphs" textLength="92" x="1006" y="561.7778">Mount context</text><polygon fill="#A80036" points="1463.5,591.9766,1473.5,595.9766,1463.5,599.9766,1467.5,595.9766" style="stroke: #A80036; stroke-width: 1.0;"/><line style="stroke: #A80036; stroke-width: 1.0;" x1="989" x2="1469.5" y1="595.9766" y2="595.9766"/><text fill="#000000" font-family="sans-serif" font-size="13" lengthAdjust="spacingAndGlyphs" textLength="325" x="996" y="590.9106">Hook into scoring systems/tools (from `modules/`)</text><polygon fill="#A80036" points="1000,621.1094,990,625.1094,1000,629.1094,996,625.1094" style="stroke: #A80036; stroke-width: 1.0;"/><line style="stroke: #A80036; stroke-width: 1.0; stroke-dasharray: 2.0,2.0;" x1="994" x2="1479.5" y1="625.1094" y2="625.1094"/><text fill="#000000" font-family="sans-serif" font-size="13" lengthAdjust="spacingAndGlyphs" textLength="95" x="1006" y="620.0435">Bind interfaces</text><polygon fill="#A80036" points="1624.5,650.2422,1634.5,654.2422,1624.5,658.2422,1628.5,654.2422" style="stroke: #A80036; stroke-width: 1.0;"/><line style="stroke: #A80036; stroke-width: 1.0;" x1="984" x2="1630.5" y1="654.2422" y2="654.2422"/><text fill="#000000" font-family="sans-serif" font-size="13" lengthAdjust="spacingAndGlyphs" textLength="202" x="991" y="649.1763">Invoke core methodology / logic</text><rect fill="#EEEEEE" filter="url(#fayphib69f0ei)" height="3" style="stroke: #EEEEEE; stroke-width: 1.0;" width="1882.5" x="3" y="682.8086"/><line style="stroke: #000000; stroke-width: 1.0;" x1="3" x2="1885.5" y1="682.8086" y2="682.8086"/><line style="stroke: #000000; stroke-width: 1.0;" x1="3" x2="1885.5" y1="685.8086" y2="685.8086"/><rect fill="#EEEEEE" filter="url(#fayphib69f0ei)" height="23.1328" style="stroke: #000000; stroke-width: 2.0;" width="331" x="778.75" y="672.2422"/><text fill="#000000" font-family="sans-serif" font-size="13" font-weight="bold" lengthAdjust="spacingAndGlyphs" textLength="312" x="784.75" y="688.3091">4. Step Execution &amp; Quality Gate (Layer 4)</text><line style="stroke: #A80036; stroke-width: 1.0;" x1="1646.5" x2="1688.5" y1="726.5078" y2="726.5078"/><line style="stroke: #A80036; stroke-width: 1.0;" x1="1688.5" x2="1688.5" y1="726.5078" y2="739.5078"/><line style="stroke: #A80036; stroke-width: 1.0;" x1="1647.5" x2="1688.5" y1="739.5078" y2="739.5078"/><polygon fill="#A80036" points="1657.5,735.5078,1647.5,739.5078,1657.5,743.5078,1653.5,739.5078" style="stroke: #A80036; stroke-width: 1.0;"/><text fill="#000000" font-family="sans-serif" font-size="13" lengthAdjust="spacingAndGlyphs" textLength="190" x="1653.5" y="721.4419">Execute Micro-file tasks (1..N)</text><line style="stroke: #A80036; stroke-width: 1.0;" x1="1646.5" x2="1688.5" y1="768.6406" y2="768.6406"/><line style="stroke: #A80036; stroke-width: 1.0;" x1="1688.5" x2="1688.5" y1="768.6406" y2="781.6406"/><line style="stroke: #A80036; stroke-width: 1.0;" x1="1647.5" x2="1688.5" y1="781.6406" y2="781.6406"/><polygon fill="#A80036" points="1657.5,777.6406,1647.5,781.6406,1657.5,785.6406,1653.5,781.6406" style="stroke: #A80036; stroke-width: 1.0;"/><text fill="#000000" font-family="sans-serif" font-size="13" lengthAdjust="spacingAndGlyphs" textLength="220" x="1653.5" y="763.5747">Enforce Pre-Submission Checklists</text><polygon fill="#A80036" points="654,806.7734,644,810.7734,654,814.7734,650,810.7734" style="stroke: #A80036; stroke-width: 1.0;"/><line style="stroke: #A80036; stroke-width: 1.0;" x1="648" x2="1640.5" y1="810.7734" y2="810.7734"/><text fill="#000000" font-family="sans-serif" font-size="13" lengthAdjust="spacingAndGlyphs" textLength="119" x="660" y="805.7075">Return output blob</text><polygon fill="#A80036" points="349,835.9063,339,839.9063,349,843.9063,345,839.9063" style="stroke: #A80036; stroke-width: 1.0;"/><line style="stroke: #A80036; stroke-width: 1.0;" x1="343" x2="637" y1="839.9063" y2="839.9063"/><text fill="#000000" font-family="sans-serif" font-size="13" lengthAdjust="spacingAndGlyphs" textLength="78" x="355" y="834.8403">Pass Output</text><polygon fill="#A80036" points="38,865.0391,28,869.0391,38,873.0391,34,869.0391" style="stroke: #A80036; stroke-width: 1.0;"/><line style="stroke: #A80036; stroke-width: 1.0;" x1="32" x2="332" y1="869.0391" y2="869.0391"/><text fill="#000000" font-family="sans-serif" font-size="13" lengthAdjust="spacingAndGlyphs" textLength="128" x="44" y="863.9731">Render Final Artifact</text><!--MD5=[db4ae5061d58dae9235608ee7a7af387]
@startuml


title LND Studio v1.0.0 - Global Execution Sequence Diagram

actor User
participant ".agent/workflows/\n(Slash Command)" as Workflow
participant "studio/agents/\n(Persona & Engine)" as Agent
participant "SKILL.md\n(Contract & Injection)" as Skill
participant "knowledge/\n(Domain Context)" as Knowledge
participant "modules/\n(Sub-systems)" as Modules
participant "references/workflow.md\n(Step Logic)" as Steps

== 1. Workflow Trigger (Layer 1) ==
User -> Workflow: Trigger Slash Command (e.g. /gooner-audit)
activate Workflow
Workflow -> Workflow: Parse instruction parameters
Workflow -> Agent: LOAD FULL agent yaml (e.g. gooner-editor)

== 2. Agent Bootstrap (Layer 2) ==
activate Agent
Agent -> Agent: Resolve {project-root} via `BOOTSTRAP.md`
Agent -> Agent: Load Global Rules (`global_rule_hub.md`)
Agent -> Skill: Route to designated SKILL.md via action mapping

== 3. Skill & Auto-Injection (Layer 3) ==
activate Skill
Skill -> Skill: Parse YAML Frontmatter & `dependencies` contract
Skill -> Knowledge: Request Read-Only Context (from `knowledge/`)
activate Knowledge
Knowledge - -> Skill: Mount context
deactivate Knowledge

Skill -> Modules: Hook into scoring systems/tools (from `modules/`)
activate Modules
Modules - -> Skill: Bind interfaces
deactivate Modules

Skill -> Steps: Invoke core methodology / logic
deactivate Skill

== 4. Step Execution & Quality Gate (Layer 4) ==
activate Steps
Steps -> Steps: Execute Micro-file tasks (1..N)
Steps -> Steps: Enforce Pre-Submission Checklists
Steps -> Agent: Return output blob
deactivate Steps

Agent -> Workflow: Pass Output
deactivate Agent

Workflow -> User: Render Final Artifact
deactivate Workflow

@enduml

PlantUML version 1.2020.02(Sun Mar 01 17:22:07 ICT 2020)
(GPL source distribution)
Java Runtime: OpenJDK Runtime Environment
JVM: OpenJDK 64-Bit Server VM
Java Version: 21.0.10+7-Ubuntu-124.04
Operating System: Linux
Default Encoding: UTF-8
Language: en
Country: US
--></g></svg>