<?xml version="1.0" encoding="UTF-8" standalone="no"?><svg xmlns="http://www.w3.org/2000/svg" xmlns:xlink="http://www.w3.org/1999/xlink" contentScriptType="application/ecmascript" contentStyleType="text/css" height="1025px" preserveAspectRatio="none" style="width:1778px;height:1025px;" version="1.1" viewBox="0 0 1778 1025" width="1778px" zoomAndPan="magnify"><defs><filter height="300%" id="f1hp5xbg4k70sd" width="300%" x="-1" y="-1"><feGaussianBlur result="blurOut" stdDeviation="2.0"/><feColorMatrix in="blurOut" result="blurOut2" type="matrix" values="0 0 0 0 0 0 0 0 0 0 0 0 0 0 0 0 0 0 .4 0"/><feOffset dx="4.0" dy="4.0" in="blurOut2" result="blurOut3"/><feBlend in="SourceGraphic" in2="blurOut3" mode="normal"/></filter></defs><g><text fill="#000000" font-family="sans-serif" font-size="18" lengthAdjust="spacingAndGlyphs" textLength="379" x="695" y="26.708">Panel Forensic Engine - Sequence Diagram</text><rect fill="#FFFFFF" filter="url(#f1hp5xbg4k70sd)" height="87.3984" style="stroke: #A80036; stroke-width: 1.0;" width="10" x="1365" y="426.4453"/><rect fill="#FFFFFF" filter="url(#f1hp5xbg4k70sd)" height="71.2656" style="stroke: #A80036; stroke-width: 1.0;" width="10" x="1365" y="542.9766"/><rect fill="#FFFFFF" filter="url(#f1hp5xbg4k70sd)" height="71.2656" style="stroke: #A80036; stroke-width: 1.0;" width="10" x="1365" y="686.5078"/><line style="stroke: #A80036; stroke-width: 1.0; stroke-dasharray: 5.0,5.0;" x1="27" x2="27" y1="121.25" y2="935.4375"/><line style="stroke: #A80036; stroke-width: 1.0; stroke-dasharray: 5.0,5.0;" x1="235" x2="235" y1="121.25" y2="935.4375"/><line style="stroke: #A80036; stroke-width: 1.0; stroke-dasharray: 5.0,5.0;" x1="496.5" x2="496.5" y1="121.25" y2="935.4375"/><line style="stroke: #A80036; stroke-width: 1.0; stroke-dasharray: 5.0,5.0;" x1="723.5" x2="723.5" y1="121.25" y2="935.4375"/><line style="stroke: #A80036; stroke-width: 1.0; stroke-dasharray: 5.0,5.0;" x1="1058.5" x2="1058.5" y1="121.25" y2="935.4375"/><line style="stroke: #A80036; stroke-width: 1.0; stroke-dasharray: 5.0,5.0;" x1="1370" x2="1370" y1="121.25" y2="935.4375"/><line style="stroke: #A80036; stroke-width: 1.0; stroke-dasharray: 5.0,5.0;" x1="1689" x2="1689" y1="121.25" y2="935.4375"/><text fill="#000000" font-family="sans-serif" font-size="14" lengthAdjust="spacingAndGlyphs" textLength="32" x="8" y="117.9482">User</text><ellipse cx="27" cy="47.9531" fill="#FEFECE" filter="url(#f1hp5xbg4k70sd)" rx="8" ry="8" style="stroke: #A80036; stroke-width: 2.0;"/><path d="M27,55.9531 L27,82.9531 M14,63.9531 L40,63.9531 M27,82.9531 L14,97.9531 M27,82.9531 L40,97.9531 " fill="none" filter="url(#f1hp5xbg4k70sd)" style="stroke: #A80036; stroke-width: 2.0;"/><text fill="#000000" font-family="sans-serif" font-size="14" lengthAdjust="spacingAndGlyphs" textLength="32" x="8" y="947.4326">User</text><ellipse cx="27" cy="960.7344" fill="#FEFECE" filter="url(#f1hp5xbg4k70sd)" rx="8" ry="8" style="stroke: #A80036; stroke-width: 2.0;"/><path d="M27,968.7344 L27,995.7344 M14,976.7344 L40,976.7344 M27,995.7344 L14,1010.7344 M27,995.7344 L40,1010.7344 " fill="none" filter="url(#f1hp5xbg4k70sd)" style="stroke: #A80036; stroke-width: 2.0;"/><rect fill="#FEFECE" filter="url(#f1hp5xbg4k70sd)" height="46.5938" style="stroke: #A80036; stroke-width: 1.5;" width="136" x="165" y="69.6563"/><text fill="#000000" font-family="sans-serif" font-size="14" lengthAdjust="spacingAndGlyphs" textLength="62" x="202" y="89.6514">Workflow</text><text fill="#000000" font-family="sans-serif" font-size="14" lengthAdjust="spacingAndGlyphs" textLength="122" x="172" y="105.9482">(Slash Command)</text><rect fill="#FEFECE" filter="url(#f1hp5xbg4k70sd)" height="46.5938" style="stroke: #A80036; stroke-width: 1.5;" width="136" x="165" y="934.4375"/><text fill="#000000" font-family="sans-serif" font-size="14" lengthAdjust="spacingAndGlyphs" textLength="62" x="202" y="954.4326">Workflow</text><text fill="#000000" font-family="sans-serif" font-size="14" lengthAdjust="spacingAndGlyphs" textLength="122" x="172" y="970.7295">(Slash Command)</text><rect fill="#FEFECE" filter="url(#f1hp5xbg4k70sd)" height="46.5938" style="stroke: #A80036; stroke-width: 1.5;" width="93" x="448.5" y="69.6563"/><text fill="#000000" font-family="sans-serif" font-size="14" lengthAdjust="spacingAndGlyphs" textLength="79" x="455.5" y="89.6514">Kana Agent</text><text fill="#000000" font-family="sans-serif" font-size="14" lengthAdjust="spacingAndGlyphs" textLength="67" x="461.5" y="105.9482">(Persona)</text><rect fill="#FEFECE" filter="url(#f1hp5xbg4k70sd)" height="46.5938" style="stroke: #A80036; stroke-width: 1.5;" width="93" x="448.5" y="934.4375"/><text fill="#000000" font-family="sans-serif" font-size="14" lengthAdjust="spacingAndGlyphs" textLength="79" x="455.5" y="954.4326">Kana Agent</text><text fill="#000000" font-family="sans-serif" font-size="14" lengthAdjust="spacingAndGlyphs" textLength="67" x="461.5" y="970.7295">(Persona)</text><rect fill="#FEFECE" filter="url(#f1hp5xbg4k70sd)" height="46.5938" style="stroke: #A80036; stroke-width: 1.5;" width="145" x="649.5" y="69.6563"/><text fill="#000000" font-family="sans-serif" font-size="14" lengthAdjust="spacingAndGlyphs" textLength="131" x="656.5" y="89.6514">Panel Forensic Skill</text><text fill="#000000" font-family="sans-serif" font-size="14" lengthAdjust="spacingAndGlyphs" textLength="69" x="687.5" y="105.9482">(Contract)</text><rect fill="#FEFECE" filter="url(#f1hp5xbg4k70sd)" height="46.5938" style="stroke: #A80036; stroke-width: 1.5;" width="145" x="649.5" y="934.4375"/><text fill="#000000" font-family="sans-serif" font-size="14" lengthAdjust="spacingAndGlyphs" textLength="131" x="656.5" y="954.4326">Panel Forensic Skill</text><text fill="#000000" font-family="sans-serif" font-size="14" lengthAdjust="spacingAndGlyphs" textLength="69" x="687.5" y="970.7295">(Contract)</text><rect fill="#FEFECE" filter="url(#f1hp5xbg4k70sd)" height="46.5938" style="stroke: #A80036; stroke-width: 1.5;" width="89" x="1012.5" y="69.6563"/><text fill="#000000" font-family="sans-serif" font-size="14" lengthAdjust="spacingAndGlyphs" textLength="74" x="1020" y="89.6514">manga-ocr</text><text fill="#000000" font-family="sans-serif" font-size="14" lengthAdjust="spacingAndGlyphs" textLength="75" x="1019.5" y="105.9482">(MCP Tool)</text><rect fill="#FEFECE" filter="url(#f1hp5xbg4k70sd)" height="46.5938" style="stroke: #A80036; stroke-width: 1.5;" width="89" x="1012.5" y="934.4375"/><text fill="#000000" font-family="sans-serif" font-size="14" lengthAdjust="spacingAndGlyphs" textLength="74" x="1020" y="954.4326">manga-ocr</text><text fill="#000000" font-family="sans-serif" font-size="14" lengthAdjust="spacingAndGlyphs" textLength="75" x="1019.5" y="970.7295">(MCP Tool)</text><rect fill="#FEFECE" filter="url(#f1hp5xbg4k70sd)" height="46.5938" style="stroke: #A80036; stroke-width: 1.5;" width="126" x="1305" y="69.6563"/><text fill="#000000" font-family="sans-serif" font-size="14" lengthAdjust="spacingAndGlyphs" textLength="112" x="1312" y="89.6514">Execution Steps</text><text fill="#000000" font-family="sans-serif" font-size="14" lengthAdjust="spacingAndGlyphs" textLength="79" x="1328.5" y="105.9482">(Micro-files)</text><rect fill="#FEFECE" filter="url(#f1hp5xbg4k70sd)" height="46.5938" style="stroke: #A80036; stroke-width: 1.5;" width="126" x="1305" y="934.4375"/><text fill="#000000" font-family="sans-serif" font-size="14" lengthAdjust="spacingAndGlyphs" textLength="112" x="1312" y="954.4326">Execution Steps</text><text fill="#000000" font-family="sans-serif" font-size="14" lengthAdjust="spacingAndGlyphs" textLength="79" x="1328.5" y="970.7295">(Micro-files)</text><text fill="#000000" font-family="sans-serif" font-size="14" lengthAdjust="spacingAndGlyphs" textLength="36" x="1668" y="101.6514">State</text><text fill="#000000" font-family="sans-serif" font-size="14" lengthAdjust="spacingAndGlyphs" textLength="138" x="1617" y="117.9482">(forensic-state.json)</text><path d="M1671,52.6563 C1671,42.6563 1689,42.6563 1689,42.6563 C1689,42.6563 1707,42.6563 1707,52.6563 L1707,78.6563 C1707,88.6563 1689,88.6563 1689,88.6563 C1689,88.6563 1671,88.6563 1671,78.6563 L1671,52.6563 " fill="#FEFECE" filter="url(#f1hp5xbg4k70sd)" style="stroke: #000000; stroke-width: 1.5;"/><path d="M1671,52.6563 C1671,62.6563 1689,62.6563 1689,62.6563 C1689,62.6563 1707,62.6563 1707,52.6563 " fill="none" style="stroke: #000000; stroke-width: 1.5;"/><text fill="#000000" font-family="sans-serif" font-size="14" lengthAdjust="spacingAndGlyphs" textLength="36" x="1668" y="947.4326">State</text><text fill="#000000" font-family="sans-serif" font-size="14" lengthAdjust="spacingAndGlyphs" textLength="138" x="1617" y="963.7295">(forensic-state.json)</text><path d="M1671,977.0313 C1671,967.0313 1689,967.0313 1689,967.0313 C1689,967.0313 1707,967.0313 1707,977.0313 L1707,1003.0313 C1707,1013.0313 1689,1013.0313 1689,1013.0313 C1689,1013.0313 1671,1013.0313 1671,1003.0313 L1671,977.0313 " fill="#FEFECE" filter="url(#f1hp5xbg4k70sd)" style="stroke: #000000; stroke-width: 1.5;"/><path d="M1671,977.0313 C1671,987.0313 1689,987.0313 1689,987.0313 C1689,987.0313 1707,987.0313 1707,977.0313 " fill="none" style="stroke: #000000; stroke-width: 1.5;"/><rect fill="#FFFFFF" filter="url(#f1hp5xbg4k70sd)" height="87.3984" style="stroke: #A80036; stroke-width: 1.0;" width="10" x="1365" y="426.4453"/><rect fill="#FFFFFF" filter="url(#f1hp5xbg4k70sd)" height="71.2656" style="stroke: #A80036; stroke-width: 1.0;" width="10" x="1365" y="542.9766"/><rect fill="#FFFFFF" filter="url(#f1hp5xbg4k70sd)" height="71.2656" style="stroke: #A80036; stroke-width: 1.0;" width="10" x="1365" y="686.5078"/><rect fill="#EEEEEE" filter="url(#f1hp5xbg4k70sd)" height="3" style="stroke: #EEEEEE; stroke-width: 1.0;" width="1763" x="3" y="151.8164"/><line style="stroke: #000000; stroke-width: 1.0;" x1="3" x2="1766" y1="151.8164" y2="151.8164"/><line style="stroke: #000000; stroke-width: 1.0;" x1="3" x2="1766" y1="154.8164" y2="154.8164"/><rect fill="#EEEEEE" filter="url(#f1hp5xbg4k70sd)" height="23.1328" style="stroke: #000000; stroke-width: 2.0;" width="230" x="769.5" y="141.25"/><text fill="#000000" font-family="sans-serif" font-size="13" font-weight="bold" lengthAdjust="spacingAndGlyphs" textLength="211" x="775.5" y="157.3169">1. Activation &amp; Context Load</text><polygon fill="#A80036" points="223,191.5156,233,195.5156,223,199.5156,227,195.5156" style="stroke: #A80036; stroke-width: 1.0;"/><line style="stroke: #A80036; stroke-width: 1.0;" x1="27" x2="229" y1="195.5156" y2="195.5156"/><text fill="#000000" font-family="sans-serif" font-size="13" lengthAdjust="spacingAndGlyphs" textLength="184" x="34" y="190.4497">/panel-forensic [image_path]</text><polygon fill="#A80036" points="485,220.6484,495,224.6484,485,228.6484,489,224.6484" style="stroke: #A80036; stroke-width: 1.0;"/><line style="stroke: #A80036; stroke-width: 1.0;" x1="235" x2="491" y1="224.6484" y2="224.6484"/><text fill="#000000" font-family="sans-serif" font-size="13" lengthAdjust="spacingAndGlyphs" textLength="238" x="242" y="219.5825">Load 'panel-forensic-analyst' Persona</text><polygon fill="#A80036" points="712,249.7813,722,253.7813,712,257.7813,716,253.7813" style="stroke: #A80036; stroke-width: 1.0;"/><line style="stroke: #A80036; stroke-width: 1.0;" x1="497" x2="718" y1="253.7813" y2="253.7813"/><text fill="#000000" font-family="sans-serif" font-size="13" lengthAdjust="spacingAndGlyphs" textLength="203" x="504" y="248.7153">Mount 'panel-forensic/SKILL.md'</text><line style="stroke: #A80036; stroke-width: 1.0;" x1="724" x2="766" y1="282.9141" y2="282.9141"/><line style="stroke: #A80036; stroke-width: 1.0;" x1="766" x2="766" y1="282.9141" y2="295.9141"/><line style="stroke: #A80036; stroke-width: 1.0;" x1="725" x2="766" y1="295.9141" y2="295.9141"/><polygon fill="#A80036" points="735,291.9141,725,295.9141,735,299.9141,731,295.9141" style="stroke: #A80036; stroke-width: 1.0;"/><text fill="#000000" font-family="sans-serif" font-size="13" lengthAdjust="spacingAndGlyphs" textLength="321" x="731" y="277.8481">Inject 'r18_sensory_pack' &amp; 'fetish_guidance_pack'</text><rect fill="#EEEEEE" filter="url(#f1hp5xbg4k70sd)" height="3" style="stroke: #EEEEEE; stroke-width: 1.0;" width="1763" x="3" y="324.4805"/><line style="stroke: #000000; stroke-width: 1.0;" x1="3" x2="1766" y1="324.4805" y2="324.4805"/><line style="stroke: #000000; stroke-width: 1.0;" x1="3" x2="1766" y1="327.4805" y2="327.4805"/><rect fill="#EEEEEE" filter="url(#f1hp5xbg4k70sd)" height="23.1328" style="stroke: #000000; stroke-width: 2.0;" width="225" x="772" y="313.9141"/><text fill="#000000" font-family="sans-serif" font-size="13" font-weight="bold" lengthAdjust="spacingAndGlyphs" textLength="206" x="778" y="329.981">2. Dialogue-Anchor Protocol</text><polygon fill="#A80036" points="1358,364.1797,1368,368.1797,1358,372.1797,1362,368.1797" style="stroke: #A80036; stroke-width: 1.0;"/><line style="stroke: #A80036; stroke-width: 1.0;" x1="724" x2="1364" y1="368.1797" y2="368.1797"/><text fill="#000000" font-family="sans-serif" font-size="13" lengthAdjust="spacingAndGlyphs" textLength="217" x="731" y="363.1138">Execute step-01 (Input Validation)</text><polygon fill="#A80036" points="1677,393.3125,1687,397.3125,1677,401.3125,1681,397.3125" style="stroke: #A80036; stroke-width: 1.0;"/><line style="stroke: #A80036; stroke-width: 1.0;" x1="1370" x2="1683" y1="397.3125" y2="397.3125"/><text fill="#000000" font-family="sans-serif" font-size="13" lengthAdjust="spacingAndGlyphs" textLength="156" x="1377" y="392.2466">Init empty forensic-state</text><polygon fill="#A80036" points="1353,422.4453,1363,426.4453,1353,430.4453,1357,426.4453" style="stroke: #A80036; stroke-width: 1.0;"/><line style="stroke: #A80036; stroke-width: 1.0;" x1="724" x2="1359" y1="426.4453" y2="426.4453"/><text fill="#000000" font-family="sans-serif" font-size="13" lengthAdjust="spacingAndGlyphs" textLength="246" x="731" y="421.3794">Execute step-02 (Pure OCR Extraction)</text><polygon fill="#A80036" points="1070,451.5781,1060,455.5781,1070,459.5781,1066,455.5781" style="stroke: #A80036; stroke-width: 1.0;"/><line style="stroke: #A80036; stroke-width: 1.0;" x1="1064" x2="1364" y1="455.5781" y2="455.5781"/><text fill="#000000" font-family="sans-serif" font-size="13" lengthAdjust="spacingAndGlyphs" textLength="282" x="1076" y="450.5122">mcp_manga-ocr_ocr_full_page(image_path)</text><polygon fill="#A80036" points="1353,480.7109,1363,484.7109,1353,488.7109,1357,484.7109" style="stroke: #A80036; stroke-width: 1.0;"/><line style="stroke: #A80036; stroke-width: 1.0; stroke-dasharray: 2.0,2.0;" x1="1059" x2="1359" y1="484.7109" y2="484.7109"/><text fill="#000000" font-family="sans-serif" font-size="13" lengthAdjust="spacingAndGlyphs" textLength="94" x="1066" y="479.645">Raw Text Block</text><polygon fill="#A80036" points="1677,509.8438,1687,513.8438,1677,517.8438,1681,513.8438" style="stroke: #A80036; stroke-width: 1.0;"/><line style="stroke: #A80036; stroke-width: 1.0;" x1="1370" x2="1683" y1="513.8438" y2="513.8438"/><text fill="#000000" font-family="sans-serif" font-size="13" lengthAdjust="spacingAndGlyphs" textLength="190" x="1377" y="508.7778">Save 'raw_text' independently</text><polygon fill="#A80036" points="1353,538.9766,1363,542.9766,1353,546.9766,1357,542.9766" style="stroke: #A80036; stroke-width: 1.0;"/><line style="stroke: #A80036; stroke-width: 1.0;" x1="724" x2="1359" y1="542.9766" y2="542.9766"/><text fill="#000000" font-family="sans-serif" font-size="13" lengthAdjust="spacingAndGlyphs" textLength="243" x="731" y="537.9106">Execute step-03 (Dialogue Alignment)</text><line style="stroke: #A80036; stroke-width: 1.0;" x1="1375" x2="1417" y1="572.1094" y2="572.1094"/><line style="stroke: #A80036; stroke-width: 1.0;" x1="1417" x2="1417" y1="572.1094" y2="585.1094"/><line style="stroke: #A80036; stroke-width: 1.0;" x1="1376" x2="1417" y1="585.1094" y2="585.1094"/><polygon fill="#A80036" points="1386,581.1094,1376,585.1094,1386,589.1094,1382,585.1094" style="stroke: #A80036; stroke-width: 1.0;"/><text fill="#000000" font-family="sans-serif" font-size="13" lengthAdjust="spacingAndGlyphs" textLength="215" x="1382" y="567.0435">Map raw text to character entities</text><polygon fill="#A80036" points="1677,610.2422,1687,614.2422,1677,618.2422,1681,614.2422" style="stroke: #A80036; stroke-width: 1.0;"/><line style="stroke: #A80036; stroke-width: 1.0;" x1="1370" x2="1683" y1="614.2422" y2="614.2422"/><text fill="#000000" font-family="sans-serif" font-size="13" lengthAdjust="spacingAndGlyphs" textLength="204" x="1377" y="609.1763">Save structured dialogue blocks</text><rect fill="#EEEEEE" filter="url(#f1hp5xbg4k70sd)" height="3" style="stroke: #EEEEEE; stroke-width: 1.0;" width="1763" x="3" y="642.8086"/><line style="stroke: #000000; stroke-width: 1.0;" x1="3" x2="1766" y1="642.8086" y2="642.8086"/><line style="stroke: #000000; stroke-width: 1.0;" x1="3" x2="1766" y1="645.8086" y2="645.8086"/><rect fill="#EEEEEE" filter="url(#f1hp5xbg4k70sd)" height="23.1328" style="stroke: #000000; stroke-width: 2.0;" width="189" x="790" y="632.2422"/><text fill="#000000" font-family="sans-serif" font-size="13" font-weight="bold" lengthAdjust="spacingAndGlyphs" textLength="170" x="796" y="648.3091">3. Visual Forensic Scan</text><polygon fill="#A80036" points="1353,682.5078,1363,686.5078,1353,690.5078,1357,686.5078" style="stroke: #A80036; stroke-width: 1.0;"/><line style="stroke: #A80036; stroke-width: 1.0;" x1="724" x2="1359" y1="686.5078" y2="686.5078"/><text fill="#000000" font-family="sans-serif" font-size="13" lengthAdjust="spacingAndGlyphs" textLength="246" x="731" y="681.4419">Execute step-04 (Environmental Scan)</text><line style="stroke: #A80036; stroke-width: 1.0;" x1="1375" x2="1417" y1="715.6406" y2="715.6406"/><line style="stroke: #A80036; stroke-width: 1.0;" x1="1417" x2="1417" y1="715.6406" y2="728.6406"/><line style="stroke: #A80036; stroke-width: 1.0;" x1="1376" x2="1417" y1="728.6406" y2="728.6406"/><polygon fill="#A80036" points="1386,724.6406,1376,728.6406,1386,732.6406,1382,728.6406" style="stroke: #A80036; stroke-width: 1.0;"/><text fill="#000000" font-family="sans-serif" font-size="13" lengthAdjust="spacingAndGlyphs" textLength="295" x="1382" y="710.5747">Pervert Scan Protocol (Fluids, Smells, Clothes)</text><polygon fill="#A80036" points="1677,753.7734,1687,757.7734,1677,761.7734,1681,757.7734" style="stroke: #A80036; stroke-width: 1.0;"/><line style="stroke: #A80036; stroke-width: 1.0;" x1="1370" x2="1683" y1="757.7734" y2="757.7734"/><text fill="#000000" font-family="sans-serif" font-size="13" lengthAdjust="spacingAndGlyphs" textLength="174" x="1377" y="752.7075">Save sensory &amp; visual data</text><rect fill="#EEEEEE" filter="url(#f1hp5xbg4k70sd)" height="3" style="stroke: #EEEEEE; stroke-width: 1.0;" width="1763" x="3" y="786.3398"/><line style="stroke: #000000; stroke-width: 1.0;" x1="3" x2="1766" y1="786.3398" y2="786.3398"/><line style="stroke: #000000; stroke-width: 1.0;" x1="3" x2="1766" y1="789.3398" y2="789.3398"/><rect fill="#EEEEEE" filter="url(#f1hp5xbg4k70sd)" height="23.1328" style="stroke: #000000; stroke-width: 2.0;" width="149" x="810" y="775.7734"/><text fill="#000000" font-family="sans-serif" font-size="13" font-weight="bold" lengthAdjust="spacingAndGlyphs" textLength="130" x="816" y="791.8403">4. Final Assembly</text><polygon fill="#A80036" points="1358,826.0391,1368,830.0391,1358,834.0391,1362,830.0391" style="stroke: #A80036; stroke-width: 1.0;"/><line style="stroke: #A80036; stroke-width: 1.0;" x1="724" x2="1364" y1="830.0391" y2="830.0391"/><text fill="#000000" font-family="sans-serif" font-size="13" lengthAdjust="spacingAndGlyphs" textLength="193" x="731" y="824.9731">Execute step-05 (Final Report)</text><polygon fill="#A80036" points="1677,855.1719,1687,859.1719,1677,863.1719,1681,859.1719" style="stroke: #A80036; stroke-width: 1.0;"/><line style="stroke: #A80036; stroke-width: 1.0;" x1="1370" x2="1683" y1="859.1719" y2="859.1719"/><text fill="#000000" font-family="sans-serif" font-size="13" lengthAdjust="spacingAndGlyphs" textLength="220" x="1377" y="854.106">Validate JSON schema compliance</text><polygon fill="#A80036" points="508,884.3047,498,888.3047,508,892.3047,504,888.3047" style="stroke: #A80036; stroke-width: 1.0;"/><line style="stroke: #A80036; stroke-width: 1.0;" x1="502" x2="1369" y1="888.3047" y2="888.3047"/><text fill="#000000" font-family="sans-serif" font-size="13" lengthAdjust="spacingAndGlyphs" textLength="177" x="514" y="883.2388">Return forensic-state object</text><polygon fill="#A80036" points="38,913.4375,28,917.4375,38,921.4375,34,917.4375" style="stroke: #A80036; stroke-width: 1.0;"/><line style="stroke: #A80036; stroke-width: 1.0;" x1="32" x2="496" y1="917.4375" y2="917.4375"/><text fill="#000000" font-family="sans-serif" font-size="13" lengthAdjust="spacingAndGlyphs" textLength="153" x="44" y="912.3716">Display Forensic Artifact</text><!--MD5=[0085177c9de6a058c34664cb9b3bc8a3]
@startuml


title Panel Forensic Engine - Sequence Diagram

actor User
participant "Workflow\n(Slash Command)" as Trigger
participant "Kana Agent\n(Persona)" as Agent
participant "Panel Forensic Skill\n(Contract)" as Skill
participant "manga-ocr\n(MCP Tool)" as OCRTool
participant "Execution Steps\n(Micro-files)" as Steps
database "State\n(forensic-state.json)" as State

== 1. Activation & Context Load ==
User -> Trigger: /panel-forensic [image_path]
Trigger -> Agent: Load 'panel-forensic-analyst' Persona
Agent -> Skill: Mount 'panel-forensic/SKILL.md'
Skill -> Skill: Inject 'r18_sensory_pack' & 'fetish_guidance_pack'

== 2. Dialogue-Anchor Protocol ==
Skill -> Steps: Execute step-01 (Input Validation)
Steps -> State: Init empty forensic-state

Skill -> Steps: Execute step-02 (Pure OCR Extraction)
activate Steps
Steps -> OCRTool: mcp_manga-ocr_ocr_full_page(image_path)
OCRTool - -> Steps: Raw Text Block
Steps -> State: Save 'raw_text' independently
deactivate Steps

Skill -> Steps: Execute step-03 (Dialogue Alignment)
activate Steps
Steps -> Steps: Map raw text to character entities
Steps -> State: Save structured dialogue blocks
deactivate Steps

== 3. Visual Forensic Scan ==
Skill -> Steps: Execute step-04 (Environmental Scan)
activate Steps
Steps -> Steps: Pervert Scan Protocol (Fluids, Smells, Clothes)
Steps -> State: Save sensory & visual data
deactivate Steps

== 4. Final Assembly ==
Skill -> Steps: Execute step-05 (Final Report)
Steps -> State: Validate JSON schema compliance
Steps -> Agent: Return forensic-state object
Agent -> User: Display Forensic Artifact
@enduml

PlantUML version 1.2020.02(Sun Mar 01 17:22:07 ICT 2020)
(GPL source distribution)
Java Runtime: OpenJDK Runtime Environment
JVM: OpenJDK 64-Bit Server VM
Java Version: 21.0.10+7-Ubuntu-124.04
Operating System: Linux
Default Encoding: UTF-8
Language: en
Country: US
--></g></svg>